<svg xmlns="http://www.w3.org/2000/svg" version="1.1" xmlns:xlink="http://www.w3.org/1999/xlink" xmlns:svgjs="http://svgjs.dev/svgjs" width="60.72" height="60.72"><svg xmlns="http://www.w3.org/2000/svg" xmlns:xlink="http://www.w3.org/1999/xlink" zoomAndPan="magnify" preserveAspectRatio="xMidYMid meet" version="1.0" viewBox="16.7 16 60.72 60.72"><defs><g></g><clipPath id="SvgjsClipPath1003"><path d="M 16.703125 16 L 77.425781 16 L 77.425781 76.722656 L 16.703125 76.722656 Z M 16.703125 16 " clip-rule="nonzero"></path></clipPath><clipPath id="SvgjsClipPath1002"><path d="M 22.726562 16 L 71.402344 16 C 74.730469 16 77.425781 18.695312 77.425781 22.023438 L 77.425781 70.699219 C 77.425781 74.023438 74.730469 76.722656 71.402344 76.722656 L 22.726562 76.722656 C 19.402344 76.722656 16.703125 74.023438 16.703125 70.699219 L 16.703125 22.023438 C 16.703125 18.695312 19.402344 16 22.726562 16 Z M 22.726562 16 " clip-rule="nonzero"></path></clipPath></defs><g clip-path="url(#f679f03389)"><g clip-path="url(#004691511e)"><path fill="#ffb133" d="M 16.703125 16 L 77.425781 16 L 77.425781 76.722656 L 16.703125 76.722656 Z M 16.703125 16 " fill-opacity="1" fill-rule="nonzero"></path></g></g><g fill="#ffffff" fill-opacity="1"><g transform="translate(18.20665, 64.845324)"><g><path d="M 3.625 -32.203125 L 3.71875 -34.53125 L 26.390625 -34.53125 L 26.390625 -31.59375 C 26.390625 -29.675781 26.34375 -28.601562 26.25 -28.375 C 26.207031 -28.238281 25.804688 -28.15625 25.046875 -28.125 C 24.285156 -28.09375 22.453125 -28.078125 19.546875 -28.078125 L 11.21875 -28.078125 L 11.21875 -20.984375 C 12.269531 -21.015625 13.640625 -21.03125 15.328125 -21.03125 C 19.234375 -21.03125 21.832031 -20.984375 23.125 -20.890625 L 24.90625 -20.84375 L 24.90625 -14.4375 L 18.65625 -14.484375 L 11.21875 -14.484375 L 11.21875 0 L 3.71875 0 L 3.578125 -0.84375 C 3.503906 -1.375 3.46875 -6.359375 3.46875 -15.796875 C 3.46875 -25.242188 3.519531 -30.710938 3.625 -32.203125 Z M 3.625 -32.203125 "></path></g></g></g><g fill="#ffffff" fill-opacity="1"><g transform="translate(47.576949, 64.845324)"><g></g></g></g><g fill="#ffffff" fill-opacity="1"><g transform="translate(47.561707, 64.845324)"><g><path d="M 10.609375 -34.96875 C 11.273438 -35.070312 12.78125 -35.125 15.125 -35.125 C 16.6875 -35.09375 17.738281 -35.039062 18.28125 -34.96875 C 18.820312 -34.90625 19.457031 -34.742188 20.1875 -34.484375 C 22.5 -33.785156 23.773438 -33.085938 24.015625 -32.390625 C 24.078125 -32.160156 24.109375 -32 24.109375 -31.90625 C 24.109375 -31.863281 24.109375 -31.828125 24.109375 -31.796875 C 24.046875 -31.703125 23.816406 -30.726562 23.421875 -28.875 C 23.023438 -26.988281 22.789062 -25.992188 22.71875 -25.890625 C 22.71875 -25.859375 22.671875 -25.84375 22.578125 -25.84375 C 22.335938 -25.84375 21.738281 -26.078125 20.78125 -26.546875 C 19.695312 -27.066406 18.738281 -27.4375 17.90625 -27.65625 C 17.082031 -27.875 16.222656 -27.984375 15.328125 -27.984375 C 13.441406 -27.984375 12.070312 -27.519531 11.21875 -26.59375 C 10.78125 -26.09375 10.550781 -25.734375 10.53125 -25.515625 C 10.519531 -25.304688 10.515625 -25.203125 10.515625 -25.203125 C 10.515625 -24.773438 10.75 -24.3125 11.21875 -23.8125 C 11.570312 -23.351562 12.078125 -22.972656 12.734375 -22.671875 C 13.398438 -22.367188 14.644531 -21.957031 16.46875 -21.4375 C 18.257812 -20.90625 19.382812 -20.503906 19.84375 -20.234375 C 21.03125 -19.742188 22.175781 -18.953125 23.28125 -17.859375 C 24.394531 -16.765625 25.117188 -15.753906 25.453125 -14.828125 C 25.710938 -14.140625 25.867188 -13.363281 25.921875 -12.5 C 25.972656 -11.644531 26 -11.015625 26 -10.609375 C 26 -9.847656 25.945312 -9.1875 25.84375 -8.625 C 25.445312 -6.644531 24.515625 -4.894531 23.046875 -3.375 C 21.578125 -1.851562 19.816406 -0.796875 17.765625 -0.203125 C 16.203125 0.234375 14.328125 0.453125 12.140625 0.453125 C 9.960938 0.453125 7.957031 0.28125 6.125 -0.0625 C 4.289062 -0.414062 3.039062 -0.941406 2.375 -1.640625 C 2.175781 -1.835938 2.066406 -2.191406 2.046875 -2.703125 C 2.035156 -3.210938 2.03125 -3.503906 2.03125 -3.578125 C 2.03125 -4.429688 2.113281 -5.421875 2.28125 -6.546875 C 2.414062 -7.734375 2.546875 -8.328125 2.671875 -8.328125 C 2.710938 -8.328125 2.78125 -8.28125 2.875 -8.1875 C 2.976562 -8.082031 3.144531 -8.03125 3.375 -8.03125 C 3.4375 -8.03125 3.503906 -8.03125 3.578125 -8.03125 C 3.867188 -8.03125 4.660156 -7.929688 5.953125 -7.734375 C 7.304688 -7.441406 8.992188 -7.296875 11.015625 -7.296875 C 12.503906 -7.296875 13.445312 -7.316406 13.84375 -7.359375 C 14.238281 -7.410156 14.6875 -7.570312 15.1875 -7.84375 C 15.78125 -8.132812 16.265625 -8.519531 16.640625 -9 C 17.023438 -9.476562 17.25 -10.015625 17.3125 -10.609375 C 17.3125 -10.710938 17.3125 -10.816406 17.3125 -10.921875 C 17.3125 -11.078125 17.285156 -11.226562 17.234375 -11.375 C 17.191406 -11.53125 17.035156 -11.773438 16.765625 -12.109375 C 16.335938 -12.640625 15.75 -13.078125 15 -13.421875 C 14.257812 -13.765625 12.898438 -14.21875 10.921875 -14.78125 C 8.671875 -15.507812 7.226562 -16.023438 6.59375 -16.328125 C 5.96875 -16.648438 5.304688 -17.140625 4.609375 -17.796875 C 3.921875 -18.460938 3.394531 -19.113281 3.03125 -19.75 C 2.394531 -20.96875 2.046875 -22.039062 1.984375 -22.96875 C 1.921875 -23.894531 1.890625 -24.523438 1.890625 -24.859375 C 1.890625 -26.078125 2.09375 -27.351562 2.5 -28.6875 C 2.914062 -30.03125 3.570312 -31.203125 4.46875 -32.203125 C 5 -32.765625 5.875 -33.316406 7.09375 -33.859375 C 8.320312 -34.398438 9.492188 -34.769531 10.609375 -34.96875 Z M 10.609375 -34.96875 "></path></g></g></g></svg><style>@media (prefers-color-scheme: light) { :root { filter: none; } }
@media (prefers-color-scheme: dark) { :root { filter: none; } }
</style></svg>
