<svg xmlns="http://www.w3.org/2000/svg" viewBox="0 0 140.46 70.58"><defs><style>.cls-1{fill:#613bbc;}.cls-2{fill:#7745d8;}.cls-3{fill:#9174e8;}.cls-4{font-size:47.13px;fill:#fff;font-family:Lato-Black, Lato;font-weight:800;}.cls-5{letter-spacing:-0.02em;}.cls-6{letter-spacing:0em;}.cls-7{fill:#f1f2f2;}.cls-8{fill:#120533;}</style></defs><g id="Camada_2" data-name="Camada 2"><g id="Octo"><g id="brand"><g id="TB"><path class="cls-1" d="M23.53,19.32s7.54,2.51,8,6.67c.81,7-4.09,6.2-6.68,8.15s-1.72,4,.73,4.78c1.71.52,2.76,1.1,2.72,3a2.3,2.3,0,0,1-3.28,2.32,2,2,0,0,1-1-1.38c.53.75,3.16,1.8,2.71-.86-.24-1.42-2.28-1.32-4-2.57-1.54-1.09-2.42-3.17-1-6,2-4,6.61-2.65,6.63-5.62,0-2.66-6.59-4.1-6.59-4.1Z"/><path class="cls-2" d="M27.79,29.74a2,2,0,0,0,.54-1.86c0,3-4.65,1.63-6.63,5.62a6,6,0,0,0-.7,2.87,8.82,8.82,0,0,1,1.91-3.7C24.29,31.14,27,30.61,27.79,29.74Z"/><path class="cls-2" d="M31.56,26c-.34-2.86-4-4.95-6.27-6l.66.9a18,18,0,0,1,4.63,5,6.91,6.91,0,0,1,.5,4.32A7.49,7.49,0,0,0,31.56,26Z"/><path class="cls-3" d="M28.68,24.42c-.28.2-.28.69,0,1.11s.71.6,1,.4a.84.84,0,0,0,0-1.11C29.39,24.4,29,24.22,28.68,24.42Zm1,1.3c-.2.14-.52,0-.71-.29a.6.6,0,0,1,0-.8c.2-.14.51,0,.71.29S29.84,25.58,29.64,25.72Z"/><path class="cls-3" d="M27.29,23c-.28.2-.28.69,0,1.11s.71.6,1,.4.28-.69,0-1.11S27.56,22.76,27.29,23Zm1,1.3c-.19.15-.51,0-.71-.28s-.19-.67,0-.81.52,0,.71.29A.6.6,0,0,1,28.25,24.26Z"/><path class="cls-3" d="M27.63,25.18a.85.85,0,0,0,0,1.11c.27.42.71.59,1,.4a.85.85,0,0,0,0-1.11C28.35,25.16,27.91,25,27.63,25.18Zm1,1.3c-.2.14-.52,0-.71-.29a.6.6,0,0,1,0-.8c.19-.14.51,0,.71.29S28.8,26.34,28.6,26.48Z"/><path class="cls-3" d="M29.85,26.21a.81.81,0,0,0-.2,1c.18.44.56.68.85.55s.38-.59.2-1S30.14,26.08,29.85,26.21Zm.68,1.4c-.21.09-.49-.09-.62-.4a.58.58,0,0,1,.15-.75c.21-.1.48.08.61.4S30.74,27.51,30.53,27.61Z"/><path class="cls-3" d="M28.8,26.82a.81.81,0,0,0-.2,1c.18.44.56.68.85.55s.38-.59.2-1S29.09,26.69,28.8,26.82Zm.68,1.4c-.21.09-.49-.09-.62-.4a.58.58,0,0,1,.15-.75c.21-.1.48.08.61.4S29.69,28.12,29.48,28.22Z"/><path class="cls-3" d="M26.59,33.11a.82.82,0,0,0,.29-.49l-.17-.06a.49.49,0,0,1-.2.54.42.42,0,0,1-.59,0,.48.48,0,0,1,.17-.6,1,1,0,0,1,.19-.12L26,32.34a.66.66,0,0,0-.22.83C25.94,33.38,26.3,33.35,26.59,33.11Z"/><path class="cls-3" d="M25.93,32.32l-.08,0a.75.75,0,0,1-.15.16c-.25.22-.56.26-.69.1a.47.47,0,0,1,.07-.52l-.2-.07a.55.55,0,0,0,0,.62c.17.23.6.17.95-.13A1.85,1.85,0,0,0,25.93,32.32Z"/><path class="cls-3" d="M25,33.29a.57.57,0,0,0-.81.06.66.66,0,0,0-.23.83c.16.21.53.18.82-.06S25.21,33.5,25,33.29Zm-.89.87c-.12-.15,0-.42.16-.6s.48-.2.6-.05a.48.48,0,0,1-.17.6C24.53,34.29,24.27,34.31,24.15,34.16Z"/><path class="cls-3" d="M24.33,32.52c-.17-.23-.6-.17-.95.13s-.49.72-.32,1,.61.17,1-.13S24.51,32.75,24.33,32.52Zm-1.09,1c-.13-.17,0-.48.23-.69s.56-.26.69-.1,0,.48-.23.69S23.37,33.73,23.24,33.57Z"/><path class="cls-3" d="M23.71,34.48c-.19-.16-.52-.07-.74.21a.62.62,0,0,0-.07.8c.18.17.51.07.74-.2A.63.63,0,0,0,23.71,34.48Zm-.68,1a.44.44,0,0,1,.06-.58c.16-.21.4-.27.53-.15a.45.45,0,0,1-.05.58A.41.41,0,0,1,23,35.45Z"/><path class="cls-3" d="M22.93,33.91c-.2-.18-.58,0-.85.29s-.33.76-.13.93.58,0,.85-.29S23.13,34.09,22.93,33.91Zm-.83,1.16c-.14-.13-.1-.43.1-.67s.47-.34.61-.22.1.43-.09.68S22.25,35.2,22.1,35.07Z"/><path class="cls-3" d="M22.83,35.77c-.2-.09-.47.08-.59.39s0,.63.15.72.47-.09.59-.4S23,35.85,22.83,35.77Zm-.33,1a.4.4,0,0,1-.11-.52c.09-.22.28-.35.42-.29a.4.4,0,0,1,.11.52C22.83,36.74,22.65,36.86,22.5,36.8Z"/><path class="cls-3" d="M22,35.5c-.22-.1-.51.12-.66.5s-.09.75.13.85.52-.13.66-.51S22.22,35.59,22,35.5Zm-.41,1.25c-.16-.07-.2-.35-.1-.62s.32-.43.48-.36.2.34.1.61S21.75,36.81,21.59,36.75Z"/><path class="cls-3" d="M22.55,37c-.19.05-.29.31-.22.59s.27.47.45.42.28-.31.22-.59S22.73,37,22.55,37Zm.27.9c-.14,0-.28-.1-.33-.3s0-.4.15-.43.29.1.33.3S23,37.88,22.82,37.91Z"/><path class="cls-3" d="M21.84,37.27c-.2,0-.3.37-.22.71s.31.57.51.52.29-.37.21-.71S22,37.22,21.84,37.27Zm.32,1.09c-.14,0-.31-.13-.37-.37s0-.48.16-.52.31.14.37.38S22.3,38.33,22.16,38.36Z"/><path class="cls-3" d="M30.6,28.26c-.3,0-.55.42-.56.94s.23.95.53,1,.54-.42.55-.94S30.9,28.27,30.6,28.26ZM30.66,30c-.22,0-.39-.32-.38-.7s.19-.68.4-.67.39.31.38.69S30.88,30,30.66,30Z"/><path class="cls-3" d="M29.36,28.63c-.24,0-.43.36-.43.8s.22.8.46.79.44-.36.43-.8S29.61,28.63,29.36,28.63Zm.1,1.44c-.17,0-.32-.25-.33-.57s.14-.58.32-.58.32.25.33.57S29.64,30.07,29.46,30.07Z"/></g><path class="cls-1" d="M16,19.75s-7.43,2.82-7.75,7c-.53,7,4.34,6,7,7.88s1.88,4-.53,4.8c-1.69.59-2.72,1.21-2.6,3.15a2.3,2.3,0,0,0,3.37,2.18,2,2,0,0,0,1-1.42c-.5.77-3.09,1.93-2.74-.75.18-1.42,2.22-1.41,3.92-2.72,1.49-1.16,2.28-3.27.78-6-2.15-3.91-6.72-2.38-6.86-5.35C11.47,25.84,18,24.14,18,24.14Z"/><path class="cls-2" d="M12.2,30.34a2,2,0,0,1-.61-1.84c.14,3,4.71,1.44,6.86,5.35a5.91,5.91,0,0,1,.81,2.83,8.87,8.87,0,0,0-2.06-3.61C15.76,31.59,13.08,31.17,12.2,30.34Z"/><path class="cls-2" d="M8.29,26.74c.22-2.87,3.81-5.1,6-6.21l-.62.92a17.94,17.94,0,0,0-4.42,5.19A6.88,6.88,0,0,0,8.94,31,7.41,7.41,0,0,1,8.29,26.74Z"/><path class="cls-3" d="M10.14,25.49c-.25.43-.23.93,0,1.11s.72,0,1-.43.23-.93-.05-1.11S10.39,25.07,10.14,25.49Zm0,.1c.19-.3.5-.45.7-.31s.23.49,0,.8-.49.45-.7.32A.63.63,0,0,1,10.15,25.59Z"/><path class="cls-3" d="M11.46,24a.85.85,0,0,0,.06,1.11c.28.18.72,0,1-.44a.85.85,0,0,0-.06-1.11C12.15,23.36,11.72,23.55,11.46,24Zm0,.1c.18-.31.5-.45.7-.32a.63.63,0,0,1,0,.81c-.18.31-.49.45-.7.31S11.3,24.39,11.48,24.08Z"/><path class="cls-3" d="M11.21,26.21a.84.84,0,0,0,.06,1.11c.28.19.71,0,1-.44a.85.85,0,0,0-.05-1.11C11.89,25.59,11.46,25.78,11.21,26.21Zm0,.1c.18-.31.49-.45.7-.32a.63.63,0,0,1,0,.81c-.19.31-.5.45-.7.31S11,26.62,11.23,26.31Z"/><path class="cls-3" d="M9.18,27.49c-.16.44-.06.9.24,1s.66-.14.83-.59.05-.9-.24-1S9.34,27,9.18,27.49Zm0,.09c.12-.32.39-.52.6-.43s.29.42.17.74-.38.52-.6.43S9.09,27.9,9.21,27.58Z"/><path class="cls-3" d="M10.25,28.05c-.16.45-.05.91.24,1s.67-.15.83-.59,0-.91-.24-1S10.41,27.61,10.25,28.05Zm0,.09c.12-.32.39-.51.6-.42s.29.42.18.74-.39.51-.6.43S10.17,28.47,10.28,28.14Z"/><path class="cls-3" d="M13.54,33.65a.81.81,0,0,1-.31-.47l.17-.06a.51.51,0,0,0,.22.53.42.42,0,0,0,.59,0,.48.48,0,0,0-.19-.6.54.54,0,0,0-.2-.1l.29-.1a.65.65,0,0,1,.25.81C14.21,33.9,13.84,33.89,13.54,33.65Z"/><path class="cls-3" d="M14.17,32.84l.08,0a.71.71,0,0,0,.15.15c.27.21.58.24.7.07a.46.46,0,0,0-.09-.51l.2-.09a.57.57,0,0,1,.06.62c-.16.24-.59.2-.95-.08Z"/><path class="cls-3" d="M15.36,34.59c.29.23.66.25.81,0a.64.64,0,0,0-.26-.82c-.29-.23-.66-.25-.81,0A.64.64,0,0,0,15.36,34.59Zm.07,0a.46.46,0,0,1-.19-.59c.11-.16.38-.15.59,0a.47.47,0,0,1,.19.59C15.91,34.76,15.65,34.75,15.43,34.58Z"/><path class="cls-3" d="M16.13,33.91c.36.29.79.33.95.09s0-.65-.35-.94-.79-.32-1-.09S15.77,33.63,16.13,33.91Zm.09,0c-.26-.2-.38-.51-.26-.68s.43-.14.69.07.38.51.26.68S16.48,34.12,16.22,33.91Z"/><path class="cls-3" d="M16.58,35.71c.23.27.57.35.75.18a.62.62,0,0,0-.11-.8c-.23-.27-.57-.35-.74-.18S16.35,35.44,16.58,35.71Zm.07,0c-.17-.2-.2-.46-.07-.58s.37-.07.53.13a.44.44,0,0,1,.08.58C17.06,36,16.82,35.91,16.65,35.72Z"/><path class="cls-3" d="M17.4,35.23c.29.33.67.44.86.26s.12-.6-.17-.93-.66-.44-.86-.25S17.12,34.91,17.4,35.23Zm.08,0c-.2-.24-.26-.54-.12-.67s.42,0,.62.18.26.54.13.67S17.69,35.48,17.48,35.25Z"/><path class="cls-3" d="M17.29,36.88c.13.3.4.47.6.37s.25-.42.12-.72-.4-.47-.6-.37S17.15,36.58,17.29,36.88Zm.06,0c-.1-.22-.06-.46.08-.53s.34,0,.44.27.05.46-.09.53S17.44,37.13,17.35,36.91Z"/><path class="cls-3" d="M18.13,36.71c.16.36.46.58.68.47s.26-.49.1-.85-.47-.58-.69-.48S18,36.34,18.13,36.71Zm.06,0c-.11-.26-.08-.54.07-.62s.38.08.5.35.08.54-.07.62S18.31,37,18.19,36.74Z"/><path class="cls-3" d="M17.31,37.83c-.06.28.05.54.24.58s.38-.16.43-.44-.05-.54-.24-.58S17.36,37.55,17.31,37.83Zm0,.05c0-.21.18-.35.32-.32s.21.22.17.42-.18.35-.31.32S17.29,38.08,17.33,37.88Z"/><path class="cls-3" d="M18,38.16c-.07.34,0,.65.24.7s.42-.2.48-.54,0-.66-.24-.7S18,37.82,18,38.16Zm0,.06c0-.25.2-.42.34-.39s.23.26.18.5-.2.43-.35.39S18,38.47,18,38.22Z"/><path class="cls-3" d="M8.86,30c0,.52.29.93.59.92s.52-.46.49-1-.3-.93-.6-.92S8.83,29.43,8.86,30Zm.06.08c0-.38.13-.7.35-.71s.41.28.43.66-.14.7-.35.71S8.94,30.41,8.92,30Z"/><path class="cls-3" d="M10.16,30.1c0,.44.22.79.47.79s.43-.37.42-.81-.22-.79-.46-.79S10.15,29.66,10.16,30.1Zm.05.07c0-.32.13-.58.31-.59s.33.25.33.57-.13.58-.3.58S10.22,30.48,10.21,30.17Z"/><path class="cls-3" d="M9.82,31.94c.23.32.56.46.74.32s.13-.52-.1-.84S9.9,31,9.72,31.1,9.59,31.62,9.82,31.94Zm.07,0c-.17-.23-.2-.5-.07-.61s.36,0,.53.23.2.51.07.61S10.06,32.19,9.89,32Z"/><path class="cls-3" d="M11.09,30.91a.44.44,0,0,1,.5.12l-.3.13a.22.22,0,0,0-.14,0,.3.3,0,0,0-.08.08l-.15.07A.46.46,0,0,1,11.09,30.91Z"/><text class="cls-4" transform="translate(0 56.47) scale(1.04 1)">OC<tspan class="cls-5" x="69.28" y="0">T</tspan><tspan class="cls-6" x="97.18" y="0">O</tspan></text><g id="Body"><path class="cls-2" d="M32.58,13.77c-2,.58-4.53,4.52-7.19,2.84S30.23,9.81,27,3.15C25.27-.5,19.84,0,19.84,0s-5.44-.31-7,3.4C9.86,10.23,17.56,15,15,16.82s-5.26-2.05-7.3-2.54S2,15.22,2.55,18.93s3.73,4.14,4.51,3.91,3.16-.31,3.49.14.84,1,.91.81a3.1,3.1,0,0,0-2.09-2.65c-1.65-.38-3.79.33-4.72-1.1s.71-3.48,1.93-3.18,3.49,3.9,5.23,4.44a6,6,0,0,0,2.82.3A6.38,6.38,0,0,0,12.91,25c-.54,2.32.65,3.63.42,5-.21,1.17-4.86.93-4.66,5.06s4.1,4.91,5.22,4.23a1.84,1.84,0,0,0-.34-3.3s.93,2.11-.24,2a2.55,2.55,0,0,1-2.38-3.14C11.36,33,16,33,16.67,31.24s-.31-3.63.3-4.67S20.33,24,20.33,24s2.81,1.39,3.46,2.41-.22,3,.48,4.66,5.38,1.58,5.89,3.31a2.55,2.55,0,0,1-2.26,3.23c-1.17.17-.31-2-.31-2A1.84,1.84,0,0,0,27.38,39c1.15.64,5-.31,5-4.44s-4.61-3.7-4.86-4.87c-.29-1.36.85-2.71.22-5a6.38,6.38,0,0,0-1.86-3.27A6.08,6.08,0,0,0,28.73,21c1.71-.61,3.83-4.29,5-4.65s2.94,1.64,2.06,3.1-3,.85-4.67,1.29a3.13,3.13,0,0,0-2,2.73c.09.16.58-.39.89-.85s2.69-.46,3.48-.27,4-.37,4.35-4.1S34.61,13.2,32.58,13.77Z"/><path class="cls-1" d="M26.68,19.78a.44.44,0,0,0-.53-.35.46.46,0,0,0-.43.47.49.49,0,0,0,1-.12Z"/><ellipse class="cls-1" cx="27.04" cy="20.15" rx="0.31" ry="0.26" transform="translate(-2.87 4.58) rotate(-9.2)"/><path class="cls-1" d="M27.62,19.2a.4.4,0,0,0-.38.42.39.39,0,0,0,.47.31.4.4,0,0,0,.38-.42A.39.39,0,0,0,27.62,19.2Z"/><path class="cls-1" d="M27.27,19a.32.32,0,0,0-.38-.25.3.3,0,1,0,.07.59A.34.34,0,0,0,27.27,19Z"/><path class="cls-1" d="M27,19.44a.11.11,0,0,0-.1.12c0,.05.06.09.13.08a.11.11,0,0,0,.1-.12C27.08,19.47,27,19.43,27,19.44Z"/><path class="cls-1" d="M26.51,20.38a.11.11,0,0,0-.13-.08.1.1,0,0,0-.11.11.11.11,0,0,0,.13.09A.12.12,0,0,0,26.51,20.38Z"/><path class="cls-1" d="M26.23,19.12c0-.05-.06-.09-.13-.08a.1.1,0,0,0-.1.11.11.11,0,0,0,.13.09A.11.11,0,0,0,26.23,19.12Z"/><path class="cls-1" d="M24.49,19.76a.12.12,0,0,0-.14-.08.11.11,0,0,0-.1.12.11.11,0,0,0,.13.08A.13.13,0,0,0,24.49,19.76Z"/><path class="cls-1" d="M27.47,18.82a.15.15,0,0,0,.18.11.14.14,0,1,0-.18-.11Z"/><path class="cls-1" d="M25.5,20.15c0-.08-.08-.13-.17-.12a.16.16,0,0,0-.15.16.16.16,0,0,0,.32,0Z"/><ellipse class="cls-1" cx="28.82" cy="19.15" rx="0.16" ry="0.14" transform="translate(-2.69 4.85) rotate(-9.2)"/><path class="cls-1" d="M25.29,19.73a.15.15,0,0,0,.14-.16c0-.08-.08-.13-.17-.12a.16.16,0,0,0-.15.16A.15.15,0,0,0,25.29,19.73Z"/><path class="cls-1" d="M28.14,19.94a.18.18,0,0,0,.22.14.17.17,0,1,0-.22-.14Z"/><path class="cls-1" d="M27.78,20.11a.11.11,0,0,0-.1.12.11.11,0,0,0,.13.08c.06,0,.11-.06.1-.11A.1.1,0,0,0,27.78,20.11Z"/><path class="cls-1" d="M22.82,23.41a.49.49,0,0,0,0-.66.44.44,0,0,0-.62-.13.5.5,0,0,0,0,.66A.43.43,0,0,0,22.82,23.41Z"/><path class="cls-1" d="M22.91,24.18a.31.31,0,0,0,0-.42.28.28,0,0,0-.39-.09.32.32,0,0,0,0,.42A.28.28,0,0,0,22.91,24.18Z"/><path class="cls-1" d="M23.79,23.94a.39.39,0,0,0-.55-.12.44.44,0,0,0,0,.59.38.38,0,0,0,.54.11A.43.43,0,0,0,23.79,23.94Z"/><path class="cls-1" d="M23.81,23.49a.35.35,0,0,0,0-.47.31.31,0,0,0-.44-.09.34.34,0,0,0,0,.47A.3.3,0,0,0,23.81,23.49Z"/><path class="cls-1" d="M23.24,23.47a.1.1,0,0,0-.15,0,.12.12,0,0,0,0,.16.1.1,0,0,0,.15,0A.12.12,0,0,0,23.24,23.47Z"/><path class="cls-1" d="M22.24,23.58c.05,0,0-.11,0-.17a.11.11,0,0,0-.15,0,.12.12,0,0,0,0,.16C22.14,23.6,22.2,23.61,22.24,23.58Z"/><path class="cls-1" d="M23.11,22.66a.12.12,0,0,0,0-.16c-.05-.05-.11-.07-.15,0a.12.12,0,0,0,0,.16A.1.1,0,0,0,23.11,22.66Z"/><path class="cls-1" d="M21.65,21.45a.12.12,0,0,0,0-.16.11.11,0,0,0-.15,0,.12.12,0,0,0,0,.16A.11.11,0,0,0,21.65,21.45Z"/><path class="cls-1" d="M24,23.6a.16.16,0,0,0,0,.22.15.15,0,0,0,.21.05.17.17,0,0,0,0-.22A.14.14,0,0,0,24,23.6Z"/><path class="cls-1" d="M21.89,22.56a.16.16,0,0,0,0-.22c-.06-.08-.15-.1-.2-.05a.16.16,0,0,0,0,.22A.14.14,0,0,0,21.89,22.56Z"/><path class="cls-1" d="M24.37,24.85a.16.16,0,0,0,0,.22c.06.07.15.09.2,0a.16.16,0,0,0,0-.22C24.51,24.82,24.42,24.8,24.37,24.85Z"/><path class="cls-1" d="M22.11,22.14a.15.15,0,0,0,.21.05.17.17,0,0,0,0-.23.15.15,0,0,0-.21,0A.18.18,0,0,0,22.11,22.14Z"/><path class="cls-1" d="M23.48,24.8a.2.2,0,0,0,0,.27.18.18,0,0,0,.25.05.2.2,0,0,0,0-.27A.17.17,0,0,0,23.48,24.8Z"/><path class="cls-1" d="M23.15,24.57a.1.1,0,0,0-.15,0,.12.12,0,0,0,0,.16.1.1,0,0,0,.15,0A.12.12,0,0,0,23.15,24.57Z"/><path class="cls-1" d="M17.37,24a.43.43,0,0,0-.6.19.48.48,0,0,0,.06.65.43.43,0,0,0,.59-.19A.48.48,0,0,0,17.37,24Z"/><path class="cls-1" d="M18,23.73a.28.28,0,0,0-.38.12.31.31,0,0,0,0,.42.28.28,0,0,0,.38-.12A.31.31,0,0,0,18,23.73Z"/><path class="cls-1" d="M17.58,22.91a.42.42,0,0,0,.05.58.38.38,0,0,0,.53-.16.45.45,0,0,0-.05-.59A.39.39,0,0,0,17.58,22.91Z"/><path class="cls-1" d="M17.17,23a.32.32,0,0,0-.43.13.35.35,0,0,0,0,.47.3.3,0,0,0,.43-.13A.36.36,0,0,0,17.17,23Z"/><path class="cls-1" d="M17.31,23.6a.12.12,0,0,0,0,.16.11.11,0,0,0,.15-.05c0-.06,0-.13,0-.16A.1.1,0,0,0,17.31,23.6Z"/><path class="cls-1" d="M17.68,24.57a.1.1,0,0,0-.14.05.12.12,0,0,0,0,.16.12.12,0,0,0,.15,0A.13.13,0,0,0,17.68,24.57Z"/><path class="cls-1" d="M16.61,24c-.05,0-.11,0-.15,0a.12.12,0,0,0,0,.16.12.12,0,0,0,.15,0A.12.12,0,0,0,16.61,24Z"/><path class="cls-1" d="M15.91,25.77s-.11,0-.14,0a.12.12,0,0,0,0,.16s.11,0,.15,0S16,25.8,15.91,25.77Z"/><path class="cls-1" d="M17.21,22.77a.14.14,0,0,0,.2-.06.16.16,0,0,0,0-.22.14.14,0,0,0-.2.06A.16.16,0,0,0,17.21,22.77Z"/><path class="cls-1" d="M16.86,25.21a.15.15,0,0,0-.2.07.16.16,0,0,0,0,.22.15.15,0,0,0,.2-.07A.17.17,0,0,0,16.86,25.21Z"/><path class="cls-1" d="M18.24,22.07a.14.14,0,0,0,.2-.06c0-.08,0-.18,0-.22a.14.14,0,0,0-.2.06A.16.16,0,0,0,18.24,22.07Z"/><path class="cls-1" d="M16.42,25.1a.17.17,0,0,0,0-.22.15.15,0,0,0-.2.07c-.05.08-.05.18,0,.22A.15.15,0,0,0,16.42,25.1Z"/><path class="cls-1" d="M18.45,23a.18.18,0,0,0,.24-.08.21.21,0,0,0,0-.27.17.17,0,0,0-.24.08A.21.21,0,0,0,18.45,23Z"/><path class="cls-1" d="M18.33,23.38c0,.06,0,.13,0,.16a.09.09,0,0,0,.14,0,.12.12,0,0,0,0-.16A.12.12,0,0,0,18.33,23.38Z"/><path class="cls-1" d="M22.18,23.08a13.75,13.75,0,0,1,2,2,4.82,4.82,0,0,1,.34,2.75,5.44,5.44,0,0,0-.82-2.32A7.46,7.46,0,0,0,22,24.11Z"/><path class="cls-1" d="M12.12,6.35a5.62,5.62,0,0,0,2.29,2.42c1,.77,1.36,3.2,1.36,3.2L15,14.17C14,12.26,12,9.61,12.12,6.35Z"/><path class="cls-3" d="M14,25a9.94,9.94,0,0,0-.88,3.43A6.51,6.51,0,0,1,12.91,25a6.73,6.73,0,0,1,1.62-3.25.94.94,0,0,0,.1-.1,26.4,26.4,0,0,0,2.64-3.38,9.39,9.39,0,0,1-.38,2.71C16.5,22,14.85,23.53,14,25Z"/><path class="cls-3" d="M13.33,30c.07,1.58-1.48,1.91-2.79,2.74A6.43,6.43,0,0,0,8.7,35.41c0-.13,0-.26,0-.4C8.47,30.88,13.12,31.12,13.33,30Z"/><path class="cls-3" d="M2.54,17.56c.4-2.69,3.35-3.71,5.13-3.28,2,.49,4.71,4.32,7.3,2.54a1.35,1.35,0,0,0,.46-.56h0s-.4,1.88-2.84,1.27S8.5,14.69,6.17,15A4.43,4.43,0,0,0,2.54,17.56Z"/><ellipse class="cls-3" cx="16.34" cy="13.36" rx="2.61" ry="2.75" transform="translate(-0.27 0.33) rotate(-1.16)"/><path class="cls-2" d="M18.87,14a2.65,2.65,0,0,1-2.48,2.09,2.69,2.69,0,0,1-2.66-2.61,2.64,2.64,0,0,1,2.48-2.08A2.68,2.68,0,0,1,18.87,14Z"/><path class="cls-7" d="M18.38,14.1A4.64,4.64,0,0,0,16,13.3c-1.64-.15-2.07.15-2.07.15s.29,1.93,1.89,2.14S18.38,14.1,18.38,14.1Z"/><path class="cls-8" d="M15.76,14.36a.39.39,0,0,0,.38-.41.4.4,0,0,0-.2-.35H16a.68.68,0,0,1,.66.68.65.65,0,1,1-1.3,0,.44.44,0,0,1,0-.16A.37.37,0,0,0,15.76,14.36Z"/><path class="cls-3" d="M11.47,37.14c-.16-.19-.38-.25-.5-.14a.42.42,0,0,0,0,.54c.16.19.38.25.5.14A.41.41,0,0,0,11.47,37.14Zm-.05,0c.11.13.13.31,0,.39s-.25,0-.36-.1a.3.3,0,0,1,0-.39C11.15,37,11.31,37,11.42,37.13Z"/><path class="cls-3" d="M10.91,37.44c-.19-.22-.45-.31-.58-.19s-.09.41.1.63.44.31.57.19S11.09,37.67,10.91,37.44Zm-.06,0c.14.17.17.37.07.46s-.28,0-.41-.14-.17-.37-.07-.45S10.72,37.27,10.85,37.43Z"/><path class="cls-3" d="M11,36.36c-.07-.23-.26-.38-.41-.32s-.22.29-.14.52.26.38.41.32S11,36.59,11,36.36Zm0,0c.06.17,0,.34-.1.38s-.25-.06-.3-.23,0-.34.1-.38S10.87,36.17,10.92,36.33Z"/><path class="cls-3" d="M10.33,36.42c-.09-.28-.3-.46-.46-.4s-.23.33-.14.61.3.47.47.41S10.43,36.7,10.33,36.42Zm0,0c.06.2,0,.4-.1.45s-.27-.09-.34-.3,0-.4.1-.44S10.22,36.18,10.29,36.39Z"/><path class="cls-3" d="M10.82,35.46c.08-.23.07-.44,0-.48s-.24.11-.32.34-.08.45,0,.49S10.73,35.69,10.82,35.46Zm0,0c-.06.17-.17.28-.24.25s-.07-.19,0-.35.16-.28.23-.25S10.87,35.25,10.81,35.42Z"/><path class="cls-3" d="M10.42,35.26c.1-.28.06-.56-.11-.63s-.38.11-.48.38-.05.56.11.63S10.32,35.53,10.42,35.26Zm0-.06c-.08.2-.23.33-.35.28S9.91,35.23,10,35s.23-.33.35-.28S10.48,35,10.41,35.2Z"/><path class="cls-3" d="M12.07,37.72a.29.29,0,0,0-.4,0,.32.32,0,0,0,.17.38c.16.1.34.08.4,0A.31.31,0,0,0,12.07,37.72Zm0,0a.24.24,0,0,1,.13.28.22.22,0,0,1-.29,0c-.11-.07-.17-.2-.12-.28S11.92,37.66,12,37.72Z"/><path class="cls-3" d="M11.73,38.09c-.19-.11-.4-.11-.46,0s0,.31.22.43.4.11.46,0S11.92,38.21,11.73,38.09Zm0,0c.14.08.21.22.16.31s-.2.09-.34,0-.21-.22-.16-.31S11.55,38,11.69,38.1Z"/><path class="cls-3" d="M12.66,37.87c-.16,0-.29.07-.3.19s.11.22.27.24.3-.07.31-.19S12.82,37.88,12.66,37.87Zm0,0a.21.21,0,0,1,.2.17c0,.09-.11.15-.23.14s-.2-.09-.19-.17S12.52,37.88,12.64,37.89Z"/><path class="cls-3" d="M12.53,38.31c-.2,0-.36.07-.37.2s.14.24.33.26.36-.07.37-.2S12.72,38.32,12.53,38.31Zm0,0c.14,0,.25.1.24.19s-.13.16-.27.14-.25-.09-.24-.19S12.35,38.32,12.5,38.33Z"/><path class="cls-3" d="M7.35,21.06c-.23,0-.44.08-.45.25s.15.34.38.37a.37.37,0,0,0,.45-.26C7.75,21.25,7.58,21.09,7.35,21.06Zm0,0c.17,0,.29.14.28.26s-.16.21-.33.18S7,21.4,7,21.27,7.14,21.07,7.31,21.09Z"/><path class="cls-3" d="M7.13,21.69c-.28,0-.53.08-.55.26s.19.36.47.4.53-.08.55-.27S7.41,21.72,7.13,21.69Zm0,0c.2,0,.36.15.34.28s-.19.22-.39.2-.36-.16-.35-.29S6.88,21.69,7.08,21.72Z"/><path class="cls-3" d="M6.25,21a.37.37,0,0,0-.45.26c0,.17.15.33.38.36s.44-.08.46-.25S6.48,21,6.25,21Zm0,0c.17,0,.29.14.28.26s-.16.21-.33.19a.28.28,0,0,1-.28-.27C5.9,21.09,6,21,6.21,21Z"/><path class="cls-3" d="M6,21.63c-.28,0-.53.08-.55.26s.19.37.47.4.53-.08.55-.26S6.31,21.66,6,21.63Zm0,0c.21,0,.36.15.34.29s-.19.21-.39.19-.36-.16-.34-.29S5.78,21.63,6,21.66Z"/><path class="cls-3" d="M5.38,20.72c-.2-.12-.42-.12-.48,0s0,.31.25.43.42.12.49,0S5.59,20.84,5.38,20.72Zm0,0c.15.09.23.23.18.32s-.2.09-.35,0-.23-.23-.18-.32S5.19,20.63,5.34,20.72Z"/><path class="cls-3" d="M5,21.16c-.24-.15-.51-.13-.6,0s0,.41.3.55.51.14.6,0S5.21,21.3,5,21.16Zm0,0c.18.1.27.28.21.4s-.25.13-.43,0-.28-.29-.22-.4S4.73,21.06,4.91,21.17Z"/><path class="cls-3" d="M4.7,20.18c-.12-.22-.28-.34-.37-.29s-.07.28,0,.49.28.34.37.28S4.82,20.39,4.7,20.18Zm0,0c.08.15.1.31,0,.35s-.18-.06-.27-.21-.1-.31,0-.35S4.58,20,4.67,20.16Z"/><path class="cls-3" d="M4.3,20.37c-.14-.25-.38-.39-.53-.29s-.16.37,0,.63.38.39.53.3S4.45,20.63,4.3,20.37Zm0,0c.11.19.1.39,0,.46s-.28,0-.38-.21-.1-.4,0-.46S4.15,20.17,4.25,20.35Z"/><path class="cls-3" d="M8.34,21.13c-.22,0-.4.11-.41.26s.17.27.39.28.4-.11.41-.26S8.56,21.13,8.34,21.13Zm0,0c.16,0,.29.1.29.21s-.14.19-.3.19S8,21.45,8,21.34,8.15,21.15,8.3,21.15Z"/><path class="cls-3" d="M8.18,21.69c-.26,0-.48.11-.49.27s.21.3.48.31.48-.12.49-.28S8.45,21.7,8.18,21.69Zm0,0c.19,0,.35.1.35.22s-.17.2-.36.2-.35-.11-.34-.22S8,21.71,8.14,21.72Z"/><path class="cls-3" d="M9.4,21.23c-.19,0-.34.1-.35.22s.15.24.34.25.34-.1.34-.23S9.58,21.24,9.4,21.23Zm0,0c.13,0,.24.08.24.17s-.11.17-.25.16-.24-.08-.24-.17S9.23,21.25,9.37,21.26Z"/><path class="cls-3" d="M9.27,21.71c-.23,0-.42.1-.42.23s.18.26.4.26.42-.09.42-.23S9.49,21.72,9.27,21.71Zm0,0c.16,0,.3.08.29.18s-.14.18-.3.17-.29-.09-.29-.19S9.07,21.73,9.23,21.74Z"/><path class="cls-3" d="M10.25,21.6c-.14-.05-.27,0-.3.08s.06.21.19.26.28,0,.31-.08S10.39,21.65,10.25,21.6Zm0,0a.18.18,0,0,1,.14.19c0,.07-.12.09-.22.06s-.17-.12-.14-.19S10.13,21.57,10.23,21.61Z"/><path class="cls-3" d="M10.21,22c-.17-.06-.33,0-.36.07s.08.24.25.3.33,0,.36-.08S10.38,22.09,10.21,22Zm0,0c.12,0,.2.14.18.21s-.14.1-.26.05-.2-.13-.18-.21S10.06,22,10.18,22Z"/><path class="cls-2" d="M20.19,17.05a2,2,0,0,1,1.07,1.09c.28.77.94,2.48,1.2,3.35s-1,5.6-.69,8.51,3,4.81,3.46,7.23c.71,3.62-2.3,7-5.12,5.42s-.82-3.88.15-3.83c0,0-1.07,1.86-.07,2.31s2.65-1,2.62-2.14c0-2.39-3.11-4-4.21-7.13-1-2.71-1-7.58-.62-9.59S19.26,17.26,20.19,17.05Z"/><path class="cls-3" d="M21.37,41.56c.05.12.21.15.37.07a.29.29,0,0,0,.19-.34.28.28,0,0,0-.37-.07C21.4,41.3,21.32,41.45,21.37,41.56Zm.49-.28c0,.09,0,.2-.14.25a.2.2,0,0,1-.27-.05.23.23,0,0,1,.14-.25A.2.2,0,0,1,21.86,41.28Z"/><path class="cls-3" d="M21.6,42c0,.12.25.15.44.06s.3-.26.24-.38-.25-.15-.43-.06S21.55,41.87,21.6,42Zm.6-.33c0,.09,0,.21-.18.28s-.27,0-.31,0,0-.21.17-.27S22.16,41.57,22.2,41.66Z"/><path class="cls-3" d="M22.06,41.26c.09.08.25.05.37-.08a.3.3,0,0,0,.06-.39c-.09-.09-.26,0-.37.08A.3.3,0,0,0,22.06,41.26Zm.36-.46a.23.23,0,0,1,0,.29c-.09.09-.21.12-.27.06a.23.23,0,0,1,0-.29C22.24,40.77,22.36,40.74,22.42,40.8Z"/><path class="cls-3" d="M22.43,41.56c.09.1.28,0,.43-.12S23,41.08,23,41s-.29,0-.43.12S22.34,41.47,22.43,41.56Zm.44-.54c.06.06,0,.21-.07.33s-.24.15-.31.08,0-.21.07-.33S22.8,41,22.87,41Z"/><path class="cls-3" d="M22.59,40.65c.08,0,.15-.14.16-.32S22.7,40,22.63,40s-.15.14-.16.32S22.52,40.65,22.59,40.65Zm0-.59s.09.11.09.24-.06.24-.12.23-.09-.11-.08-.24S22.54,40.06,22.6,40.06Z"/><path class="cls-3" d="M23,40.72c.13,0,.24-.17.26-.38s-.09-.41-.21-.41-.25.16-.26.38S22.87,40.71,23,40.72ZM23,40c.09,0,.16.14.15.3s-.09.28-.18.27-.16-.14-.15-.3S22.91,40,23,40Z"/><path class="cls-3" d="M20.77,41.61a.2.2,0,0,0,.25.15c.14,0,.24-.1.23-.19s-.13-.17-.26-.16S20.76,41.52,20.77,41.61Zm.43-.07a.16.16,0,0,1-.16.14.16.16,0,0,1-.19-.11.16.16,0,0,1,.16-.14A.16.16,0,0,1,21.2,41.54Z"/><path class="cls-3" d="M20.84,42c0,.1.15.17.3.16s.29-.12.28-.22-.15-.17-.31-.16S20.83,41.88,20.84,42Zm.52-.09c0,.08-.08.15-.2.16S21,42,20.94,42s.08-.15.2-.16S21.35,41.83,21.36,41.9Z"/><path class="cls-3" d="M20.3,41.4c0,.08,0,.18.15.22s.23,0,.25-.07,0-.18-.15-.23S20.33,41.31,20.3,41.4Zm.37.11c0,.06-.1.08-.18.05s-.13-.1-.11-.16.11-.08.19,0A.14.14,0,0,1,20.67,41.51Z"/><path class="cls-3" d="M20.22,41.73c0,.08.06.2.19.25s.27,0,.3-.07-.06-.2-.19-.25S20.25,41.64,20.22,41.73Zm.45.14c0,.06-.12.08-.21,0s-.16-.11-.14-.18.12-.08.21,0S20.69,41.8,20.67,41.87Z"/><path class="cls-3" d="M24.1,34.77h0c-3.2-3.86-3.4-6.45-3.57-8.12s.72-5.72.28-6.45-.75-.64-.75-.64c-1,0-1.39,4.59-1.25,7.56s2,5.57,4.06,7.76a12,12,0,0,1,2.46,3.62,5.49,5.49,0,0,0-.1-1.27A7.18,7.18,0,0,0,24.1,34.77Z"/><path class="cls-1" d="M27.81,6a5.58,5.58,0,0,1-2.19,2.5c-.93.81-1.23,3.25-1.23,3.25l.9,2.17C26.2,12,28.06,9.28,27.81,6Z"/><ellipse class="cls-3" cx="23.88" cy="13.21" rx="2.61" ry="2.75" transform="matrix(1, -0.02, 0.02, 1, -0.26, 0.49)"/><path class="cls-2" d="M21.38,14a2.62,2.62,0,0,0,2.56,2,2.68,2.68,0,0,0,2.55-2.71,2.64,2.64,0,0,0-2.56-2A2.68,2.68,0,0,0,21.38,14Z"/><path class="cls-7" d="M21.87,14a4.66,4.66,0,0,1,2.4-.9c1.63-.21,2.07.07,2.07.07s-.22,1.93-1.8,2.21S21.87,14,21.87,14Z"/><path class="cls-8" d="M24.5,14.19a.41.41,0,0,1-.4-.4.44.44,0,0,1,.18-.36H24.2a.69.69,0,0,0,0,1.37.68.68,0,0,0,.64-.7.41.41,0,0,0,0-.16A.39.39,0,0,1,24.5,14.19Z"/><path class="cls-1" d="M8.26,17.75s2.53,2.9,4,3.3a6.85,6.85,0,0,0,2.72.16l.46-.54a7.62,7.62,0,0,1-3.39-.14A19.57,19.57,0,0,1,8.26,17.75Z"/><path class="cls-3" d="M37.84,16.85c-.51-2.68-3.5-3.58-5.26-3.08-2,.58-4.53,4.52-7.19,2.84a1.2,1.2,0,0,1-.48-.55h0s.47,1.87,2.88,1.16,4-3,6.32-2.82A4.43,4.43,0,0,1,37.84,16.85Z"/><path class="cls-3" d="M27.56,29.66c0,1.58,1.55,1.85,2.89,2.62a6.67,6.67,0,0,1,2,2.65c0-.13,0-.26,0-.4C32.46,30.4,27.81,30.83,27.56,29.66Z"/><path class="cls-3" d="M32.8,20.92c0,.17.24.27.47.23s.4-.21.37-.38-.24-.27-.47-.23S32.78,20.75,32.8,20.92Zm.75-.19c0,.13-.1.25-.27.28a.27.27,0,0,1-.33-.17c0-.12.1-.25.26-.28S33.53,20.61,33.55,20.73Z"/><path class="cls-3" d="M33,21.57c0,.18.28.29.55.24s.49-.23.46-.41-.28-.29-.56-.25S32.94,21.39,33,21.57Zm.9-.21c0,.13-.12.26-.33.3s-.38-.05-.4-.18.13-.26.33-.3S33.85,21.22,33.87,21.36Z"/><path class="cls-3" d="M33.9,20.81c0,.17.23.28.47.24s.39-.21.36-.38-.23-.27-.46-.23S33.87,20.64,33.9,20.81Zm.75-.18a.3.3,0,0,1-.27.28c-.17,0-.32-.05-.34-.17s.1-.25.27-.28A.27.27,0,0,1,34.65,20.63Z"/><path class="cls-3" d="M34.06,21.47c0,.18.28.29.56.24s.48-.23.45-.42-.27-.29-.55-.24S34,21.29,34.06,21.47Zm.91-.22c0,.14-.13.27-.33.31s-.38,0-.4-.18.12-.27.32-.3S35,21.12,35,21.25Z"/><path class="cls-3" d="M34.89,20.56c.07.12.28.11.48,0s.31-.33.24-.44-.29-.11-.49,0S34.82,20.44,34.89,20.56Zm.63-.46c0,.09,0,.23-.17.33s-.3.1-.35,0,0-.23.17-.32S35.47,20,35.52,20.1Z"/><path class="cls-3" d="M35.29,21.11c.09.15.36.16.6,0s.37-.41.28-.57-.37-.16-.61,0S35.2,21,35.29,21.11Zm.76-.56c.07.11,0,.3-.19.41s-.37.11-.44,0,0-.3.2-.41S36,20.43,36.05,20.55Z"/><path class="cls-3" d="M35.75,20c.09.06.26-.08.37-.3s.12-.43,0-.48-.26.08-.37.3S35.66,20,35.75,20Zm.33-.72c.07,0,.06.19,0,.35s-.2.25-.27.22,0-.2,0-.36S36,19.27,36.08,19.31Z"/><path class="cls-3" d="M36.23,20.36c.15.09.39-.05.52-.32s.11-.54,0-.63-.39.05-.52.32S36.07,20.28,36.23,20.36Zm.39-.89c.11.07.12.27,0,.46s-.26.3-.37.23-.13-.26,0-.46S36.5,19.41,36.62,19.47Z"/><path class="cls-3" d="M31.81,20.94c0,.15.2.26.42.25s.38-.15.37-.3-.19-.26-.41-.25S31.8,20.79,31.81,20.94Zm.71-.09c0,.1-.11.2-.27.21S32,21,32,20.89s.12-.21.27-.22S32.52,20.74,32.52,20.85Z"/><path class="cls-3" d="M31.91,21.52c0,.16.23.28.5.26s.47-.17.46-.33-.24-.27-.5-.25S31.89,21.36,31.91,21.52Zm.86-.11c0,.12-.14.22-.33.23s-.36-.06-.36-.18.14-.22.33-.23S32.76,21.29,32.77,21.41Z"/><path class="cls-3" d="M30.81,21.05c0,.13.17.22.36.2s.33-.12.32-.25-.17-.22-.35-.21S30.8,20.92,30.81,21.05Zm.61-.09c0,.1-.1.18-.23.19s-.25-.06-.26-.15.1-.18.24-.19A.22.22,0,0,1,31.42,21Z"/><path class="cls-3" d="M30.89,21.54c0,.14.2.23.43.22s.4-.14.39-.28-.2-.23-.42-.22S30.88,21.4,30.89,21.54Zm.74-.1c0,.1-.12.19-.28.2s-.31-.05-.31-.15.12-.19.28-.2S31.62,21.35,31.63,21.44Z"/><path class="cls-3" d="M30.11,21.46c0,.09.17.13.31.07s.22-.17.18-.27-.17-.12-.31-.07S30.07,21.37,30.11,21.46Zm.44-.21c0,.07,0,.16-.14.2s-.2,0-.22-.05,0-.16.13-.2S30.52,21.18,30.55,21.25Z"/><path class="cls-3" d="M30.12,21.92c0,.1.2.13.36.06s.28-.2.24-.3-.2-.13-.37-.06S30.08,21.82,30.12,21.92Zm.53-.25c0,.08,0,.17-.17.22s-.24,0-.27,0,.05-.17.17-.22S30.62,21.6,30.65,21.67Z"/><path class="cls-1" d="M25.05,20.49a6.28,6.28,0,0,0,3.28-.6,17.79,17.79,0,0,0,3.09-2.43,12,12,0,0,1-2.55,2.77,7.42,7.42,0,0,1-3.21.9Z"/><path class="cls-3" d="M29.68,37.31c.12.11.34,0,.49-.15a.41.41,0,0,0,0-.55c-.12-.1-.34,0-.49.16A.4.4,0,0,0,29.68,37.31Zm.43-.66c.1.08.09.25,0,.39s-.27.19-.36.11a.29.29,0,0,1,0-.39C29.86,36.62,30,36.57,30.11,36.65Z"/><path class="cls-3" d="M30.21,37.68c.14.12.39,0,.57-.21s.21-.52.07-.63-.39,0-.57.21S30.07,37.57,30.21,37.68Zm.54-.8c.1.09.07.29-.05.46s-.32.24-.42.15-.07-.28.06-.45S30.65,36.8,30.75,36.88Z"/><path class="cls-3" d="M30.34,36.49c.16,0,.34-.11.41-.34s0-.47-.17-.52-.33.1-.4.34S30.19,36.44,30.34,36.49Zm.17-.79c.12,0,.17.2.12.37s-.18.28-.29.25a.31.31,0,0,1-.12-.38C30.27,35.77,30.4,35.66,30.51,35.7Z"/><path class="cls-3" d="M31,36.62c.17.05.37-.14.45-.42s0-.57-.15-.62-.37.14-.45.42S30.81,36.57,31,36.62Zm.22-.95c.12,0,.17.23.11.44s-.2.34-.33.3-.17-.23-.11-.44S31.06,35.63,31.19,35.67Z"/><path class="cls-3" d="M30.63,35.4c.1,0,.1-.26,0-.49s-.25-.37-.34-.33-.1.26,0,.49S30.54,35.44,30.63,35.4Zm-.33-.73c.07,0,.18.08.25.24s.06.32,0,.35-.18-.07-.24-.23S30.23,34.7,30.3,34.67Z"/><path class="cls-3" d="M31.17,35.21c.16-.07.2-.36.09-.63s-.34-.44-.5-.36-.19.35-.08.63S31,35.28,31.17,35.21Zm-.42-.87c.12-.06.28.06.36.26s.06.4-.06.45-.28-.06-.36-.26S30.64,34.39,30.75,34.34Z"/><path class="cls-3" d="M29,37.76c.07.11.24.12.4,0a.31.31,0,0,0,.15-.39c-.07-.11-.24-.12-.4,0A.31.31,0,0,0,29,37.76Zm.48-.37a.22.22,0,0,1-.11.28c-.12.07-.24.07-.29,0a.22.22,0,0,1,.11-.28A.2.2,0,0,1,29.46,37.39Z"/><path class="cls-3" d="M29.28,38.17c.07.12.28.12.47,0s.27-.32.2-.44-.28-.12-.46,0S29.21,38.05,29.28,38.17Zm.58-.44c.06.09,0,.23-.14.32s-.29.09-.34,0a.27.27,0,0,1,.15-.32C29.66,37.65,29.81,37.65,29.86,37.73Z"/><path class="cls-3" d="M28.28,37.8c0,.12.15.19.31.17s.28-.13.27-.25-.15-.19-.31-.17S28.27,37.68,28.28,37.8Zm.52-.11c0,.09-.08.17-.19.19s-.22-.05-.23-.13.08-.17.19-.18S28.79,37.61,28.8,37.69Z"/><path class="cls-3" d="M28.37,38.25c0,.13.19.21.38.19s.34-.15.33-.28-.19-.2-.38-.18S28.36,38.13,28.37,38.25Zm.64-.12c0,.1-.1.19-.24.2s-.26,0-.27-.13.09-.18.23-.2S29,38,29,38.13Z"/><path class="cls-1" d="M24.77,31.17A4.51,4.51,0,0,0,27,32.44a23,23,0,0,1,3.36,1.32,10.58,10.58,0,0,0-2.73-1.42A19.4,19.4,0,0,1,24.77,31.17Z"/><path class="cls-1" d="M26.81,38.2a1.84,1.84,0,0,0,1.31.85,5.57,5.57,0,0,0,2-.56,6.78,6.78,0,0,1-2,.42A4.46,4.46,0,0,1,26.81,38.2Z"/><path class="cls-1" d="M17.34,25.23a4.23,4.23,0,0,0-.85,1.92c0,.85.4,2.74-.11,3.85s-2.27,1.62-2.27,1.62,1.85-.87,2.06-2-.2-2.84,0-3.89A2.41,2.41,0,0,1,17.34,25.23Z"/><path class="cls-1" d="M26.71,7.39a.54.54,0,0,1-.61.46.57.57,0,0,1-.31-.72.53.53,0,0,1,.61-.46A.58.58,0,0,1,26.71,7.39Z"/><path class="cls-1" d="M27.25,6.51c-.06.21-.23.34-.39.29a.36.36,0,0,1-.2-.46.35.35,0,0,1,.39-.29A.37.37,0,0,1,27.25,6.51Z"/><path class="cls-1" d="M27,5.55a.48.48,0,0,1-.54.41.51.51,0,0,1-.28-.64.49.49,0,0,1,.55-.41A.51.51,0,0,1,27,5.55Z"/><path class="cls-1" d="M26,6.12a.39.39,0,0,1-.44.33.42.42,0,0,1-.22-.52.39.39,0,0,1,.44-.33A.42.42,0,0,1,26,6.12Z"/><path class="cls-1" d="M26.38,6.27a.13.13,0,0,1-.15.11.15.15,0,0,1-.07-.18c0-.08.08-.13.15-.11A.15.15,0,0,1,26.38,6.27Z"/><path class="cls-1" d="M27,7.33a.13.13,0,0,1-.15.11.15.15,0,0,1-.08-.18A.13.13,0,0,1,27,7.15.15.15,0,0,1,27,7.33Z"/><path class="cls-1" d="M25.57,7.07a.13.13,0,0,1-.15.11A.15.15,0,0,1,25.34,7a.13.13,0,0,1,.15-.11A.14.14,0,0,1,25.57,7.07Z"/><path class="cls-1" d="M25,7.67c0,.08-.08.13-.15.11a.15.15,0,0,1-.07-.18c0-.08.08-.13.15-.11A.15.15,0,0,1,25,7.67Z"/><path class="cls-1" d="M25.93,5.16c0,.11-.12.18-.2.15a.19.19,0,0,1-.11-.24c0-.11.12-.18.21-.15A.19.19,0,0,1,25.93,5.16Z"/><path class="cls-1" d="M26.37,8.45c0,.11-.12.18-.21.15s-.13-.13-.11-.24.12-.18.21-.15S26.39,8.34,26.37,8.45Z"/><path class="cls-1" d="M26.85,4c0,.11-.12.18-.21.15a.19.19,0,0,1-.1-.24.17.17,0,0,1,.2-.15A.19.19,0,0,1,26.85,4Z"/><path class="cls-1" d="M25.71,8.26a.18.18,0,0,1-.2.16.2.2,0,0,1-.11-.24A.19.19,0,0,1,25.61,8,.19.19,0,0,1,25.71,8.26Z"/><path class="cls-1" d="M27.48,4.86c0,.14-.15.22-.25.19a.23.23,0,0,1-.13-.29.22.22,0,0,1,.25-.19A.24.24,0,0,1,27.48,4.86Z"/><path class="cls-1" d="M27.47,5.61c0,.08-.08.13-.15.11a.15.15,0,0,1-.07-.18c0-.08.08-.13.15-.11A.15.15,0,0,1,27.47,5.61Z"/><path class="cls-1" d="M13,6.92a.58.58,0,0,1,0-.79.52.52,0,0,1,.74.15.58.58,0,0,1,0,.79A.51.51,0,0,1,13,6.92Z"/><path class="cls-1" d="M13.34,7.89a.37.37,0,0,1,0-.5.33.33,0,0,1,.47.1.37.37,0,0,1,0,.5A.33.33,0,0,1,13.34,7.89Z"/><path class="cls-1" d="M14.21,8.26a.52.52,0,0,1,0-.7.46.46,0,0,1,.65.14.52.52,0,0,1,0,.7A.45.45,0,0,1,14.21,8.26Z"/><path class="cls-1" d="M14.37,7.06a.42.42,0,0,1,0-.57.37.37,0,0,1,.53.11.43.43,0,0,1,0,.57A.37.37,0,0,1,14.37,7.06Z"/><path class="cls-1" d="M14,7.3a.15.15,0,0,1,0-.2.13.13,0,0,1,.18,0,.14.14,0,0,1,0,.19A.12.12,0,0,1,14,7.3Z"/><path class="cls-1" d="M12.83,7.24a.15.15,0,0,1,0-.2.13.13,0,0,1,.18,0,.14.14,0,0,1,0,.19A.12.12,0,0,1,12.83,7.24Z"/><path class="cls-1" d="M13.89,6.13a.14.14,0,0,1,0-.19.13.13,0,0,1,.18,0,.14.14,0,0,1,0,.19A.13.13,0,0,1,13.89,6.13Z"/><path class="cls-1" d="M13.78,5.26a.14.14,0,0,1,0-.19.13.13,0,0,1,.18,0,.14.14,0,0,1,0,.19A.13.13,0,0,1,13.78,5.26Z"/><path class="cls-1" d="M15.15,7.56a.2.2,0,0,1,0-.27.17.17,0,0,1,.24.06.19.19,0,0,1,0,.26A.16.16,0,0,1,15.15,7.56Z"/><path class="cls-1" d="M12.36,6a.19.19,0,0,1,0-.26.17.17,0,0,1,.25,0,.19.19,0,0,1,0,.26A.17.17,0,0,1,12.36,6Z"/><path class="cls-1" d="M15.54,9.05a.21.21,0,0,1,0-.26.17.17,0,0,1,.25.05.2.2,0,0,1,0,.27A.19.19,0,0,1,15.54,9.05Z"/><path class="cls-1" d="M12.88,5.55a.19.19,0,0,1,0-.26.17.17,0,0,1,.25,0,.2.2,0,0,1,0,.27A.18.18,0,0,1,12.88,5.55Z"/><path class="cls-1" d="M14.47,9.05a.23.23,0,0,1,0-.32.2.2,0,0,1,.29.07.22.22,0,0,1,0,.32C14.69,9.19,14.56,9.16,14.47,9.05Z"/><path class="cls-1" d="M13.9,8.62a.15.15,0,0,1,0-.2.13.13,0,0,1,.18,0,.14.14,0,0,1,0,.19A.12.12,0,0,1,13.9,8.62Z"/><path class="cls-1" d="M13.93,20.15a.49.49,0,0,0-1,.13.44.44,0,0,0,.53.35A.47.47,0,0,0,13.93,20.15Z"/><path class="cls-1" d="M14.59,20.48a.29.29,0,0,0-.34-.22.29.29,0,0,0-.27.3.28.28,0,0,0,.33.23A.3.3,0,0,0,14.59,20.48Z"/><path class="cls-1" d="M14.87,19.58a.41.41,0,0,0-.39.42.41.41,0,0,0,.47.31.41.41,0,0,0,.39-.42A.4.4,0,0,0,14.87,19.58Z"/><path class="cls-1" d="M14.52,19.32a.33.33,0,0,0-.38-.25.34.34,0,0,0-.31.34.31.31,0,0,0,.38.25A.32.32,0,0,0,14.52,19.32Z"/><path class="cls-1" d="M14.2,19.81a.12.12,0,0,0-.11.12.12.12,0,0,0,.13.09.12.12,0,0,0,.11-.12A.12.12,0,0,0,14.2,19.81Z"/><path class="cls-1" d="M13.75,20.76a.11.11,0,0,0-.13-.09.11.11,0,0,0-.1.12c0,.05.06.09.13.08A.1.1,0,0,0,13.75,20.76Z"/><path class="cls-1" d="M13.48,19.5a.11.11,0,0,0-.13-.09.12.12,0,0,0-.11.12.11.11,0,0,0,.13.08C13.44,19.6,13.49,19.55,13.48,19.5Z"/><path class="cls-1" d="M11.73,20.14c0-.06-.06-.09-.13-.09a.12.12,0,0,0-.11.12.12.12,0,0,0,.13.09C11.69,20.25,11.74,20.2,11.73,20.14Z"/><path class="cls-1" d="M14.72,19.19a.15.15,0,0,0,.18.12.15.15,0,0,0,.14-.16.16.16,0,0,0-.32,0Z"/><path class="cls-1" d="M12.75,20.52a.16.16,0,0,0-.32.05c0,.07.08.12.17.11A.16.16,0,0,0,12.75,20.52Z"/><path class="cls-1" d="M15.9,19.55a.15.15,0,0,0,.18.12.16.16,0,0,0,.15-.16.15.15,0,0,0-.18-.12A.16.16,0,0,0,15.9,19.55Z"/><ellipse class="cls-1" cx="12.52" cy="19.96" rx="0.16" ry="0.14" transform="translate(-3.03 2.26) rotate(-9.21)"/><path class="cls-1" d="M15.39,20.32a.18.18,0,0,0,.21.14.2.2,0,0,0,.18-.2.19.19,0,0,0-.22-.14A.19.19,0,0,0,15.39,20.32Z"/><path class="cls-1" d="M15,20.49a.11.11,0,0,0-.11.11.11.11,0,0,0,.13.09c.07,0,.12-.06.11-.12A.11.11,0,0,0,15,20.49Z"/><path class="cls-3" d="M25,2.19a4,4,0,0,1,1.86.68C25-.48,19.84,0,19.84,0s-5.44-.31-7,3.4c-.08.19-.15.37-.21.55a15.63,15.63,0,0,1,2.95-1.84c.74-.18.84,2.3,1.83,3.35s2.05.57,3.45-.45S22.5,2.8,23.89,3,24.33,2.13,25,2.19Z"/></g></g></g></g></svg>