<svg xmlns="http://www.w3.org/2000/svg" viewBox="0 0 141.07 70.66"><defs><style>.cls-1{fill:#613bbc;}.cls-2{fill:#7745d8;}.cls-3{fill:#9174e8;}.cls-4{font-size:47px;fill:#ef126c;font-family:Lato-Black, Lato;font-weight:800;}.cls-5{letter-spacing:-0.02em;}.cls-6{fill:#f1f2f2;}.cls-7{fill:#120533;}</style></defs><g id="Camada_2" data-name="Camada 2"><g id="Octo"><g id="brand"><g id="TB"><path class="cls-1" d="M24,19.32s7.54,2.51,8,6.67c.82,7-4.08,6.2-6.67,8.15s-1.72,4,.72,4.78c1.72.52,2.77,1.1,2.73,3a2.31,2.31,0,0,1-3.28,2.32,2,2,0,0,1-1-1.38c.52.75,3.16,1.8,2.7-.86-.24-1.42-2.28-1.32-4-2.57-1.53-1.09-2.41-3.17-1-6,2-4,6.62-2.65,6.64-5.62,0-2.66-6.59-4.1-6.59-4.1Z"/><path class="cls-2" d="M28.23,29.74a2,2,0,0,0,.54-1.86c0,3-4.65,1.63-6.64,5.62a5.83,5.83,0,0,0-.69,2.87,8.82,8.82,0,0,1,1.91-3.7C24.73,31.14,27.38,30.61,28.23,29.74Z"/><path class="cls-2" d="M32,26c-.33-2.86-4-4.95-6.27-6l.66.9a17.82,17.82,0,0,1,4.63,5,6.92,6.92,0,0,1,.51,4.32A7.42,7.42,0,0,0,32,26Z"/><path class="cls-3" d="M29.11,24.42a.85.85,0,0,0,0,1.11c.27.42.71.6,1,.4a.85.85,0,0,0,0-1.11C29.83,24.4,29.39,24.22,29.11,24.42Zm1,1.3c-.2.14-.52,0-.71-.29s-.2-.66,0-.8.52,0,.72.29S30.28,25.58,30.08,25.72Z"/><path class="cls-3" d="M27.73,23c-.28.2-.28.69,0,1.11s.71.6,1,.4.28-.69,0-1.11S28,22.76,27.73,23Zm1,1.3c-.2.15-.52,0-.71-.28a.61.61,0,0,1,0-.81c.2-.14.52,0,.71.29S28.89,24.12,28.69,24.26Z"/><path class="cls-3" d="M28.07,25.18a.85.85,0,0,0,0,1.11c.27.42.71.59,1,.4a.85.85,0,0,0,0-1.11C28.79,25.16,28.35,25,28.07,25.18Zm1,1.3c-.2.14-.52,0-.72-.29s-.19-.66,0-.8.52,0,.71.29S29.24,26.34,29,26.48Z"/><path class="cls-3" d="M30.29,26.21a.81.81,0,0,0-.2,1c.18.44.56.68.85.55s.38-.59.2-1S30.58,26.08,30.29,26.21Zm.68,1.4c-.21.09-.49-.09-.62-.4s-.07-.65.14-.75.49.08.62.4S31.18,27.51,31,27.61Z"/><path class="cls-3" d="M29.24,26.82a.81.81,0,0,0-.2,1c.18.44.56.68.85.55s.38-.59.2-1S29.53,26.69,29.24,26.82Zm.68,1.4c-.21.09-.49-.09-.62-.4s-.07-.65.14-.75.49.08.62.4S30.13,28.12,29.92,28.22Z"/><path class="cls-3" d="M27,33.11a.87.87,0,0,0,.29-.49l-.17-.06a.52.52,0,0,1-.2.54c-.21.18-.47.2-.59,0s0-.42.16-.6a1.06,1.06,0,0,1,.2-.12l-.29-.09a.66.66,0,0,0-.22.83C26.37,33.38,26.74,33.35,27,33.11Z"/><path class="cls-3" d="M26.36,32.32l-.07,0a.75.75,0,0,1-.15.16c-.25.22-.56.26-.69.1a.47.47,0,0,1,.07-.52L25.31,32a.59.59,0,0,0,0,.62c.18.23.61.17.95-.13A.62.62,0,0,0,26.36,32.32Z"/><path class="cls-3" d="M25.48,33.29c-.16-.21-.53-.19-.82.06s-.39.62-.22.83.52.18.81-.06A.66.66,0,0,0,25.48,33.29Zm-.89.87a.47.47,0,0,1,.16-.6c.21-.18.47-.2.59-.05a.46.46,0,0,1-.16.6C25,34.29,24.71,34.31,24.59,34.16Z"/><path class="cls-3" d="M24.77,32.52c-.18-.23-.6-.17-.95.13s-.49.72-.32,1,.6.17.95-.13S24.94,32.75,24.77,32.52Zm-1.09,1c-.13-.17,0-.48.23-.69s.56-.26.68-.1,0,.48-.22.69S23.8,33.73,23.68,33.57Z"/><path class="cls-3" d="M24.15,34.48c-.19-.16-.52-.07-.74.21s-.26.64-.07.8.51.07.74-.2A.63.63,0,0,0,24.15,34.48Zm-.68,1a.45.45,0,0,1,.05-.58c.16-.21.4-.27.54-.15a.45.45,0,0,1,0,.58C23.84,35.5,23.61,35.56,23.47,35.45Z"/><path class="cls-3" d="M23.36,33.91c-.19-.18-.57,0-.85.29s-.32.76-.13.93.58,0,.85-.29S23.56,34.09,23.36,33.91Zm-.82,1.16c-.14-.13-.1-.43.09-.67s.48-.34.62-.22.1.43-.1.68S22.68,35.2,22.54,35.07Z"/><path class="cls-3" d="M23.27,35.77c-.21-.09-.47.08-.59.39s-.05.63.15.72.47-.09.59-.4S23.47,35.85,23.27,35.77Zm-.34,1a.41.41,0,0,1-.1-.52c.08-.22.27-.35.42-.29a.4.4,0,0,1,.11.52C23.27,36.74,23.08,36.86,22.93,36.8Z"/><path class="cls-3" d="M22.44,35.5c-.22-.1-.52.12-.66.5s-.09.75.13.85.51-.13.66-.51S22.66,35.59,22.44,35.5ZM22,36.75c-.16-.07-.2-.35-.1-.62s.32-.43.48-.36.2.34.1.61S22.19,36.81,22,36.75Z"/><path class="cls-3" d="M23,37c-.18.05-.28.31-.21.59s.26.47.45.42.28-.31.21-.59S23.17,37,23,37Zm.27.9c-.13,0-.28-.1-.32-.3s0-.4.15-.43.28.1.33.3S23.39,37.88,23.25,37.91Z"/><path class="cls-3" d="M22.27,37.27c-.19,0-.29.37-.21.71s.3.57.5.52.3-.37.22-.71S22.47,37.22,22.27,37.27Zm.33,1.09c-.15,0-.31-.13-.37-.37s0-.48.16-.52.3.14.36.38S22.74,38.33,22.6,38.36Z"/><path class="cls-3" d="M31,28.26c-.3,0-.55.42-.56.94s.23.95.53,1,.55-.42.56-.94S31.33,28.27,31,28.26ZM31.1,30c-.22,0-.39-.32-.38-.7s.18-.68.4-.67.39.31.38.69S31.31,30,31.1,30Z"/><path class="cls-3" d="M29.8,28.63c-.24,0-.44.36-.43.8s.21.8.46.79.44-.36.43-.8S30.05,28.63,29.8,28.63Zm.1,1.44c-.18,0-.32-.25-.33-.57s.13-.58.31-.58.33.25.33.57S30.08,30.07,29.9,30.07Z"/></g><path class="cls-1" d="M16.47,19.75s-7.42,2.82-7.74,7c-.53,7,4.33,6,7,7.88s1.88,4-.53,4.8c-1.7.59-2.72,1.21-2.6,3.15A2.3,2.3,0,0,0,16,44.75a2,2,0,0,0,1-1.42c-.49.77-3.08,1.93-2.74-.75.19-1.42,2.23-1.41,3.93-2.72,1.48-1.16,2.28-3.27.78-6-2.15-3.91-6.72-2.38-6.86-5.35-.13-2.66,6.41-4.36,6.41-4.36Z"/><path class="cls-2" d="M12.64,30.34A2,2,0,0,1,12,28.5c.14,3,4.71,1.44,6.86,5.35a5.77,5.77,0,0,1,.8,2.83,8.84,8.84,0,0,0-2.05-3.61C16.19,31.59,13.52,31.17,12.64,30.34Z"/><path class="cls-2" d="M8.73,26.74c.22-2.87,3.81-5.1,6-6.21l-.62.92a17.78,17.78,0,0,0-4.42,5.19A7,7,0,0,0,9.37,31,7.51,7.51,0,0,1,8.73,26.74Z"/><path class="cls-3" d="M10.57,25.49c-.25.43-.22.93.06,1.11s.72,0,1-.43.23-.93-.06-1.11S10.83,25.07,10.57,25.49Zm0,.1c.18-.3.5-.45.7-.31s.22.49,0,.8-.49.45-.7.32A.63.63,0,0,1,10.59,25.59Z"/><path class="cls-3" d="M11.9,24A.84.84,0,0,0,12,25.09c.28.18.71,0,1-.44a.85.85,0,0,0-.06-1.11C12.59,23.36,12.15,23.55,11.9,24Zm0,.1c.18-.31.49-.45.7-.32a.63.63,0,0,1,0,.81c-.18.31-.5.45-.7.31S11.73,24.39,11.92,24.08Z"/><path class="cls-3" d="M11.65,26.21a.84.84,0,0,0,0,1.11c.28.19.72,0,1-.44a.84.84,0,0,0-.06-1.11C12.33,25.59,11.9,25.78,11.65,26.21Zm0,.1c.18-.31.5-.45.7-.32a.61.61,0,0,1,0,.81c-.18.31-.49.45-.7.31S11.48,26.62,11.66,26.31Z"/><path class="cls-3" d="M9.61,27.49c-.16.44,0,.9.24,1s.67-.14.83-.59.06-.9-.24-1S9.78,27,9.61,27.49Zm0,.09c.11-.32.38-.52.6-.43s.29.42.17.74-.39.52-.6.43S9.53,27.9,9.65,27.58Z"/><path class="cls-3" d="M10.69,28.05c-.16.45-.06.91.24,1s.66-.15.83-.59.05-.91-.24-1S10.85,27.61,10.69,28.05Zm0,.09c.12-.32.39-.51.6-.42s.29.42.17.74-.38.51-.6.43S10.6,28.47,10.72,28.14Z"/><path class="cls-3" d="M14,33.65a.81.81,0,0,1-.31-.47l.17-.06a.51.51,0,0,0,.22.53.42.42,0,0,0,.59,0,.49.49,0,0,0-.19-.6.54.54,0,0,0-.2-.1l.28-.1a.64.64,0,0,1,.26.81C14.64,33.9,14.28,33.89,14,33.65Z"/><path class="cls-3" d="M14.61,32.84l.07,0a1.14,1.14,0,0,0,.16.15c.26.21.57.24.69.07a.45.45,0,0,0-.09-.51l.2-.09a.56.56,0,0,1,.07.62c-.17.24-.59.2-1-.08Z"/><path class="cls-3" d="M15.79,34.59c.3.23.67.25.82,0a.64.64,0,0,0-.26-.82c-.3-.23-.66-.25-.82,0A.65.65,0,0,0,15.79,34.59Zm.08,0a.46.46,0,0,1-.19-.59c.11-.16.38-.15.59,0a.47.47,0,0,1,.19.59C16.35,34.76,16.08,34.75,15.87,34.58Z"/><path class="cls-3" d="M16.57,33.91c.36.29.79.33.95.09s0-.65-.35-.94-.79-.32-1-.09S16.21,33.63,16.57,33.91Zm.08,0c-.26-.2-.37-.51-.25-.68s.43-.14.69.07.37.51.25.68S16.91,34.12,16.65,33.91Z"/><path class="cls-3" d="M17,35.71c.23.27.57.35.74.18a.61.61,0,0,0-.1-.8c-.23-.27-.57-.35-.75-.18A.62.62,0,0,0,17,35.71Zm.07,0c-.17-.2-.21-.46-.08-.58s.37-.07.54.13a.46.46,0,0,1,.08.58C17.5,36,17.26,35.91,17.09,35.72Z"/><path class="cls-3" d="M17.84,35.23c.28.33.67.44.86.26s.12-.6-.17-.93-.67-.44-.86-.25S17.55,34.91,17.84,35.23Zm.08,0c-.21-.24-.26-.54-.12-.67s.41,0,.62.18.26.54.12.67S18.12,35.48,17.92,35.25Z"/><path class="cls-3" d="M17.72,36.88c.14.3.41.47.61.37a.57.57,0,0,0,.12-.72c-.14-.3-.41-.47-.61-.37S17.59,36.58,17.72,36.88Zm.06,0c-.09-.22-.05-.46.09-.53s.34,0,.43.27.06.46-.08.53S17.88,37.13,17.78,36.91Z"/><path class="cls-3" d="M18.56,36.71c.17.36.47.58.68.47s.26-.49.1-.85-.46-.58-.68-.48S18.4,36.34,18.56,36.71Zm.07,0c-.12-.26-.09-.54.07-.62s.38.08.49.35.09.54-.07.62S18.75,37,18.63,36.74Z"/><path class="cls-3" d="M17.74,37.83c0,.28.06.54.24.58s.38-.16.44-.44-.05-.54-.24-.58S17.8,37.55,17.74,37.83Zm0,.05c0-.21.18-.35.32-.32s.21.22.17.42-.18.35-.32.32S17.73,38.08,17.77,37.88Z"/><path class="cls-3" d="M18.41,38.16c-.06.34.05.65.25.7s.41-.2.48-.54,0-.66-.24-.7S18.48,37.82,18.41,38.16Zm0,.06c0-.25.21-.42.35-.39s.23.26.18.5-.21.43-.35.39S18.39,38.47,18.44,38.22Z"/><path class="cls-3" d="M9.29,30c0,.52.3.93.6.92s.52-.46.49-1-.3-.93-.6-.92S9.26,29.43,9.29,30Zm.06.08c0-.38.14-.7.36-.71s.41.28.43.66-.14.7-.35.71S9.38,30.41,9.35,30Z"/><path class="cls-3" d="M10.6,30.1c0,.44.22.79.46.79s.44-.37.43-.81-.22-.79-.46-.79S10.59,29.66,10.6,30.1Zm.05.07c0-.32.13-.58.31-.59s.32.25.33.57-.13.58-.31.58S10.66,30.48,10.65,30.17Z"/><path class="cls-3" d="M10.26,31.94c.23.32.56.46.74.32s.13-.52-.1-.84-.57-.46-.74-.32S10,31.62,10.26,31.94Zm.06,0c-.16-.23-.2-.5-.07-.61s.37,0,.54.23.2.51.07.61S10.49,32.19,10.32,32Z"/><path class="cls-3" d="M11.53,30.91A.43.43,0,0,1,12,31l-.29.13a.26.26,0,0,0-.15,0,.27.27,0,0,0-.07.08l-.15.07A.44.44,0,0,1,11.53,30.91Z"/><text class="cls-4" transform="translate(0 56.58) scale(1.04 1)">OC<tspan class="cls-5" x="69.09" y="0">T</tspan><tspan x="96.91" y="0">O</tspan></text><g id="Body"><path class="cls-2" d="M33,13.77c-2,.58-4.53,4.52-7.19,2.84s4.84-6.8,1.63-13.46C25.71-.5,20.28,0,20.28,0s-5.45-.31-7,3.4C10.29,10.23,18,15,15.41,16.82s-5.26-2.05-7.31-2.54S2.44,15.22,3,18.93s3.73,4.14,4.51,3.91,3.17-.31,3.49.14.84,1,.92.81a3.12,3.12,0,0,0-2.09-2.65c-1.65-.38-3.8.33-4.73-1.1S5.8,16.56,7,16.86s3.49,3.9,5.22,4.44a6,6,0,0,0,2.83.3A6.38,6.38,0,0,0,13.35,25c-.55,2.32.65,3.63.41,5-.2,1.17-4.86.93-4.66,5.06s4.1,4.91,5.22,4.23a1.84,1.84,0,0,0-.34-3.3s.94,2.11-.23,2a2.56,2.56,0,0,1-2.39-3.14C11.8,33,16.48,33,17.11,31.24s-.31-3.63.3-4.67S20.76,24,20.76,24s2.82,1.39,3.46,2.41-.21,3,.49,4.66,5.38,1.58,5.88,3.31a2.54,2.54,0,0,1-2.25,3.23c-1.17.17-.32-2-.32-2A1.84,1.84,0,0,0,27.81,39c1.15.64,5-.31,5.05-4.44s-4.61-3.7-4.86-4.87c-.29-1.36.85-2.71.22-5a6.38,6.38,0,0,0-1.86-3.27A6.08,6.08,0,0,0,29.17,21c1.71-.61,3.83-4.29,5-4.65s2.93,1.64,2.06,3.1-3,.85-4.68,1.29a3.14,3.14,0,0,0-2,2.73c.08.16.58-.39.88-.85s2.7-.46,3.49-.27,4-.37,4.34-4.1S35.05,13.2,33,13.77Z"/><path class="cls-1" d="M27.12,19.78a.49.49,0,0,0-1,.12.44.44,0,0,0,.53.35A.46.46,0,0,0,27.12,19.78Z"/><ellipse class="cls-1" cx="27.48" cy="20.15" rx="0.31" ry="0.26" transform="translate(-2.87 4.65) rotate(-9.2)"/><path class="cls-1" d="M28.06,19.2a.41.41,0,0,0-.39.42.4.4,0,0,0,.48.31.41.41,0,0,0,.38-.42A.41.41,0,0,0,28.06,19.2Z"/><path class="cls-1" d="M27.71,19a.32.32,0,0,0-.38-.25.3.3,0,1,0,.07.59A.34.34,0,0,0,27.71,19Z"/><path class="cls-1" d="M27.39,19.44a.12.12,0,0,0-.11.12.11.11,0,0,0,.13.08c.07,0,.12-.06.11-.12A.11.11,0,0,0,27.39,19.44Z"/><path class="cls-1" d="M26.94,20.38c0-.05-.06-.09-.13-.08a.1.1,0,0,0-.1.11.1.1,0,0,0,.13.09A.11.11,0,0,0,26.94,20.38Z"/><path class="cls-1" d="M26.67,19.12a.11.11,0,0,0-.13-.08.1.1,0,0,0-.1.11.1.1,0,0,0,.13.09A.11.11,0,0,0,26.67,19.12Z"/><path class="cls-1" d="M24.92,19.76c0-.05-.06-.09-.13-.08a.11.11,0,0,0-.1.12c0,.05.06.09.13.08A.11.11,0,0,0,24.92,19.76Z"/><path class="cls-1" d="M27.91,18.82a.16.16,0,0,0,.32-.05c0-.07-.08-.12-.17-.11A.16.16,0,0,0,27.91,18.82Z"/><path class="cls-1" d="M25.94,20.15a.15.15,0,0,0-.18-.12.15.15,0,0,0-.14.16.16.16,0,0,0,.32,0Z"/><ellipse class="cls-1" cx="29.26" cy="19.15" rx="0.16" ry="0.14" transform="translate(-2.69 4.92) rotate(-9.2)"/><path class="cls-1" d="M25.73,19.73a.14.14,0,1,0,0-.28.15.15,0,0,0-.14.16A.15.15,0,0,0,25.73,19.73Z"/><path class="cls-1" d="M28.58,19.94a.18.18,0,0,0,.22.14.19.19,0,0,0,.17-.19.18.18,0,0,0-.21-.14A.19.19,0,0,0,28.58,19.94Z"/><path class="cls-1" d="M28.22,20.11a.11.11,0,0,0-.1.12c0,.05.06.09.13.08s.11-.06.1-.11A.11.11,0,0,0,28.22,20.11Z"/><path class="cls-1" d="M23.26,23.41a.49.49,0,0,0,0-.66.43.43,0,0,0-.61-.13.49.49,0,0,0,0,.66A.42.42,0,0,0,23.26,23.41Z"/><path class="cls-1" d="M23.35,24.18a.31.31,0,0,0,0-.42.28.28,0,0,0-.39-.09.31.31,0,0,0,0,.42A.28.28,0,0,0,23.35,24.18Z"/><path class="cls-1" d="M24.22,23.94a.38.38,0,0,0-.54-.12.43.43,0,0,0,0,.59.38.38,0,0,0,.54.11A.42.42,0,0,0,24.22,23.94Z"/><path class="cls-1" d="M24.24,23.49a.35.35,0,0,0,0-.47.31.31,0,0,0-.44-.09.35.35,0,0,0,0,.47A.3.3,0,0,0,24.24,23.49Z"/><path class="cls-1" d="M23.68,23.47c-.05,0-.11-.07-.15,0a.12.12,0,0,0,0,.16.1.1,0,0,0,.15,0A.12.12,0,0,0,23.68,23.47Z"/><path class="cls-1" d="M22.68,23.58a.13.13,0,0,0,0-.17.11.11,0,0,0-.15,0,.12.12,0,0,0,0,.16A.11.11,0,0,0,22.68,23.58Z"/><path class="cls-1" d="M23.55,22.66a.11.11,0,0,0,0-.16.1.1,0,0,0-.15,0,.12.12,0,0,0,0,.16C23.44,22.68,23.5,22.7,23.55,22.66Z"/><path class="cls-1" d="M22.09,21.45a.12.12,0,0,0,0-.16.11.11,0,0,0-.15,0,.12.12,0,0,0,0,.16A.11.11,0,0,0,22.09,21.45Z"/><path class="cls-1" d="M24.45,23.6a.17.17,0,0,0,0,.22.14.14,0,0,0,.2.05.16.16,0,0,0,0-.22A.15.15,0,0,0,24.45,23.6Z"/><path class="cls-1" d="M22.33,22.56a.16.16,0,0,0,0-.22.15.15,0,0,0-.21-.05.18.18,0,0,0,0,.22A.15.15,0,0,0,22.33,22.56Z"/><path class="cls-1" d="M24.8,24.85a.17.17,0,0,0,0,.22.14.14,0,0,0,.2,0,.16.16,0,0,0,0-.22A.15.15,0,0,0,24.8,24.85Z"/><path class="cls-1" d="M22.55,22.14a.15.15,0,0,0,.21.05.19.19,0,0,0,0-.23.15.15,0,0,0-.21,0A.16.16,0,0,0,22.55,22.14Z"/><path class="cls-1" d="M23.91,24.8a.21.21,0,0,0,0,.27.18.18,0,0,0,.25.05.21.21,0,0,0,0-.27A.17.17,0,0,0,23.91,24.8Z"/><path class="cls-1" d="M23.58,24.57a.1.1,0,0,0-.15,0s0,.1,0,.16a.1.1,0,0,0,.15,0A.11.11,0,0,0,23.58,24.57Z"/><path class="cls-1" d="M17.81,24a.43.43,0,0,0-.6.19.48.48,0,0,0,.05.65.44.44,0,0,0,.6-.19A.48.48,0,0,0,17.81,24Z"/><path class="cls-1" d="M18.48,23.73a.27.27,0,0,0-.38.12.31.31,0,0,0,0,.42.27.27,0,0,0,.38-.12A.31.31,0,0,0,18.48,23.73Z"/><path class="cls-1" d="M18,22.91a.43.43,0,0,0,0,.58.38.38,0,0,0,.53-.16.44.44,0,0,0,0-.59A.4.4,0,0,0,18,22.91Z"/><path class="cls-1" d="M17.61,23a.32.32,0,0,0-.43.13.35.35,0,0,0,0,.47.29.29,0,0,0,.42-.13A.36.36,0,0,0,17.61,23Z"/><path class="cls-1" d="M17.74,23.6a.12.12,0,0,0,0,.16.1.1,0,0,0,.14-.05.12.12,0,0,0,0-.16A.11.11,0,0,0,17.74,23.6Z"/><path class="cls-1" d="M18.12,24.57a.1.1,0,0,0-.14.05c0,.06,0,.13,0,.16a.12.12,0,0,0,.15,0A.13.13,0,0,0,18.12,24.57Z"/><path class="cls-1" d="M17,24a.09.09,0,0,0-.14,0,.12.12,0,0,0,0,.16.12.12,0,0,0,.15,0C17.09,24.06,17.09,24,17,24Z"/><path class="cls-1" d="M16.35,25.77s-.11,0-.15,0,0,.13,0,.16.11,0,.14,0A.12.12,0,0,0,16.35,25.77Z"/><path class="cls-1" d="M17.64,22.77a.14.14,0,0,0,.2-.06.15.15,0,0,0,0-.22.14.14,0,0,0-.2.06A.15.15,0,0,0,17.64,22.77Z"/><path class="cls-1" d="M17.3,25.21a.16.16,0,0,0-.21.07.17.17,0,0,0,0,.22.15.15,0,0,0,.2-.07A.17.17,0,0,0,17.3,25.21Z"/><path class="cls-1" d="M18.68,22.07a.14.14,0,0,0,.2-.06.16.16,0,0,0,0-.22.14.14,0,0,0-.2.06A.16.16,0,0,0,18.68,22.07Z"/><path class="cls-1" d="M16.85,25.1a.17.17,0,0,0,0-.22.16.16,0,0,0-.21.07.16.16,0,0,0,0,.22A.15.15,0,0,0,16.85,25.1Z"/><path class="cls-1" d="M18.89,23a.18.18,0,0,0,.24-.08.21.21,0,0,0,0-.27.18.18,0,0,0-.25.08A.2.2,0,0,0,18.89,23Z"/><path class="cls-1" d="M18.77,23.38a.12.12,0,0,0,0,.16s.11,0,.15,0a.12.12,0,0,0,0-.16A.12.12,0,0,0,18.77,23.38Z"/><path class="cls-1" d="M22.62,23.08a13.35,13.35,0,0,1,2,2,4.85,4.85,0,0,1,.35,2.75,5.44,5.44,0,0,0-.82-2.32,7.7,7.7,0,0,0-1.68-1.36Z"/><path class="cls-1" d="M12.55,6.35a5.69,5.69,0,0,0,2.3,2.42c1,.77,1.36,3.2,1.36,3.2l-.81,2.2C14.41,12.26,12.44,9.61,12.55,6.35Z"/><path class="cls-3" d="M14.47,25a9.92,9.92,0,0,0-.87,3.43A6.32,6.32,0,0,1,13.35,25,6.73,6.73,0,0,1,15,21.7l.1-.1a26.4,26.4,0,0,0,2.64-3.38,9.39,9.39,0,0,1-.38,2.71C16.94,22,15.29,23.53,14.47,25Z"/><path class="cls-3" d="M13.76,30c.08,1.58-1.47,1.91-2.78,2.74a6.43,6.43,0,0,0-1.84,2.72c0-.13,0-.26,0-.4C8.9,30.88,13.56,31.12,13.76,30Z"/><path class="cls-3" d="M3,17.56c.4-2.69,3.35-3.71,5.12-3.28,2.05.49,4.72,4.32,7.31,2.54a1.35,1.35,0,0,0,.46-.56h0s-.4,1.88-2.84,1.27S8.94,14.69,6.61,15A4.41,4.41,0,0,0,3,17.56Z"/><ellipse class="cls-3" cx="16.77" cy="13.36" rx="2.61" ry="2.75" transform="translate(-0.27 0.34) rotate(-1.16)"/><path class="cls-2" d="M19.31,14a2.66,2.66,0,0,1-2.48,2.09,2.69,2.69,0,0,1-2.66-2.61,2.63,2.63,0,0,1,2.48-2.08A2.68,2.68,0,0,1,19.31,14Z"/><path class="cls-6" d="M18.82,14.1a4.65,4.65,0,0,0-2.44-.8c-1.64-.15-2.06.15-2.06.15s.29,1.93,1.88,2.14S18.82,14.1,18.82,14.1Z"/><path class="cls-7" d="M16.2,14.36a.4.4,0,0,0,.38-.41.43.43,0,0,0-.2-.35h.08a.69.69,0,0,1,.67.68.67.67,0,0,1-.64.69.66.66,0,0,1-.66-.67.86.86,0,0,1,0-.16A.38.38,0,0,0,16.2,14.36Z"/><path class="cls-3" d="M11.91,37.14c-.16-.19-.38-.25-.5-.14a.41.41,0,0,0,.05.54c.15.19.38.25.5.14A.42.42,0,0,0,11.91,37.14Zm-.05,0c.11.13.13.31,0,.39s-.25,0-.36-.1a.3.3,0,0,1,0-.39C11.59,37,11.75,37,11.86,37.13Z"/><path class="cls-3" d="M11.34,37.44c-.18-.22-.44-.31-.57-.19s-.09.41.1.63.44.31.57.19S11.53,37.67,11.34,37.44Zm-.05,0c.13.17.17.37.07.46s-.28,0-.42-.14-.16-.37-.07-.45S11.15,37.27,11.29,37.43Z"/><path class="cls-3" d="M11.4,36.36c-.07-.23-.26-.38-.41-.32s-.22.29-.15.52.27.38.42.32S11.48,36.59,11.4,36.36Zm0,0c.05.17,0,.34-.1.38s-.25-.06-.3-.23,0-.34.1-.38S11.31,36.17,11.36,36.33Z"/><path class="cls-3" d="M10.77,36.42c-.09-.28-.3-.46-.47-.4s-.22.33-.13.61.3.47.47.41S10.86,36.7,10.77,36.42Zm0,0c.07.2,0,.4-.09.45s-.27-.09-.34-.3,0-.4.1-.44S10.66,36.18,10.72,36.39Z"/><path class="cls-3" d="M11.25,35.46c.09-.23.08-.44,0-.48s-.24.11-.33.34-.07.45,0,.49S11.17,35.69,11.25,35.46Zm0,0c-.06.17-.17.28-.24.25s-.08-.19,0-.35.17-.28.24-.25S11.31,35.25,11.25,35.42Z"/><path class="cls-3" d="M10.86,35.26c.1-.28.05-.56-.11-.63s-.38.11-.48.38,0,.56.11.63S10.76,35.53,10.86,35.26Zm0-.06c-.07.2-.23.33-.34.28s-.16-.25-.08-.45.23-.33.34-.28S10.92,35,10.84,35.2Z"/><path class="cls-3" d="M12.51,37.72c-.16-.1-.34-.08-.4,0a.31.31,0,0,0,.17.38.29.29,0,0,0,.4,0A.32.32,0,0,0,12.51,37.72Zm0,0c.11.07.17.2.12.28s-.17.09-.28,0a.24.24,0,0,1-.13-.28A.22.22,0,0,1,12.47,37.72Z"/><path class="cls-3" d="M12.17,38.09c-.19-.11-.4-.11-.47,0s0,.31.22.43.4.11.47,0S12.36,38.21,12.17,38.09Zm0,0c.13.08.21.22.16.31s-.2.09-.34,0-.21-.22-.16-.31S12,38,12.13,38.1Z"/><path class="cls-3" d="M13.1,37.87c-.16,0-.3.07-.31.19s.12.22.28.24.3-.07.31-.19S13.26,37.88,13.1,37.87Zm0,0c.12,0,.21.09.2.17s-.1.15-.22.14a.2.2,0,0,1-.2-.17A.19.19,0,0,1,13.07,37.89Z"/><path class="cls-3" d="M13,38.31c-.19,0-.36.07-.37.2s.14.24.34.26.36-.07.37-.2S13.16,38.32,13,38.31Zm0,0c.14,0,.25.1.25.19s-.13.16-.27.14-.25-.09-.25-.19S12.79,38.32,12.93,38.33Z"/><path class="cls-3" d="M7.79,21.06c-.23,0-.44.08-.46.25s.15.34.39.37a.37.37,0,0,0,.45-.26C8.19,21.25,8,21.09,7.79,21.06Zm0,0c.17,0,.29.14.28.26a.27.27,0,0,1-.33.18c-.17,0-.3-.13-.28-.26S7.58,21.07,7.75,21.09Z"/><path class="cls-3" d="M7.56,21.69c-.28,0-.52.08-.54.26s.19.36.47.4.52-.08.55-.27S7.85,21.72,7.56,21.69Zm0,0c.2,0,.35.15.34.28s-.19.22-.4.2-.35-.16-.34-.29S7.31,21.69,7.52,21.72Z"/><path class="cls-3" d="M6.69,21a.38.38,0,0,0-.46.26c0,.17.16.33.39.36s.43-.08.45-.25S6.92,21,6.69,21Zm0,0c.17,0,.29.14.28.26a.27.27,0,0,1-.33.19.28.28,0,0,1-.28-.27C6.33,21.09,6.48,21,6.65,21Z"/><path class="cls-3" d="M6.47,21.63c-.29,0-.53.08-.55.26s.19.37.47.4.53-.08.55-.26S6.75,21.66,6.47,21.63Zm0,0c.2,0,.36.15.34.29s-.19.21-.4.19S6,22,6,21.85,6.22,21.63,6.42,21.66Z"/><path class="cls-3" d="M5.82,20.72c-.2-.12-.42-.12-.48,0s0,.31.25.43.42.12.48,0S6,20.84,5.82,20.72Zm0,0c.15.09.23.23.18.32s-.2.09-.35,0-.23-.23-.18-.32S5.63,20.63,5.78,20.72Z"/><path class="cls-3" d="M5.4,21.16c-.25-.15-.52-.13-.6,0s0,.41.29.55.52.14.6,0S5.65,21.3,5.4,21.16Zm-.05,0c.18.1.27.28.21.4s-.26.13-.44,0-.27-.29-.21-.4S5.17,21.06,5.35,21.17Z"/><path class="cls-3" d="M5.14,20.18c-.12-.22-.29-.34-.38-.29s-.06.28,0,.49.29.34.38.28S5.26,20.39,5.14,20.18Zm0,0c.09.15.11.31,0,.35s-.19-.06-.27-.21-.1-.31,0-.35S5,20,5.1,20.16Z"/><path class="cls-3" d="M4.74,20.37c-.14-.25-.38-.39-.53-.29s-.16.37,0,.63.39.39.54.3S4.88,20.63,4.74,20.37Zm0,0c.1.19.1.39,0,.46s-.28,0-.38-.21-.1-.4,0-.46S4.59,20.17,4.69,20.35Z"/><path class="cls-3" d="M8.78,21.13c-.22,0-.41.11-.41.26s.17.27.39.28.4-.11.41-.26S9,21.13,8.78,21.13Zm0,0c.16,0,.29.1.28.21s-.13.19-.29.19-.28-.1-.28-.21S8.58,21.15,8.74,21.15Z"/><path class="cls-3" d="M8.62,21.69c-.27,0-.49.11-.49.27s.21.3.47.31.49-.12.49-.28S8.89,21.7,8.62,21.69Zm0,0c.19,0,.35.1.34.22s-.16.2-.35.2-.35-.11-.35-.22S8.39,21.71,8.58,21.72Z"/><path class="cls-3" d="M9.83,21.23c-.18,0-.34.1-.34.22s.15.24.33.25.34-.1.35-.23S10,21.24,9.83,21.23Zm0,0c.13,0,.24.08.24.17a.22.22,0,0,1-.25.16c-.14,0-.25-.08-.24-.17S9.67,21.25,9.81,21.26Z"/><path class="cls-3" d="M9.7,21.71c-.22,0-.41.1-.41.23s.17.26.4.26.41-.09.42-.23S9.93,21.72,9.7,21.71Zm0,0c.16,0,.29.08.29.18s-.14.18-.3.17-.3-.09-.29-.19S9.5,21.73,9.67,21.74Z"/><path class="cls-3" d="M10.69,21.6c-.14-.05-.28,0-.31.08s.06.21.2.26.28,0,.31-.08S10.83,21.65,10.69,21.6Zm0,0c.1,0,.17.12.15.19s-.12.09-.22.06-.17-.12-.15-.19S10.56,21.57,10.66,21.61Z"/><path class="cls-3" d="M10.65,22c-.17-.06-.33,0-.36.07s.08.24.24.3.34,0,.37-.08S10.82,22.09,10.65,22Zm0,0c.12,0,.2.14.18.21s-.14.1-.27.05-.2-.13-.17-.21S10.5,22,10.62,22Z"/><path class="cls-2" d="M20.62,17.05a2,2,0,0,1,1.07,1.09c.28.77.94,2.48,1.21,3.35s-1,5.6-.69,8.51,3,4.81,3.46,7.23c.71,3.62-2.3,7-5.13,5.42s-.81-3.88.16-3.83c0,0-1.08,1.86-.07,2.31s2.65-1,2.62-2.14c-.05-2.39-3.11-4-4.22-7.13a24.71,24.71,0,0,1-.61-9.59C18.75,20.26,19.7,17.26,20.62,17.05Z"/><path class="cls-3" d="M21.8,41.56a.26.26,0,0,0,.37.07c.16-.07.25-.22.2-.34a.28.28,0,0,0-.37-.07C21.84,41.3,21.75,41.45,21.8,41.56Zm.5-.28a.22.22,0,0,1-.14.25.2.2,0,0,1-.27-.05c0-.08,0-.19.14-.25A.2.2,0,0,1,22.3,41.28Z"/><path class="cls-3" d="M22,42c.05.12.25.15.43.06s.3-.26.25-.38-.25-.15-.44-.06S22,41.87,22,42Zm.6-.33c0,.09,0,.21-.18.28s-.28,0-.32,0,0-.21.18-.27S22.6,41.57,22.64,41.66Z"/><path class="cls-3" d="M22.5,41.26c.09.08.25.05.37-.08s.14-.31.05-.39-.25,0-.37.08A.3.3,0,0,0,22.5,41.26Zm.36-.46a.23.23,0,0,1,0,.29c-.09.09-.21.12-.27.06a.22.22,0,0,1,0-.29A.2.2,0,0,1,22.86,40.8Z"/><path class="cls-3" d="M22.87,41.56c.09.1.28,0,.42-.12s.19-.36.09-.45-.28,0-.42.12S22.77,41.47,22.87,41.56ZM23.3,41c.07.06,0,.21-.06.33s-.24.15-.31.08,0-.21.07-.33S23.24,41,23.3,41Z"/><path class="cls-3" d="M23,40.65c.07,0,.14-.14.15-.32s0-.32-.12-.33-.14.14-.15.32S23,40.65,23,40.65Zm0-.59c.05,0,.09.11.08.24s-.05.24-.11.23-.09-.11-.09-.24S23,40.06,23,40.06Z"/><path class="cls-3" d="M23.44,40.72c.13,0,.24-.17.25-.38s-.08-.41-.21-.41-.24.16-.25.38S23.31,40.71,23.44,40.72Zm0-.72c.09,0,.16.14.15.3s-.09.28-.18.27-.16-.14-.15-.3S23.35,40,23.44,40Z"/><path class="cls-3" d="M21.21,41.61a.2.2,0,0,0,.25.15c.13,0,.23-.1.22-.19s-.12-.17-.25-.16S21.2,41.52,21.21,41.61Zm.43-.07c0,.07-.07.13-.17.14a.15.15,0,0,1-.18-.11c0-.07.07-.13.16-.14A.16.16,0,0,1,21.64,41.54Z"/><path class="cls-3" d="M21.28,42c0,.1.14.17.3.16s.28-.12.27-.22-.14-.17-.3-.16S21.27,41.88,21.28,42Zm.51-.09c0,.08-.08.15-.19.16s-.22,0-.22-.11.08-.15.19-.16S21.79,41.83,21.79,41.9Z"/><path class="cls-3" d="M20.74,41.4c0,.08,0,.18.15.22a.19.19,0,0,0,.25-.07c0-.08,0-.18-.15-.23S20.77,41.31,20.74,41.4Zm.37.11c0,.06-.1.08-.18.05s-.13-.1-.11-.16.1-.08.18,0S21.13,41.45,21.11,41.51Z"/><path class="cls-3" d="M20.66,41.73c0,.08.05.2.19.25s.27,0,.3-.07-.06-.2-.19-.25S20.69,41.64,20.66,41.73Zm.45.14c0,.06-.12.08-.22,0s-.16-.11-.13-.18.11-.08.21,0S21.13,41.8,21.11,41.87Z"/><path class="cls-3" d="M24.54,34.77h0c-3.2-3.86-3.4-6.45-3.58-8.12s.73-5.72.29-6.45-.75-.64-.75-.64c-1,0-1.39,4.59-1.26,7.56s2,5.57,4.07,7.76a12,12,0,0,1,2.46,3.62,6.1,6.1,0,0,0-.1-1.27A7.37,7.37,0,0,0,24.54,34.77Z"/><path class="cls-1" d="M28.25,6a5.63,5.63,0,0,1-2.19,2.5c-.93.81-1.23,3.25-1.23,3.25l.9,2.17C26.64,12,28.5,9.28,28.25,6Z"/><ellipse class="cls-3" cx="24.32" cy="13.21" rx="2.61" ry="2.75" transform="matrix(1, -0.02, 0.02, 1, -0.26, 0.5)"/><path class="cls-2" d="M21.82,14a2.62,2.62,0,0,0,2.56,2,2.68,2.68,0,0,0,2.55-2.71,2.59,2.59,0,0,0-5.11.73Z"/><path class="cls-6" d="M22.31,14a4.66,4.66,0,0,1,2.4-.9c1.63-.21,2.07.07,2.07.07s-.22,1.93-1.8,2.21S22.31,14,22.31,14Z"/><path class="cls-7" d="M24.93,14.19a.4.4,0,0,1-.39-.4.44.44,0,0,1,.18-.36h-.08a.69.69,0,0,0,0,1.37.66.66,0,0,0,.63-.7.78.78,0,0,0,0-.16A.41.41,0,0,1,24.93,14.19Z"/><path class="cls-1" d="M8.69,17.75s2.54,2.9,4.05,3.3a6.8,6.8,0,0,0,2.71.16l.47-.54a7.62,7.62,0,0,1-3.39-.14A19.73,19.73,0,0,1,8.69,17.75Z"/><path class="cls-3" d="M38.28,16.85c-.51-2.68-3.5-3.58-5.26-3.08-2,.58-4.53,4.52-7.19,2.84a1.28,1.28,0,0,1-.49-.55h0s.48,1.87,2.89,1.16,4-3,6.31-2.82A4.45,4.45,0,0,1,38.28,16.85Z"/><path class="cls-3" d="M28,29.66c0,1.58,1.55,1.85,2.89,2.62a6.56,6.56,0,0,1,2,2.65c0-.13,0-.26,0-.4C32.89,30.4,28.25,30.83,28,29.66Z"/><path class="cls-3" d="M33.24,20.92c0,.17.24.27.47.23s.39-.21.37-.38-.24-.27-.47-.23S33.22,20.75,33.24,20.92Zm.75-.19c0,.13-.1.25-.27.28a.27.27,0,0,1-.34-.17c0-.12.1-.25.27-.28S34,20.61,34,20.73Z"/><path class="cls-3" d="M33.4,21.57c0,.18.28.29.56.24s.48-.23.46-.41-.28-.29-.56-.25S33.38,21.39,33.4,21.57Zm.91-.21c0,.13-.13.26-.33.3s-.38-.05-.4-.18.12-.26.33-.3S34.29,21.22,34.31,21.36Z"/><path class="cls-3" d="M34.34,20.81c0,.17.23.28.46.24s.4-.21.37-.38-.23-.27-.46-.23S34.31,20.64,34.34,20.81Zm.74-.18c0,.12-.1.25-.26.28s-.32-.05-.34-.17.1-.25.27-.28A.27.27,0,0,1,35.08,20.63Z"/><path class="cls-3" d="M34.5,21.47c0,.18.28.29.56.24s.48-.23.45-.42-.28-.29-.56-.24S34.47,21.29,34.5,21.47Zm.91-.22c0,.14-.13.27-.33.31s-.39,0-.41-.18.13-.27.33-.3S35.38,21.12,35.41,21.25Z"/><path class="cls-3" d="M35.33,20.56c.06.12.28.11.48,0s.3-.33.24-.44-.29-.11-.49,0S35.26,20.44,35.33,20.56ZM36,20.1c0,.09,0,.23-.18.33s-.3.1-.35,0,0-.23.17-.32S35.91,20,36,20.1Z"/><path class="cls-3" d="M35.73,21.11c.09.15.36.16.6,0s.36-.41.27-.57-.36-.16-.6,0S35.64,21,35.73,21.11Zm.76-.56c.07.11,0,.3-.2.41s-.37.11-.43,0,0-.3.19-.41S36.42,20.43,36.49,20.55Z"/><path class="cls-3" d="M36.19,20c.09.06.25-.08.36-.3s.13-.43,0-.48-.26.08-.37.3S36.1,20,36.19,20Zm.33-.72c.07,0,0,.19,0,.35s-.2.25-.27.22,0-.2,0-.36S36.45,19.27,36.52,19.31Z"/><path class="cls-3" d="M36.67,20.36c.15.09.38-.05.52-.32s.11-.54,0-.63-.39.05-.52.32S36.51,20.28,36.67,20.36Zm.38-.89c.11.07.13.27,0,.46s-.26.3-.38.23-.12-.26,0-.46S36.94,19.41,37.05,19.47Z"/><path class="cls-3" d="M32.25,20.94c0,.15.19.26.41.25s.39-.15.38-.3-.19-.26-.41-.25S32.24,20.79,32.25,20.94Zm.71-.09c0,.1-.11.2-.27.21s-.3-.06-.3-.17.11-.21.27-.22S33,20.74,33,20.85Z"/><path class="cls-3" d="M32.34,21.52c0,.16.24.28.5.26s.48-.17.46-.33-.23-.27-.5-.25S32.33,21.36,32.34,21.52Zm.87-.11c0,.12-.14.22-.34.23s-.35-.06-.36-.18.14-.22.34-.23S33.2,21.29,33.21,21.41Z"/><path class="cls-3" d="M31.25,21.05c0,.13.17.22.35.2s.33-.12.33-.25-.17-.22-.36-.21S31.24,20.92,31.25,21.05Zm.61-.09c0,.1-.1.18-.24.19a.22.22,0,0,1-.25-.15c0-.09.1-.18.23-.19S31.85,20.87,31.86,21Z"/><path class="cls-3" d="M31.33,21.54c0,.14.2.23.43.22s.4-.14.39-.28-.2-.23-.43-.22S31.32,21.4,31.33,21.54Zm.74-.1c0,.1-.12.19-.29.2s-.3-.05-.3-.15.12-.19.28-.2S32.06,21.35,32.07,21.44Z"/><path class="cls-3" d="M30.54,21.46a.23.23,0,0,0,.31.07c.14-.05.22-.17.19-.27s-.17-.12-.31-.07S30.51,21.37,30.54,21.46Zm.44-.21c0,.07,0,.16-.13.2a.18.18,0,0,1-.23-.05c0-.07,0-.16.14-.2S31,21.18,31,21.25Z"/><path class="cls-3" d="M30.55,21.92c0,.1.2.13.37.06s.27-.2.24-.3-.2-.13-.37-.06S30.52,21.82,30.55,21.92Zm.54-.25c0,.08-.05.17-.17.22s-.24,0-.27,0,.05-.17.17-.22S31.06,21.6,31.09,21.67Z"/><path class="cls-1" d="M25.48,20.49a6.27,6.27,0,0,0,3.28-.6,17.37,17.37,0,0,0,3.09-2.43,11.83,11.83,0,0,1-2.54,2.77,7.49,7.49,0,0,1-3.22.9Z"/><path class="cls-3" d="M30.11,37.31c.13.11.35,0,.5-.15s.16-.44,0-.55-.35,0-.49.16A.42.42,0,0,0,30.11,37.31Zm.44-.66a.3.3,0,0,1,0,.39c-.11.14-.27.19-.36.11a.3.3,0,0,1,0-.39C30.3,36.62,30.46,36.57,30.55,36.65Z"/><path class="cls-3" d="M30.65,37.68c.14.12.39,0,.57-.21s.21-.52.07-.63-.39,0-.57.21S30.51,37.57,30.65,37.68Zm.54-.8c.09.09.07.29-.06.46s-.31.24-.41.15-.07-.28.05-.45S31.09,36.8,31.19,36.88Z"/><path class="cls-3" d="M30.78,36.49c.16,0,.34-.11.4-.34s0-.47-.16-.52-.33.1-.4.34S30.63,36.44,30.78,36.49ZM31,35.7c.11,0,.17.2.12.37s-.18.28-.29.25-.17-.21-.12-.38S30.84,35.66,31,35.7Z"/><path class="cls-3" d="M31.41,36.62c.17.05.37-.14.45-.42s0-.57-.16-.62-.37.14-.45.42S31.24,36.57,31.41,36.62Zm.21-.95c.12,0,.17.23.12.44s-.21.34-.33.3-.17-.23-.11-.44S31.5,35.63,31.62,35.67Z"/><path class="cls-3" d="M31.07,35.4c.1,0,.1-.26,0-.49s-.25-.37-.35-.33-.09.26,0,.49S31,35.44,31.07,35.4Zm-.33-.73c.07,0,.18.08.24.24s.07.32,0,.35-.18-.07-.25-.23S30.67,34.7,30.74,34.67Z"/><path class="cls-3" d="M31.61,35.21c.16-.07.2-.36.09-.63s-.34-.44-.5-.36-.2.35-.08.63S31.45,35.28,31.61,35.21Zm-.42-.87c.12-.06.28.06.36.26s.05.4-.06.45-.28-.06-.36-.26S31.08,34.39,31.19,34.34Z"/><path class="cls-3" d="M29.42,37.76c.06.11.24.12.39,0s.23-.28.16-.39a.29.29,0,0,0-.4,0A.31.31,0,0,0,29.42,37.76Zm.47-.37a.22.22,0,0,1-.11.28c-.11.07-.24.07-.29,0a.24.24,0,0,1,.12-.28C29.72,37.3,29.85,37.31,29.89,37.39Z"/><path class="cls-3" d="M29.72,38.17c.07.12.28.12.46,0s.28-.32.21-.44-.28-.12-.47,0S29.65,38.05,29.72,38.17Zm.58-.44c.05.09,0,.23-.15.32s-.28.09-.33,0,0-.24.14-.32S30.25,37.65,30.3,37.73Z"/><path class="cls-3" d="M28.72,37.8c0,.12.15.19.31.17s.28-.13.27-.25a.27.27,0,0,0-.32-.17C28.82,37.57,28.7,37.68,28.72,37.8Zm.52-.11c0,.09-.08.17-.19.19s-.22-.05-.23-.13.07-.17.19-.18S29.23,37.61,29.24,37.69Z"/><path class="cls-3" d="M28.81,38.25c0,.13.19.21.38.19s.34-.15.33-.28-.19-.2-.38-.18S28.8,38.13,28.81,38.25Zm.63-.12c0,.1-.09.19-.23.2s-.27,0-.28-.13.1-.18.24-.2S29.43,38,29.44,38.13Z"/><path class="cls-1" d="M25.2,31.17a4.58,4.58,0,0,0,2.22,1.27,23.59,23.59,0,0,1,3.36,1.32,10.58,10.58,0,0,0-2.73-1.42A19.78,19.78,0,0,1,25.2,31.17Z"/><path class="cls-1" d="M27.25,38.2a1.81,1.81,0,0,0,1.31.85,5.5,5.5,0,0,0,2-.56,6.78,6.78,0,0,1-2,.42A4.51,4.51,0,0,1,27.25,38.2Z"/><path class="cls-1" d="M17.78,25.23a4.32,4.32,0,0,0-.86,1.92c0,.85.41,2.74-.1,3.85s-2.27,1.62-2.27,1.62,1.85-.87,2.05-2-.19-2.84,0-3.89A2.41,2.41,0,0,1,17.78,25.23Z"/><path class="cls-1" d="M27.15,7.39a.55.55,0,0,1-.62.46.59.59,0,0,1-.31-.72.54.54,0,0,1,.61-.46A.57.57,0,0,1,27.15,7.39Z"/><path class="cls-1" d="M27.68,6.51a.33.33,0,0,1-.39.29.36.36,0,0,1-.19-.46.34.34,0,0,1,.38-.29A.36.36,0,0,1,27.68,6.51Z"/><path class="cls-1" d="M27.46,5.55a.48.48,0,0,1-.54.41.51.51,0,0,1-.28-.64.48.48,0,0,1,.54-.41A.51.51,0,0,1,27.46,5.55Z"/><path class="cls-1" d="M26.44,6.12a.39.39,0,0,1-.44.33.42.42,0,0,1-.22-.52.38.38,0,0,1,.43-.33A.42.42,0,0,1,26.44,6.12Z"/><path class="cls-1" d="M26.82,6.27a.13.13,0,0,1-.15.11.15.15,0,0,1-.08-.18.13.13,0,0,1,.15-.11A.15.15,0,0,1,26.82,6.27Z"/><path class="cls-1" d="M27.48,7.33a.13.13,0,0,1-.15.11.14.14,0,0,1-.08-.18.13.13,0,0,1,.15-.11A.15.15,0,0,1,27.48,7.33Z"/><path class="cls-1" d="M26,7.07a.13.13,0,0,1-.15.11A.14.14,0,0,1,25.78,7a.13.13,0,0,1,.15-.11A.15.15,0,0,1,26,7.07Z"/><path class="cls-1" d="M25.4,7.67a.13.13,0,0,1-.15.11.15.15,0,0,1-.08-.18.13.13,0,0,1,.15-.11A.14.14,0,0,1,25.4,7.67Z"/><path class="cls-1" d="M26.37,5.16c0,.11-.12.18-.21.15a.19.19,0,0,1-.1-.24c0-.11.12-.18.2-.15A.19.19,0,0,1,26.37,5.16Z"/><path class="cls-1" d="M26.8,8.45a.17.17,0,0,1-.2.15.19.19,0,0,1-.11-.24c0-.11.12-.18.21-.15A.19.19,0,0,1,26.8,8.45Z"/><path class="cls-1" d="M27.29,4c0,.11-.12.18-.21.15S27,4,27,3.86s.12-.18.21-.15S27.31,3.84,27.29,4Z"/><path class="cls-1" d="M26.15,8.26c0,.11-.12.18-.2.16a.19.19,0,0,1-.11-.24A.19.19,0,0,1,26.05,8,.2.2,0,0,1,26.15,8.26Z"/><path class="cls-1" d="M27.91,4.86a.21.21,0,0,1-.25.19.23.23,0,0,1-.12-.29.21.21,0,0,1,.25-.19A.23.23,0,0,1,27.91,4.86Z"/><path class="cls-1" d="M27.91,5.61a.13.13,0,0,1-.15.11.15.15,0,0,1-.08-.18.13.13,0,0,1,.15-.11A.14.14,0,0,1,27.91,5.61Z"/><path class="cls-1" d="M13.41,6.92a.58.58,0,0,1,0-.79.51.51,0,0,1,.73.15.59.59,0,0,1,0,.79A.52.52,0,0,1,13.41,6.92Z"/><path class="cls-1" d="M13.78,7.89a.37.37,0,0,1,0-.5.33.33,0,0,1,.47.1.37.37,0,0,1,0,.5A.32.32,0,0,1,13.78,7.89Z"/><path class="cls-1" d="M14.64,8.26a.52.52,0,0,1,0-.7.46.46,0,0,1,.65.14.52.52,0,0,1,0,.7A.46.46,0,0,1,14.64,8.26Z"/><path class="cls-1" d="M14.8,7.06a.43.43,0,0,1,0-.57.36.36,0,0,1,.52.11.42.42,0,0,1,0,.57A.39.39,0,0,1,14.8,7.06Z"/><path class="cls-1" d="M14.47,7.3a.15.15,0,0,1,0-.2.13.13,0,0,1,.18,0,.14.14,0,0,1,0,.19A.12.12,0,0,1,14.47,7.3Z"/><path class="cls-1" d="M13.27,7.24a.15.15,0,0,1,0-.2.13.13,0,0,1,.18,0,.14.14,0,0,1,0,.19A.12.12,0,0,1,13.27,7.24Z"/><path class="cls-1" d="M14.32,6.13a.15.15,0,0,1,0-.19.13.13,0,0,1,.18,0,.14.14,0,0,1,0,.19A.13.13,0,0,1,14.32,6.13Z"/><path class="cls-1" d="M14.22,5.26a.14.14,0,0,1,0-.19.13.13,0,0,1,.18,0,.14.14,0,0,1,0,.19A.13.13,0,0,1,14.22,5.26Z"/><path class="cls-1" d="M15.58,7.56a.2.2,0,0,1,0-.27.21.21,0,0,1,.25.32A.17.17,0,0,1,15.58,7.56Z"/><path class="cls-1" d="M12.8,6a.19.19,0,0,1,0-.26.17.17,0,0,1,.25,0,.2.2,0,0,1,0,.26A.16.16,0,0,1,12.8,6Z"/><path class="cls-1" d="M16,9.05a.19.19,0,0,1,0-.26.17.17,0,0,1,.25.05.2.2,0,0,1,0,.27A.19.19,0,0,1,16,9.05Z"/><path class="cls-1" d="M13.32,5.55a.19.19,0,0,1,0-.26.17.17,0,0,1,.25,0,.22.22,0,0,1,0,.27A.18.18,0,0,1,13.32,5.55Z"/><path class="cls-1" d="M14.91,9.05a.24.24,0,0,1,0-.32.21.21,0,0,1,.3.07.24.24,0,0,1,0,.32A.21.21,0,0,1,14.91,9.05Z"/><path class="cls-1" d="M14.34,8.62a.15.15,0,0,1,0-.2.13.13,0,0,1,.18,0,.14.14,0,0,1,0,.19A.12.12,0,0,1,14.34,8.62Z"/><path class="cls-1" d="M14.36,20.15a.45.45,0,0,0-.53-.35.47.47,0,0,0-.43.48.45.45,0,0,0,.53.35A.46.46,0,0,0,14.36,20.15Z"/><path class="cls-1" d="M15,20.48a.29.29,0,0,0-.34-.22.3.3,0,0,0-.28.3.29.29,0,0,0,.34.23A.31.31,0,0,0,15,20.48Z"/><path class="cls-1" d="M15.3,19.58a.4.4,0,0,0-.38.42.43.43,0,0,0,.85-.11A.39.39,0,0,0,15.3,19.58Z"/><path class="cls-1" d="M15,19.32a.35.35,0,0,0-.69.09.31.31,0,0,0,.38.25A.32.32,0,0,0,15,19.32Z"/><path class="cls-1" d="M14.63,19.81a.11.11,0,0,0-.1.12c0,.06.06.09.13.09a.11.11,0,0,0,.1-.12C14.76,19.84,14.7,19.81,14.63,19.81Z"/><path class="cls-1" d="M14.19,20.76a.11.11,0,0,0-.13-.09.12.12,0,0,0-.11.12.11.11,0,0,0,.13.08A.1.1,0,0,0,14.19,20.76Z"/><path class="cls-1" d="M13.92,19.5a.11.11,0,0,0-.13-.09c-.07,0-.12.06-.11.12a.11.11,0,0,0,.13.08A.12.12,0,0,0,13.92,19.5Z"/><path class="cls-1" d="M12.17,20.14a.12.12,0,0,0-.13-.09c-.07,0-.12.06-.11.12a.12.12,0,0,0,.13.09A.12.12,0,0,0,12.17,20.14Z"/><path class="cls-1" d="M15.16,19.19c0,.08.08.13.17.12a.16.16,0,0,0,.15-.16.16.16,0,0,0-.32,0Z"/><path class="cls-1" d="M13.19,20.52a.15.15,0,0,0-.18-.11.14.14,0,1,0,.18.11Z"/><path class="cls-1" d="M16.34,19.55a.15.15,0,0,0,.18.12.15.15,0,0,0,.14-.16.15.15,0,0,0-.18-.12A.15.15,0,0,0,16.34,19.55Z"/><ellipse class="cls-1" cx="12.95" cy="19.96" rx="0.16" ry="0.14" transform="translate(-3.03 2.33) rotate(-9.21)"/><path class="cls-1" d="M15.83,20.32a.18.18,0,0,0,.21.14.2.2,0,0,0,.18-.2.19.19,0,0,0-.22-.14C15.89,20.14,15.81,20.22,15.83,20.32Z"/><path class="cls-1" d="M15.47,20.49a.1.1,0,0,0-.11.11.11.11,0,0,0,.13.09.12.12,0,0,0,.11-.12A.11.11,0,0,0,15.47,20.49Z"/><path class="cls-3" d="M25.46,2.19a4,4,0,0,1,1.86.68c-1.89-3.35-7-2.84-7-2.84s-5.45-.31-7,3.4L13,4a16,16,0,0,1,3-1.84c.74-.18.84,2.3,1.83,3.35s2.05.57,3.44-.45,1.7-2.24,3.09-2S24.77,2.13,25.46,2.19Z"/></g></g></g></g></svg>