<?xml version="1.0" encoding="UTF-8"?>
<svg xmlns="http://www.w3.org/2000/svg" xmlns:xlink="http://www.w3.org/1999/xlink" width="300px" height="34px" viewBox="0 0 53 6" version="1.1">
<g id="surface1">
<path style=" stroke:none;fill-rule:nonzero;fill:rgb(0%,0%,0%);fill-opacity:1;" d="M 0.1875 0.664062 L 0.203125 0.28125 L 3.839844 0.28125 L 3.839844 0.761719 C 3.839844 1.074219 3.832031 1.253906 3.8125 1.289062 C 3.8125 1.3125 3.75 1.324219 3.625 1.332031 C 3.503906 1.335938 3.207031 1.339844 2.738281 1.339844 L 1.402344 1.339844 L 1.402344 2.496094 C 1.574219 2.492188 1.792969 2.488281 2.066406 2.488281 C 2.691406 2.488281 3.105469 2.496094 3.316406 2.511719 L 3.601562 2.523438 L 3.601562 3.570312 L 2.597656 3.5625 L 1.402344 3.5625 L 1.402344 5.925781 L 0.203125 5.925781 L 0.179688 5.785156 C 0.167969 5.703125 0.164062 4.886719 0.164062 3.34375 C 0.164062 1.800781 0.171875 0.910156 0.1875 0.664062 Z M 0.1875 0.664062 "/>
<path style=" stroke:none;fill-rule:nonzero;fill:rgb(0%,0%,0%);fill-opacity:1;" d="M 5.128906 0.28125 C 5.222656 0.242188 5.324219 0.21875 5.441406 0.21875 C 5.492188 0.21875 5.578125 0.230469 5.699219 0.25 C 5.816406 0.265625 5.914062 0.328125 5.992188 0.429688 C 6.046875 0.503906 6.078125 0.570312 6.082031 0.640625 C 6.085938 0.703125 6.089844 0.746094 6.089844 0.761719 C 6.089844 0.855469 6.070312 0.933594 6.035156 1 C 5.964844 1.128906 5.871094 1.210938 5.746094 1.25 C 5.625 1.285156 5.523438 1.304688 5.449219 1.304688 C 5.363281 1.304688 5.277344 1.292969 5.199219 1.265625 C 5.097656 1.222656 5.015625 1.15625 4.949219 1.066406 C 4.882812 0.976562 4.847656 0.90625 4.84375 0.851562 C 4.839844 0.796875 4.839844 0.769531 4.839844 0.761719 C 4.839844 0.671875 4.863281 0.582031 4.910156 0.492188 C 4.960938 0.402344 5.03125 0.332031 5.128906 0.28125 Z M 4.882812 1.960938 L 4.890625 1.800781 L 5 1.816406 C 5.078125 1.828125 5.261719 1.832031 5.546875 1.832031 L 6.042969 1.832031 L 6.050781 3.589844 C 6.050781 4.792969 6.042969 5.472656 6.027344 5.632812 L 6.011719 5.925781 L 5.421875 5.933594 C 5.320312 5.941406 5.234375 5.945312 5.167969 5.945312 C 5.101562 5.945312 5.035156 5.941406 4.972656 5.933594 C 4.914062 5.929688 4.878906 5.917969 4.875 5.902344 C 4.863281 5.875 4.855469 5.238281 4.855469 3.984375 C 4.855469 2.730469 4.867188 2.054688 4.882812 1.960938 Z M 4.882812 1.960938 "/>
<path style=" stroke:none;fill-rule:nonzero;fill:rgb(0%,0%,0%);fill-opacity:1;" d="M 7.453125 0.0078125 C 7.488281 0.00390625 7.65625 0 7.960938 0 L 8.398438 0.0078125 L 8.398438 6 L 7.925781 6 C 7.609375 6 7.429688 5.984375 7.386719 5.960938 L 7.324219 5.917969 L 7.324219 3.066406 C 7.324219 1.210938 7.328125 0.261719 7.339844 0.210938 C 7.355469 0.164062 7.375 0.140625 7.402344 0.140625 C 7.425781 0.140625 7.4375 0.136719 7.4375 0.128906 C 7.4375 0.125 7.429688 0.117188 7.417969 0.105469 C 7.398438 0.0859375 7.386719 0.0664062 7.386719 0.0507812 C 7.386719 0.0507812 7.386719 0.046875 7.390625 0.0390625 C 7.394531 0.0273438 7.414062 0.0195312 7.453125 0.0078125 Z M 7.453125 0.0078125 "/>
<path style=" stroke:none;fill-rule:nonzero;fill:rgb(0%,0%,0%);fill-opacity:1;" d="M 10.867188 1.828125 C 11.007812 1.792969 11.140625 1.773438 11.269531 1.769531 C 11.394531 1.769531 11.472656 1.765625 11.492188 1.765625 C 11.703125 1.765625 11.867188 1.785156 11.976562 1.816406 C 12.269531 1.890625 12.507812 2.019531 12.683594 2.203125 C 12.859375 2.386719 12.972656 2.617188 13.011719 2.886719 C 13.035156 3.027344 13.046875 3.550781 13.054688 4.460938 L 13.058594 5.835938 L 12.972656 5.871094 C 12.921875 5.886719 12.839844 5.894531 12.71875 5.898438 C 12.59375 5.898438 12.515625 5.902344 12.480469 5.902344 C 12.355469 5.902344 12.269531 5.894531 12.210938 5.882812 C 12.171875 5.882812 12.144531 5.867188 12.125 5.84375 C 12.113281 5.816406 12.089844 5.769531 12.058594 5.699219 C 12.019531 5.597656 12 5.527344 12 5.488281 C 12 5.457031 11.996094 5.4375 11.984375 5.4375 C 11.96875 5.4375 11.925781 5.476562 11.851562 5.546875 C 11.765625 5.628906 11.664062 5.703125 11.542969 5.773438 C 11.425781 5.84375 11.3125 5.894531 11.207031 5.925781 C 11.082031 5.960938 10.917969 5.980469 10.710938 5.980469 C 10.695312 5.980469 10.628906 5.980469 10.511719 5.976562 C 10.390625 5.972656 10.28125 5.953125 10.179688 5.917969 C 9.660156 5.710938 9.402344 5.308594 9.402344 4.710938 C 9.402344 4.703125 9.402344 4.699219 9.402344 4.691406 C 9.402344 4.484375 9.425781 4.316406 9.484375 4.1875 C 9.539062 4.0625 9.640625 3.925781 9.785156 3.777344 C 9.867188 3.699219 9.9375 3.640625 9.996094 3.597656 C 10.054688 3.554688 10.132812 3.515625 10.238281 3.480469 C 10.535156 3.355469 10.945312 3.292969 11.46875 3.292969 C 11.660156 3.292969 11.773438 3.292969 11.8125 3.285156 C 11.855469 3.28125 11.875 3.265625 11.875 3.242188 C 11.875 3.15625 11.839844 3.070312 11.769531 2.980469 C 11.695312 2.886719 11.609375 2.820312 11.511719 2.78125 C 11.425781 2.75 11.320312 2.734375 11.199219 2.734375 C 11.167969 2.734375 11.101562 2.738281 11.003906 2.742188 C 10.90625 2.746094 10.777344 2.773438 10.625 2.832031 C 10.4375 2.890625 10.335938 2.921875 10.316406 2.929688 C 10.300781 2.929688 10.28125 2.90625 10.265625 2.867188 C 10.25 2.820312 10.230469 2.746094 10.203125 2.644531 C 10.15625 2.433594 10.132812 2.296875 10.132812 2.238281 C 10.132812 2.214844 10.132812 2.199219 10.132812 2.191406 C 10.132812 2.15625 10.136719 2.136719 10.144531 2.125 C 10.152344 2.109375 10.183594 2.082031 10.238281 2.042969 C 10.371094 1.972656 10.582031 1.902344 10.867188 1.828125 Z M 11.875 4.613281 L 11.875 4.175781 L 11.574219 4.183594 C 11.386719 4.183594 11.246094 4.191406 11.148438 4.210938 C 11.054688 4.222656 10.964844 4.253906 10.882812 4.296875 C 10.757812 4.371094 10.6875 4.445312 10.664062 4.523438 C 10.644531 4.601562 10.632812 4.652344 10.632812 4.683594 C 10.632812 4.765625 10.664062 4.835938 10.726562 4.886719 C 10.8125 4.976562 10.929688 5.019531 11.070312 5.019531 C 11.109375 5.019531 11.1875 5.011719 11.3125 4.988281 C 11.433594 4.96875 11.570312 4.886719 11.722656 4.742188 Z M 11.875 4.613281 "/>
<path style=" stroke:none;fill-rule:nonzero;fill:rgb(0%,0%,0%);fill-opacity:1;" d="M 15.875 1.863281 C 16.113281 1.78125 16.371094 1.765625 16.644531 1.808594 C 16.921875 1.851562 17.175781 1.972656 17.402344 2.164062 L 17.554688 2.292969 L 17.675781 2.175781 C 17.742188 2.105469 17.859375 2.027344 18.023438 1.945312 C 18.1875 1.859375 18.328125 1.808594 18.4375 1.785156 C 18.554688 1.757812 18.710938 1.742188 18.90625 1.746094 C 19.097656 1.75 19.246094 1.765625 19.347656 1.792969 C 19.671875 1.875 19.929688 2.023438 20.125 2.238281 C 20.226562 2.351562 20.300781 2.464844 20.347656 2.578125 C 20.394531 2.6875 20.433594 2.835938 20.460938 3.019531 C 20.476562 3.175781 20.480469 3.675781 20.480469 4.519531 C 20.480469 5.363281 20.476562 5.804688 20.460938 5.835938 C 20.449219 5.859375 20.40625 5.875 20.332031 5.878906 C 20.257812 5.882812 20.121094 5.886719 19.921875 5.894531 C 19.566406 5.898438 19.371094 5.890625 19.328125 5.871094 L 19.25 5.847656 L 19.234375 4.613281 C 19.234375 4.597656 19.234375 4.578125 19.234375 4.546875 C 19.234375 3.925781 19.226562 3.554688 19.207031 3.433594 C 19.195312 3.3125 19.148438 3.199219 19.066406 3.089844 C 18.996094 3.003906 18.898438 2.945312 18.765625 2.917969 C 18.640625 2.886719 18.507812 2.890625 18.375 2.929688 C 18.296875 2.949219 18.210938 3 18.125 3.085938 C 18.042969 3.167969 17.984375 3.261719 17.949219 3.367188 C 17.917969 3.441406 17.902344 3.542969 17.898438 3.671875 C 17.890625 3.796875 17.890625 4.132812 17.890625 4.679688 C 17.890625 5.445312 17.882812 5.847656 17.863281 5.878906 C 17.859375 5.90625 17.832031 5.921875 17.78125 5.921875 C 17.730469 5.925781 17.617188 5.925781 17.4375 5.925781 C 17.136719 5.921875 16.941406 5.914062 16.839844 5.902344 L 16.664062 5.882812 L 16.648438 4.65625 C 16.648438 4.636719 16.648438 4.617188 16.648438 4.589844 C 16.636719 3.941406 16.625 3.550781 16.609375 3.425781 C 16.59375 3.296875 16.535156 3.179688 16.433594 3.074219 C 16.316406 2.953125 16.179688 2.894531 16.019531 2.894531 C 15.882812 2.894531 15.757812 2.941406 15.65625 3.027344 C 15.546875 3.113281 15.46875 3.234375 15.410156 3.394531 C 15.371094 3.476562 15.347656 3.578125 15.34375 3.699219 C 15.335938 3.824219 15.328125 4.148438 15.320312 4.683594 C 15.304688 5.4375 15.285156 5.824219 15.261719 5.847656 C 15.242188 5.871094 15.070312 5.886719 14.742188 5.898438 C 14.414062 5.90625 14.214844 5.902344 14.144531 5.882812 L 14.078125 5.871094 L 14.078125 3.882812 C 14.078125 2.90625 14.078125 2.328125 14.085938 2.152344 C 14.089844 1.976562 14.105469 1.882812 14.136719 1.863281 C 14.164062 1.847656 14.359375 1.84375 14.722656 1.847656 L 15.246094 1.855469 L 15.273438 2.058594 L 15.304688 2.253906 L 15.382812 2.132812 C 15.5 2.03125 15.664062 1.941406 15.875 1.863281 Z M 15.875 1.863281 "/>
<path style=" stroke:none;fill-rule:nonzero;fill:rgb(0%,0%,0%);fill-opacity:1;" d="M 22.789062 1.816406 C 22.980469 1.773438 23.164062 1.75 23.339844 1.75 C 23.488281 1.75 23.671875 1.777344 23.898438 1.828125 C 24.125 1.875 24.335938 1.992188 24.535156 2.175781 C 24.714844 2.339844 24.839844 2.523438 24.914062 2.726562 C 24.988281 2.925781 25.03125 3.199219 25.042969 3.542969 C 25.046875 3.65625 25.050781 3.753906 25.050781 3.835938 C 25.050781 3.957031 25.042969 4.035156 25.035156 4.070312 C 25.023438 4.125 25.011719 4.15625 24.996094 4.167969 C 24.984375 4.179688 24.949219 4.183594 24.890625 4.183594 C 24.804688 4.183594 24.5625 4.207031 24.15625 4.246094 C 23.753906 4.289062 23.394531 4.308594 23.085938 4.308594 L 22.617188 4.308594 L 22.640625 4.386719 C 22.675781 4.539062 22.773438 4.667969 22.9375 4.773438 C 23.101562 4.878906 23.28125 4.929688 23.480469 4.929688 C 23.726562 4.929688 23.949219 4.847656 24.152344 4.679688 C 24.238281 4.605469 24.296875 4.566406 24.316406 4.566406 C 24.335938 4.566406 24.445312 4.679688 24.65625 4.902344 C 24.867188 5.125 24.972656 5.25 24.980469 5.277344 C 24.980469 5.277344 24.980469 5.28125 24.980469 5.285156 C 24.980469 5.316406 24.898438 5.386719 24.738281 5.507812 C 24.582031 5.625 24.441406 5.714844 24.316406 5.773438 C 24.160156 5.847656 24.007812 5.902344 23.859375 5.941406 C 23.710938 5.980469 23.535156 6 23.332031 6 C 22.828125 6 22.402344 5.871094 22.0625 5.609375 C 21.722656 5.347656 21.484375 4.976562 21.351562 4.492188 C 21.304688 4.335938 21.285156 4.125 21.285156 3.859375 C 21.285156 3.613281 21.300781 3.417969 21.332031 3.269531 C 21.363281 3.117188 21.429688 2.945312 21.527344 2.753906 C 21.652344 2.503906 21.820312 2.300781 22.023438 2.148438 C 22.234375 1.992188 22.488281 1.882812 22.789062 1.816406 Z M 23.648438 2.746094 C 23.558594 2.703125 23.46875 2.683594 23.378906 2.683594 C 23.308594 2.683594 23.207031 2.707031 23.078125 2.75 C 22.949219 2.792969 22.832031 2.894531 22.726562 3.046875 C 22.640625 3.167969 22.597656 3.25 22.597656 3.292969 C 22.597656 3.300781 22.601562 3.3125 22.609375 3.332031 C 22.613281 3.347656 22.695312 3.355469 22.851562 3.355469 C 23.003906 3.355469 23.234375 3.347656 23.542969 3.324219 C 23.855469 3.296875 24.015625 3.28125 24.023438 3.277344 C 24.027344 3.269531 24.03125 3.257812 24.03125 3.242188 C 24.03125 3.21875 24.011719 3.164062 23.96875 3.078125 C 23.929688 2.992188 23.890625 2.929688 23.855469 2.886719 C 23.808594 2.839844 23.738281 2.792969 23.648438 2.746094 Z M 23.648438 2.746094 "/>
<path style=" stroke:none;fill-rule:nonzero;fill:rgb(0%,0%,0%);fill-opacity:1;" d="M 27.84375 1.816406 C 27.929688 1.789062 28.074219 1.777344 28.285156 1.777344 C 28.492188 1.777344 28.65625 1.789062 28.773438 1.816406 C 29.019531 1.878906 29.222656 1.988281 29.390625 2.144531 C 29.558594 2.304688 29.675781 2.503906 29.746094 2.746094 C 29.765625 2.8125 29.78125 2.949219 29.785156 3.164062 C 29.792969 3.375 29.800781 3.785156 29.808594 4.386719 L 29.816406 5.925781 L 28.664062 5.925781 L 28.644531 3.324219 L 28.558594 3.136719 C 28.476562 2.980469 28.382812 2.878906 28.269531 2.828125 C 28.160156 2.773438 28.058594 2.746094 27.964844 2.746094 C 27.90625 2.746094 27.84375 2.753906 27.78125 2.773438 C 27.582031 2.828125 27.429688 2.941406 27.328125 3.117188 L 27.230469 3.257812 L 27.207031 4.566406 C 27.199219 5.46875 27.195312 5.917969 27.1875 5.917969 C 27.183594 5.925781 26.992188 5.925781 26.609375 5.925781 L 26.035156 5.925781 L 26.019531 3.882812 C 26.011719 3 26.011719 2.40625 26.011719 2.105469 C 26.011719 1.957031 26.011719 1.882812 26.011719 1.882812 C 26.023438 1.871094 26.128906 1.859375 26.328125 1.851562 C 26.53125 1.84375 26.675781 1.839844 26.769531 1.839844 C 26.863281 1.839844 26.933594 1.84375 26.980469 1.847656 L 27.214844 1.875 L 27.214844 2.289062 L 27.339844 2.148438 C 27.484375 1.992188 27.652344 1.882812 27.84375 1.816406 Z M 27.84375 1.816406 "/>
<path style=" stroke:none;fill-rule:nonzero;fill:rgb(0%,0%,0%);fill-opacity:1;" d="M 31.347656 0.984375 C 31.375 0.960938 31.558594 0.949219 31.898438 0.949219 L 31.90625 0.949219 C 31.910156 0.949219 31.914062 0.949219 31.914062 0.949219 L 32.035156 0.949219 C 32.238281 0.949219 32.359375 0.964844 32.390625 0.996094 C 32.421875 1.023438 32.4375 1.132812 32.4375 1.320312 L 32.4375 1.339844 C 32.4375 1.34375 32.4375 1.351562 32.4375 1.355469 L 32.4375 1.363281 C 32.4375 1.367188 32.4375 1.367188 32.4375 1.367188 L 32.4375 1.378906 C 32.4375 1.382812 32.4375 1.386719 32.4375 1.386719 L 32.4375 1.4375 C 32.4375 1.4375 32.4375 1.441406 32.4375 1.445312 L 32.4375 1.828125 L 32.902344 1.828125 C 33.207031 1.828125 33.378906 1.835938 33.414062 1.855469 C 33.429688 1.867188 33.445312 1.894531 33.449219 1.9375 C 33.457031 1.976562 33.457031 2.023438 33.457031 2.078125 C 33.457031 2.128906 33.457031 2.199219 33.449219 2.28125 C 33.449219 2.539062 33.4375 2.679688 33.414062 2.707031 C 33.402344 2.730469 33.359375 2.746094 33.292969 2.75 C 33.222656 2.753906 33.09375 2.753906 32.910156 2.753906 L 32.4375 2.753906 L 32.4375 3.679688 C 32.4375 4.039062 32.441406 4.289062 32.445312 4.433594 C 32.453125 4.578125 32.464844 4.679688 32.488281 4.742188 C 32.511719 4.808594 32.546875 4.863281 32.59375 4.90625 C 32.65625 4.960938 32.710938 4.988281 32.75 4.992188 C 32.792969 5 32.820312 5.003906 32.839844 5.003906 C 32.902344 5.003906 32.976562 4.988281 33.066406 4.960938 C 33.164062 4.933594 33.226562 4.921875 33.25 4.921875 C 33.261719 4.921875 33.265625 4.921875 33.265625 4.921875 C 33.277344 4.933594 33.296875 4.9375 33.324219 4.9375 C 33.359375 4.9375 33.40625 5 33.453125 5.117188 C 33.503906 5.234375 33.535156 5.347656 33.546875 5.449219 L 33.570312 5.625 L 33.421875 5.722656 C 33.207031 5.859375 33.011719 5.933594 32.835938 5.949219 C 32.65625 5.960938 32.539062 5.96875 32.488281 5.96875 C 32.253906 5.96875 32.046875 5.925781 31.859375 5.835938 C 31.769531 5.796875 31.675781 5.722656 31.578125 5.621094 C 31.480469 5.519531 31.410156 5.421875 31.375 5.328125 C 31.332031 5.226562 31.304688 5.09375 31.289062 4.933594 C 31.277344 4.773438 31.269531 4.570312 31.269531 4.328125 C 31.269531 4.160156 31.273438 3.972656 31.277344 3.753906 L 31.292969 2.753906 L 30.578125 2.753906 L 30.5625 2.675781 C 30.554688 2.65625 30.554688 2.613281 30.554688 2.546875 C 30.554688 2.476562 30.558594 2.355469 30.566406 2.183594 C 30.574219 2.007812 30.585938 1.902344 30.605469 1.863281 C 30.609375 1.847656 30.636719 1.839844 30.683594 1.835938 C 30.730469 1.828125 30.820312 1.828125 30.953125 1.828125 L 31.277344 1.828125 L 31.292969 1.410156 C 31.300781 1.257812 31.304688 1.148438 31.3125 1.089844 C 31.316406 1.03125 31.328125 0.996094 31.347656 0.984375 Z M 31.347656 0.984375 "/>
<path style=" stroke:none;fill-rule:nonzero;fill:rgb(100%,69.411767%,20%);fill-opacity:1;" d="M 36.855469 0.210938 C 36.960938 0.195312 37.203125 0.1875 37.582031 0.1875 C 37.828125 0.191406 37.996094 0.199219 38.082031 0.210938 C 38.171875 0.222656 38.273438 0.25 38.390625 0.292969 C 38.761719 0.40625 38.96875 0.519531 39.003906 0.628906 C 39.015625 0.671875 39.019531 0.699219 39.019531 0.714844 C 39.019531 0.71875 39.019531 0.722656 39.019531 0.726562 C 39.007812 0.746094 38.972656 0.90625 38.90625 1.207031 C 38.847656 1.515625 38.808594 1.679688 38.800781 1.695312 C 38.800781 1.703125 38.792969 1.703125 38.773438 1.703125 C 38.738281 1.703125 38.640625 1.664062 38.488281 1.589844 C 38.3125 1.503906 38.160156 1.441406 38.027344 1.40625 C 37.890625 1.371094 37.753906 1.355469 37.613281 1.355469 C 37.3125 1.355469 37.089844 1.429688 36.953125 1.582031 C 36.882812 1.664062 36.84375 1.722656 36.84375 1.757812 C 36.839844 1.792969 36.839844 1.808594 36.839844 1.808594 C 36.839844 1.878906 36.875 1.957031 36.953125 2.035156 C 37.011719 2.109375 37.089844 2.171875 37.199219 2.222656 C 37.304688 2.269531 37.503906 2.335938 37.796875 2.425781 C 38.082031 2.511719 38.261719 2.578125 38.335938 2.621094 C 38.527344 2.703125 38.714844 2.832031 38.890625 3.007812 C 39.066406 3.1875 39.183594 3.351562 39.238281 3.5 C 39.277344 3.613281 39.304688 3.742188 39.3125 3.882812 C 39.320312 4.023438 39.324219 4.128906 39.324219 4.191406 C 39.324219 4.316406 39.316406 4.425781 39.300781 4.515625 C 39.234375 4.839844 39.085938 5.128906 38.847656 5.375 C 38.613281 5.625 38.332031 5.796875 38 5.894531 C 37.753906 5.960938 37.453125 6 37.101562 6 C 36.753906 6 36.429688 5.96875 36.136719 5.914062 C 35.839844 5.859375 35.640625 5.773438 35.535156 5.660156 C 35.503906 5.625 35.484375 5.570312 35.484375 5.484375 C 35.480469 5.402344 35.480469 5.351562 35.480469 5.339844 C 35.480469 5.203125 35.492188 5.042969 35.519531 4.859375 C 35.542969 4.664062 35.5625 4.566406 35.582031 4.566406 C 35.585938 4.566406 35.597656 4.574219 35.617188 4.589844 C 35.632812 4.605469 35.660156 4.613281 35.695312 4.613281 C 35.707031 4.613281 35.71875 4.613281 35.726562 4.613281 C 35.773438 4.613281 35.902344 4.628906 36.105469 4.664062 C 36.324219 4.710938 36.597656 4.734375 36.917969 4.734375 C 37.160156 4.734375 37.3125 4.730469 37.371094 4.722656 C 37.4375 4.714844 37.507812 4.6875 37.589844 4.644531 C 37.683594 4.597656 37.761719 4.535156 37.820312 4.457031 C 37.882812 4.378906 37.917969 4.289062 37.929688 4.191406 C 37.929688 4.175781 37.929688 4.160156 37.929688 4.140625 C 37.929688 4.117188 37.925781 4.09375 37.917969 4.070312 C 37.910156 4.042969 37.886719 4.003906 37.84375 3.945312 C 37.773438 3.863281 37.679688 3.792969 37.558594 3.734375 C 37.441406 3.679688 37.222656 3.601562 36.90625 3.511719 C 36.546875 3.390625 36.3125 3.308594 36.210938 3.257812 C 36.109375 3.207031 36.003906 3.125 35.894531 3.019531 C 35.785156 2.90625 35.699219 2.800781 35.640625 2.699219 C 35.539062 2.5 35.480469 2.324219 35.46875 2.175781 C 35.460938 2.023438 35.457031 1.917969 35.457031 1.863281 C 35.457031 1.664062 35.488281 1.457031 35.554688 1.238281 C 35.621094 1.015625 35.726562 0.824219 35.871094 0.664062 C 35.953125 0.574219 36.09375 0.484375 36.289062 0.398438 C 36.488281 0.308594 36.675781 0.246094 36.855469 0.210938 Z M 36.855469 0.210938 "/>
<path style=" stroke:none;fill-rule:nonzero;fill:rgb(100%,69.411767%,20%);fill-opacity:1;" d="M 41.527344 1.828125 C 41.667969 1.792969 41.804688 1.773438 41.933594 1.769531 C 42.058594 1.769531 42.132812 1.765625 42.15625 1.765625 C 42.367188 1.765625 42.527344 1.785156 42.640625 1.816406 C 42.933594 1.890625 43.167969 2.019531 43.347656 2.203125 C 43.523438 2.386719 43.632812 2.617188 43.675781 2.886719 C 43.699219 3.027344 43.710938 3.550781 43.71875 4.460938 L 43.722656 5.835938 L 43.632812 5.871094 C 43.585938 5.886719 43.5 5.894531 43.378906 5.898438 C 43.257812 5.898438 43.179688 5.902344 43.144531 5.902344 C 43.019531 5.902344 42.929688 5.894531 42.871094 5.882812 C 42.832031 5.882812 42.804688 5.867188 42.789062 5.84375 C 42.773438 5.816406 42.753906 5.769531 42.722656 5.699219 C 42.683594 5.597656 42.664062 5.527344 42.664062 5.488281 C 42.664062 5.457031 42.65625 5.4375 42.648438 5.4375 C 42.632812 5.4375 42.589844 5.476562 42.515625 5.546875 C 42.429688 5.628906 42.324219 5.703125 42.207031 5.773438 C 42.085938 5.84375 41.972656 5.894531 41.871094 5.925781 C 41.746094 5.960938 41.582031 5.980469 41.375 5.980469 C 41.359375 5.980469 41.292969 5.980469 41.175781 5.976562 C 41.054688 5.972656 40.941406 5.953125 40.839844 5.917969 C 40.320312 5.710938 40.0625 5.308594 40.0625 4.710938 C 40.0625 4.703125 40.0625 4.699219 40.0625 4.691406 C 40.0625 4.484375 40.089844 4.316406 40.144531 4.1875 C 40.203125 4.0625 40.300781 3.925781 40.445312 3.777344 C 40.527344 3.699219 40.601562 3.640625 40.660156 3.597656 C 40.714844 3.554688 40.796875 3.515625 40.898438 3.480469 C 41.195312 3.355469 41.605469 3.292969 42.132812 3.292969 C 42.324219 3.292969 42.4375 3.292969 42.476562 3.285156 C 42.519531 3.28125 42.539062 3.265625 42.539062 3.242188 C 42.539062 3.15625 42.503906 3.070312 42.429688 2.980469 C 42.359375 2.886719 42.273438 2.820312 42.171875 2.78125 C 42.085938 2.75 41.984375 2.734375 41.859375 2.734375 C 41.828125 2.734375 41.765625 2.738281 41.664062 2.742188 C 41.566406 2.746094 41.441406 2.773438 41.285156 2.832031 C 41.101562 2.890625 40.996094 2.921875 40.980469 2.929688 C 40.960938 2.929688 40.945312 2.90625 40.929688 2.867188 C 40.914062 2.820312 40.894531 2.746094 40.867188 2.644531 C 40.820312 2.433594 40.796875 2.296875 40.796875 2.238281 C 40.796875 2.214844 40.796875 2.199219 40.796875 2.191406 C 40.796875 2.15625 40.800781 2.136719 40.808594 2.125 C 40.816406 2.109375 40.847656 2.082031 40.898438 2.042969 C 41.035156 1.972656 41.246094 1.902344 41.527344 1.828125 Z M 42.539062 4.613281 L 42.539062 4.175781 L 42.234375 4.183594 C 42.050781 4.183594 41.90625 4.191406 41.8125 4.210938 C 41.714844 4.222656 41.628906 4.253906 41.542969 4.296875 C 41.421875 4.371094 41.351562 4.445312 41.328125 4.523438 C 41.304688 4.601562 41.296875 4.652344 41.296875 4.683594 C 41.296875 4.765625 41.328125 4.835938 41.390625 4.886719 C 41.476562 4.976562 41.589844 5.019531 41.730469 5.019531 C 41.769531 5.019531 41.851562 5.011719 41.972656 4.988281 C 42.09375 4.96875 42.230469 4.886719 42.386719 4.742188 Z M 42.539062 4.613281 "/>
<path style=" stroke:none;fill-rule:nonzero;fill:rgb(100%,69.411767%,20%);fill-opacity:1;" d="M 45.96875 1.828125 C 46.109375 1.792969 46.242188 1.773438 46.371094 1.769531 C 46.496094 1.769531 46.574219 1.765625 46.597656 1.765625 C 46.804688 1.765625 46.96875 1.785156 47.078125 1.816406 C 47.371094 1.890625 47.609375 2.019531 47.785156 2.203125 C 47.964844 2.386719 48.074219 2.617188 48.113281 2.886719 C 48.136719 3.027344 48.148438 3.550781 48.15625 4.460938 L 48.160156 5.835938 L 48.074219 5.871094 C 48.023438 5.886719 47.941406 5.894531 47.820312 5.898438 C 47.695312 5.898438 47.617188 5.902344 47.582031 5.902344 C 47.460938 5.902344 47.371094 5.894531 47.3125 5.882812 C 47.273438 5.882812 47.246094 5.867188 47.226562 5.84375 C 47.214844 5.816406 47.191406 5.769531 47.160156 5.699219 C 47.121094 5.597656 47.105469 5.527344 47.105469 5.488281 C 47.105469 5.457031 47.097656 5.4375 47.085938 5.4375 C 47.074219 5.4375 47.027344 5.476562 46.953125 5.546875 C 46.867188 5.628906 46.765625 5.703125 46.644531 5.773438 C 46.527344 5.84375 46.414062 5.894531 46.308594 5.925781 C 46.1875 5.960938 46.023438 5.980469 45.8125 5.980469 C 45.800781 5.980469 45.730469 5.980469 45.613281 5.976562 C 45.492188 5.972656 45.382812 5.953125 45.28125 5.917969 C 44.761719 5.710938 44.503906 5.308594 44.503906 4.710938 C 44.503906 4.703125 44.503906 4.699219 44.503906 4.691406 C 44.503906 4.484375 44.53125 4.316406 44.585938 4.1875 C 44.640625 4.0625 44.742188 3.925781 44.886719 3.777344 C 44.96875 3.699219 45.039062 3.640625 45.097656 3.597656 C 45.15625 3.554688 45.234375 3.515625 45.339844 3.480469 C 45.636719 3.355469 46.046875 3.292969 46.570312 3.292969 C 46.761719 3.292969 46.875 3.292969 46.917969 3.285156 C 46.957031 3.28125 46.980469 3.265625 46.980469 3.242188 C 46.980469 3.15625 46.941406 3.070312 46.871094 2.980469 C 46.796875 2.886719 46.710938 2.820312 46.613281 2.78125 C 46.527344 2.75 46.421875 2.734375 46.300781 2.734375 C 46.269531 2.734375 46.203125 2.738281 46.105469 2.742188 C 46.007812 2.746094 45.882812 2.773438 45.726562 2.832031 C 45.539062 2.890625 45.4375 2.921875 45.417969 2.929688 C 45.402344 2.929688 45.386719 2.90625 45.367188 2.867188 C 45.355469 2.820312 45.332031 2.746094 45.304688 2.644531 C 45.257812 2.433594 45.234375 2.296875 45.234375 2.238281 C 45.234375 2.214844 45.234375 2.199219 45.234375 2.191406 C 45.234375 2.15625 45.238281 2.136719 45.246094 2.125 C 45.253906 2.109375 45.285156 2.082031 45.339844 2.042969 C 45.472656 1.972656 45.683594 1.902344 45.96875 1.828125 Z M 46.980469 4.613281 L 46.980469 4.175781 L 46.675781 4.183594 C 46.488281 4.183594 46.347656 4.191406 46.25 4.210938 C 46.15625 4.222656 46.066406 4.253906 45.984375 4.296875 C 45.859375 4.371094 45.789062 4.445312 45.769531 4.523438 C 45.746094 4.601562 45.734375 4.652344 45.734375 4.683594 C 45.734375 4.765625 45.765625 4.835938 45.832031 4.886719 C 45.914062 4.976562 46.03125 5.019531 46.171875 5.019531 C 46.210938 5.019531 46.289062 5.011719 46.414062 4.988281 C 46.535156 4.96875 46.671875 4.886719 46.824219 4.742188 Z M 46.980469 4.613281 "/>
<path style=" stroke:none;fill-rule:nonzero;fill:rgb(100%,69.411767%,20%);fill-opacity:1;" d="M 50.363281 0.210938 C 50.46875 0.195312 50.710938 0.1875 51.089844 0.1875 C 51.339844 0.191406 51.507812 0.199219 51.59375 0.210938 C 51.679688 0.222656 51.785156 0.25 51.902344 0.292969 C 52.273438 0.40625 52.476562 0.519531 52.511719 0.628906 C 52.523438 0.671875 52.527344 0.699219 52.527344 0.714844 C 52.527344 0.71875 52.527344 0.722656 52.527344 0.726562 C 52.519531 0.746094 52.480469 0.90625 52.417969 1.207031 C 52.355469 1.515625 52.320312 1.679688 52.308594 1.695312 C 52.308594 1.703125 52.300781 1.703125 52.285156 1.703125 C 52.246094 1.703125 52.152344 1.664062 51.996094 1.589844 C 51.820312 1.503906 51.667969 1.441406 51.535156 1.40625 C 51.402344 1.371094 51.265625 1.355469 51.121094 1.355469 C 50.820312 1.355469 50.597656 1.429688 50.460938 1.582031 C 50.390625 1.664062 50.355469 1.722656 50.351562 1.757812 C 50.347656 1.792969 50.347656 1.808594 50.347656 1.808594 C 50.347656 1.878906 50.386719 1.957031 50.460938 2.035156 C 50.519531 2.109375 50.601562 2.171875 50.707031 2.222656 C 50.816406 2.269531 51.015625 2.335938 51.304688 2.425781 C 51.589844 2.511719 51.773438 2.578125 51.847656 2.621094 C 52.039062 2.703125 52.222656 2.832031 52.398438 3.007812 C 52.578125 3.1875 52.691406 3.351562 52.746094 3.5 C 52.789062 3.613281 52.8125 3.742188 52.820312 3.882812 C 52.828125 4.023438 52.832031 4.128906 52.832031 4.191406 C 52.832031 4.316406 52.824219 4.425781 52.808594 4.515625 C 52.742188 4.839844 52.59375 5.128906 52.359375 5.375 C 52.121094 5.625 51.839844 5.796875 51.507812 5.894531 C 51.261719 5.960938 50.960938 6 50.609375 6 C 50.261719 6 49.9375 5.96875 49.644531 5.914062 C 49.351562 5.859375 49.152344 5.773438 49.046875 5.660156 C 49.011719 5.625 48.992188 5.570312 48.992188 5.484375 C 48.988281 5.402344 48.988281 5.351562 48.988281 5.339844 C 48.988281 5.203125 49 5.042969 49.03125 4.859375 C 49.050781 4.664062 49.070312 4.566406 49.089844 4.566406 C 49.097656 4.566406 49.109375 4.574219 49.125 4.589844 C 49.140625 4.605469 49.167969 4.613281 49.203125 4.613281 C 49.214844 4.613281 49.226562 4.613281 49.238281 4.613281 C 49.285156 4.613281 49.410156 4.628906 49.617188 4.664062 C 49.835938 4.710938 50.105469 4.734375 50.425781 4.734375 C 50.667969 4.734375 50.820312 4.730469 50.882812 4.722656 C 50.945312 4.714844 51.015625 4.6875 51.097656 4.644531 C 51.191406 4.597656 51.269531 4.535156 51.332031 4.457031 C 51.390625 4.378906 51.425781 4.289062 51.4375 4.191406 C 51.4375 4.175781 51.4375 4.160156 51.4375 4.140625 C 51.4375 4.117188 51.433594 4.09375 51.425781 4.070312 C 51.421875 4.042969 51.394531 4.003906 51.351562 3.945312 C 51.28125 3.863281 51.1875 3.792969 51.070312 3.734375 C 50.949219 3.679688 50.730469 3.601562 50.414062 3.511719 C 50.054688 3.390625 49.820312 3.308594 49.71875 3.257812 C 49.621094 3.207031 49.515625 3.125 49.402344 3.019531 C 49.292969 2.90625 49.207031 2.800781 49.148438 2.699219 C 49.046875 2.5 48.988281 2.324219 48.980469 2.175781 C 48.972656 2.023438 48.96875 1.917969 48.96875 1.863281 C 48.96875 1.664062 49 1.457031 49.0625 1.238281 C 49.128906 1.015625 49.234375 0.824219 49.378906 0.664062 C 49.464844 0.574219 49.605469 0.484375 49.800781 0.398438 C 49.996094 0.308594 50.183594 0.246094 50.363281 0.210938 Z M 50.363281 0.210938 "/>
</g>
</svg>
