<svg xmlns="http://www.w3.org/2000/svg" xmlns:xlink="http://www.w3.org/1999/xlink" zoomAndPan="magnify" preserveAspectRatio="xMidYMid meet" version="1.0" viewBox="13.17 17.35 197.75 22.11"><defs><g></g></defs><g fill="#000000" fill-opacity="1"><g transform="translate(11.072462, 39.19034)"><g><path d="M 2.1875 -19.390625 L 2.234375 -20.796875 L 15.890625 -20.796875 L 15.890625 -19.03125 C 15.890625 -17.875 15.859375 -17.226562 15.796875 -17.09375 C 15.785156 -17.007812 15.550781 -16.957031 15.09375 -16.9375 C 14.632812 -16.914062 13.523438 -16.90625 11.765625 -16.90625 L 6.75 -16.90625 L 6.75 -12.640625 C 7.382812 -12.660156 8.210938 -12.671875 9.234375 -12.671875 C 11.578125 -12.671875 13.140625 -12.640625 13.921875 -12.578125 L 15 -12.546875 L 15 -8.6875 L 11.234375 -8.71875 L 6.75 -8.71875 L 6.75 0 L 2.234375 0 L 2.15625 -0.515625 C 2.113281 -0.828125 2.09375 -3.828125 2.09375 -9.515625 C 2.09375 -15.203125 2.125 -18.492188 2.1875 -19.390625 Z M 2.1875 -19.390625 "></path></g></g></g><g fill="#000000" fill-opacity="1"><g transform="translate(28.755889, 39.19034)"><g><path d="M 3.046875 -20.796875 C 3.398438 -20.953125 3.789062 -21.03125 4.21875 -21.03125 C 4.414062 -21.03125 4.738281 -20.992188 5.1875 -20.921875 C 5.632812 -20.859375 6.003906 -20.632812 6.296875 -20.25 C 6.503906 -19.988281 6.613281 -19.734375 6.625 -19.484375 C 6.644531 -19.242188 6.65625 -19.09375 6.65625 -19.03125 C 6.65625 -18.6875 6.585938 -18.394531 6.453125 -18.15625 C 6.191406 -17.6875 5.832031 -17.378906 5.375 -17.234375 C 4.914062 -17.097656 4.539062 -17.03125 4.25 -17.03125 C 3.925781 -17.03125 3.613281 -17.078125 3.3125 -17.171875 C 2.9375 -17.335938 2.625 -17.582031 2.375 -17.90625 C 2.125 -18.238281 1.992188 -18.503906 1.984375 -18.703125 C 1.972656 -18.898438 1.96875 -19.007812 1.96875 -19.03125 C 1.96875 -19.363281 2.054688 -19.695312 2.234375 -20.03125 C 2.421875 -20.363281 2.691406 -20.617188 3.046875 -20.796875 Z M 2.125 -14.609375 L 2.15625 -15.203125 L 2.5625 -15.140625 C 2.863281 -15.109375 3.550781 -15.09375 4.625 -15.09375 L 6.484375 -15.09375 L 6.515625 -8.609375 C 6.515625 -4.179688 6.484375 -1.671875 6.421875 -1.078125 L 6.359375 0 L 4.15625 0.03125 C 3.769531 0.0507812 3.453125 0.0625 3.203125 0.0625 C 2.941406 0.0625 2.695312 0.0507812 2.46875 0.03125 C 2.238281 0.0078125 2.113281 -0.03125 2.09375 -0.09375 C 2.050781 -0.1875 2.03125 -2.539062 2.03125 -7.15625 C 2.03125 -11.78125 2.0625 -14.265625 2.125 -14.609375 Z M 2.125 -14.609375 "></path></g></g></g><g fill="#000000" fill-opacity="1"><g transform="translate(37.985917, 39.19034)"><g><path d="M 2.546875 -21.8125 C 2.679688 -21.832031 3.316406 -21.84375 4.453125 -21.84375 L 6.09375 -21.8125 L 6.09375 0.265625 L 4.328125 0.265625 C 3.140625 0.265625 2.460938 0.21875 2.296875 0.125 L 2.0625 -0.03125 L 2.0625 -10.546875 C 2.0625 -17.378906 2.082031 -20.882812 2.125 -21.0625 C 2.175781 -21.238281 2.253906 -21.328125 2.359375 -21.328125 C 2.441406 -21.328125 2.484375 -21.335938 2.484375 -21.359375 C 2.484375 -21.378906 2.460938 -21.410156 2.421875 -21.453125 C 2.335938 -21.523438 2.296875 -21.59375 2.296875 -21.65625 C 2.296875 -21.65625 2.300781 -21.671875 2.3125 -21.703125 C 2.320312 -21.734375 2.398438 -21.769531 2.546875 -21.8125 Z M 2.546875 -21.8125 "></path></g></g></g><g fill="#000000" fill-opacity="1"><g transform="translate(46.797758, 39.19034)"><g><path d="M 6.546875 -15.109375 C 7.078125 -15.234375 7.582031 -15.300781 8.0625 -15.3125 C 8.539062 -15.320312 8.820312 -15.328125 8.90625 -15.328125 C 9.695312 -15.328125 10.300781 -15.265625 10.71875 -15.140625 C 11.820312 -14.867188 12.707031 -14.394531 13.375 -13.71875 C 14.039062 -13.039062 14.453125 -12.203125 14.609375 -11.203125 C 14.691406 -10.679688 14.742188 -8.75 14.765625 -5.40625 L 14.78125 -0.328125 L 14.453125 -0.203125 C 14.273438 -0.148438 13.957031 -0.117188 13.5 -0.109375 C 13.039062 -0.0976562 12.742188 -0.09375 12.609375 -0.09375 C 12.148438 -0.09375 11.8125 -0.113281 11.59375 -0.15625 C 11.445312 -0.164062 11.34375 -0.21875 11.28125 -0.3125 C 11.226562 -0.40625 11.144531 -0.582031 11.03125 -0.84375 C 10.882812 -1.21875 10.8125 -1.472656 10.8125 -1.609375 C 10.8125 -1.734375 10.789062 -1.796875 10.75 -1.796875 C 10.695312 -1.796875 10.53125 -1.664062 10.25 -1.40625 C 9.925781 -1.101562 9.539062 -0.820312 9.09375 -0.5625 C 8.644531 -0.300781 8.222656 -0.113281 7.828125 0 C 7.367188 0.132812 6.75 0.203125 5.96875 0.203125 C 5.914062 0.203125 5.664062 0.195312 5.21875 0.1875 C 4.769531 0.175781 4.351562 0.101562 3.96875 -0.03125 C 2.019531 -0.800781 1.046875 -2.285156 1.046875 -4.484375 C 1.046875 -4.503906 1.046875 -4.523438 1.046875 -4.546875 C 1.046875 -5.316406 1.148438 -5.9375 1.359375 -6.40625 C 1.566406 -6.875 1.941406 -7.378906 2.484375 -7.921875 C 2.796875 -8.210938 3.0625 -8.429688 3.28125 -8.578125 C 3.5 -8.734375 3.800781 -8.878906 4.1875 -9.015625 C 5.300781 -9.472656 6.84375 -9.703125 8.8125 -9.703125 C 9.53125 -9.703125 9.960938 -9.710938 10.109375 -9.734375 C 10.265625 -9.753906 10.34375 -9.804688 10.34375 -9.890625 C 10.34375 -10.203125 10.207031 -10.523438 9.9375 -10.859375 C 9.664062 -11.203125 9.34375 -11.445312 8.96875 -11.59375 C 8.644531 -11.707031 8.253906 -11.765625 7.796875 -11.765625 C 7.679688 -11.765625 7.4375 -11.753906 7.0625 -11.734375 C 6.695312 -11.722656 6.222656 -11.613281 5.640625 -11.40625 C 4.941406 -11.1875 4.554688 -11.066406 4.484375 -11.046875 C 4.421875 -11.046875 4.359375 -11.125 4.296875 -11.28125 C 4.242188 -11.445312 4.164062 -11.71875 4.0625 -12.09375 C 3.882812 -12.875 3.796875 -13.375 3.796875 -13.59375 C 3.796875 -13.675781 3.796875 -13.734375 3.796875 -13.765625 C 3.796875 -13.890625 3.8125 -13.972656 3.84375 -14.015625 C 3.875 -14.066406 3.988281 -14.164062 4.1875 -14.3125 C 4.695312 -14.570312 5.484375 -14.835938 6.546875 -15.109375 Z M 10.34375 -4.84375 L 10.34375 -6.453125 L 9.203125 -6.421875 C 8.503906 -6.421875 7.972656 -6.390625 7.609375 -6.328125 C 7.253906 -6.273438 6.921875 -6.164062 6.609375 -6 C 6.148438 -5.738281 5.878906 -5.460938 5.796875 -5.171875 C 5.710938 -4.890625 5.671875 -4.691406 5.671875 -4.578125 C 5.671875 -4.273438 5.789062 -4.023438 6.03125 -3.828125 C 6.351562 -3.503906 6.78125 -3.34375 7.3125 -3.34375 C 7.457031 -3.34375 7.757812 -3.378906 8.21875 -3.453125 C 8.675781 -3.523438 9.191406 -3.828125 9.765625 -4.359375 Z M 10.34375 -4.84375 "></path></g></g></g><g fill="#000000" fill-opacity="1"><g transform="translate(63.465581, 39.19034)"><g><path d="M 8.6875 -14.96875 C 9.582031 -15.269531 10.546875 -15.335938 11.578125 -15.171875 C 12.617188 -15.015625 13.566406 -14.578125 14.421875 -13.859375 L 15 -13.390625 L 15.453125 -13.828125 C 15.703125 -14.085938 16.132812 -14.367188 16.75 -14.671875 C 17.375 -14.984375 17.894531 -15.179688 18.3125 -15.265625 C 18.75 -15.367188 19.332031 -15.414062 20.0625 -15.40625 C 20.789062 -15.394531 21.34375 -15.335938 21.71875 -15.234375 C 22.9375 -14.929688 23.910156 -14.382812 24.640625 -13.59375 C 25.023438 -13.175781 25.304688 -12.757812 25.484375 -12.34375 C 25.660156 -11.9375 25.800781 -11.394531 25.90625 -10.71875 C 25.957031 -10.144531 25.984375 -8.300781 25.984375 -5.1875 C 25.984375 -2.070312 25.957031 -0.453125 25.90625 -0.328125 C 25.863281 -0.242188 25.703125 -0.191406 25.421875 -0.171875 C 25.140625 -0.160156 24.625 -0.144531 23.875 -0.125 C 22.550781 -0.101562 21.8125 -0.128906 21.65625 -0.203125 L 21.359375 -0.296875 L 21.296875 -4.84375 C 21.296875 -4.894531 21.296875 -4.972656 21.296875 -5.078125 C 21.296875 -7.367188 21.265625 -8.738281 21.203125 -9.1875 C 21.148438 -9.632812 20.972656 -10.054688 20.671875 -10.453125 C 20.410156 -10.773438 20.035156 -10.988281 19.546875 -11.09375 C 19.066406 -11.207031 18.578125 -11.191406 18.078125 -11.046875 C 17.773438 -10.972656 17.460938 -10.78125 17.140625 -10.46875 C 16.828125 -10.164062 16.601562 -9.820312 16.46875 -9.4375 C 16.363281 -9.15625 16.300781 -8.78125 16.28125 -8.3125 C 16.257812 -7.851562 16.25 -6.613281 16.25 -4.59375 C 16.25 -1.769531 16.21875 -0.296875 16.15625 -0.171875 C 16.132812 -0.078125 16.03125 -0.0234375 15.84375 -0.015625 C 15.65625 -0.00390625 15.222656 0 14.546875 0 C 13.429688 -0.0195312 12.6875 -0.0507812 12.3125 -0.09375 L 11.65625 -0.15625 L 11.59375 -4.6875 C 11.59375 -4.75 11.59375 -4.828125 11.59375 -4.921875 C 11.550781 -7.316406 11.5 -8.75 11.4375 -9.21875 C 11.382812 -9.6875 11.164062 -10.117188 10.78125 -10.515625 C 10.34375 -10.953125 9.828125 -11.171875 9.234375 -11.171875 C 8.710938 -11.171875 8.253906 -11.007812 7.859375 -10.6875 C 7.460938 -10.375 7.15625 -9.921875 6.9375 -9.328125 C 6.789062 -9.023438 6.707031 -8.648438 6.6875 -8.203125 C 6.664062 -7.753906 6.640625 -6.546875 6.609375 -4.578125 C 6.546875 -1.804688 6.472656 -0.378906 6.390625 -0.296875 C 6.316406 -0.210938 5.664062 -0.148438 4.4375 -0.109375 C 3.207031 -0.078125 2.457031 -0.09375 2.1875 -0.15625 L 1.9375 -0.203125 L 1.9375 -7.53125 C 1.9375 -11.132812 1.945312 -13.257812 1.96875 -13.90625 C 1.988281 -14.550781 2.050781 -14.90625 2.15625 -14.96875 C 2.269531 -15.03125 3.003906 -15.050781 4.359375 -15.03125 L 6.328125 -15 L 6.421875 -14.25 L 6.546875 -13.53125 L 6.84375 -13.984375 C 7.28125 -14.359375 7.894531 -14.6875 8.6875 -14.96875 Z M 8.6875 -14.96875 "></path></g></g></g><g fill="#000000" fill-opacity="1"><g transform="translate(91.275172, 39.19034)"><g><path d="M 6.84375 -15.140625 C 7.5625 -15.304688 8.25 -15.390625 8.90625 -15.390625 C 9.457031 -15.390625 10.15625 -15.296875 11 -15.109375 C 11.851562 -14.929688 12.648438 -14.503906 13.390625 -13.828125 C 14.066406 -13.210938 14.539062 -12.535156 14.8125 -11.796875 C 15.09375 -11.054688 15.253906 -10.050781 15.296875 -8.78125 C 15.316406 -8.363281 15.328125 -8.003906 15.328125 -7.703125 C 15.328125 -7.265625 15.304688 -6.976562 15.265625 -6.84375 C 15.222656 -6.644531 15.175781 -6.523438 15.125 -6.484375 C 15.082031 -6.441406 14.953125 -6.421875 14.734375 -6.421875 C 14.410156 -6.421875 13.488281 -6.34375 11.96875 -6.1875 C 10.457031 -6.039062 9.117188 -5.96875 7.953125 -5.96875 L 6.1875 -5.96875 L 6.28125 -5.671875 C 6.414062 -5.117188 6.785156 -4.644531 7.390625 -4.25 C 8.003906 -3.863281 8.6875 -3.671875 9.4375 -3.671875 C 10.351562 -3.671875 11.191406 -3.976562 11.953125 -4.59375 C 12.285156 -4.875 12.492188 -5.015625 12.578125 -5.015625 C 12.640625 -5.015625 13.0625 -4.601562 13.84375 -3.78125 C 14.632812 -2.957031 15.039062 -2.492188 15.0625 -2.390625 C 15.0625 -2.390625 15.0625 -2.378906 15.0625 -2.359375 C 15.0625 -2.253906 14.757812 -1.984375 14.15625 -1.546875 C 13.5625 -1.109375 13.035156 -0.78125 12.578125 -0.5625 C 11.984375 -0.289062 11.410156 -0.0859375 10.859375 0.046875 C 10.304688 0.191406 9.644531 0.265625 8.875 0.265625 C 6.976562 0.265625 5.390625 -0.210938 4.109375 -1.171875 C 2.835938 -2.140625 1.945312 -3.507812 1.4375 -5.28125 C 1.269531 -5.863281 1.1875 -6.644531 1.1875 -7.625 C 1.1875 -8.519531 1.242188 -9.242188 1.359375 -9.796875 C 1.484375 -10.359375 1.726562 -10.988281 2.09375 -11.6875 C 2.570312 -12.613281 3.195312 -13.359375 3.96875 -13.921875 C 4.75 -14.492188 5.707031 -14.898438 6.84375 -15.140625 Z M 10.0625 -11.71875 C 9.726562 -11.875 9.390625 -11.953125 9.046875 -11.953125 C 8.785156 -11.953125 8.410156 -11.867188 7.921875 -11.703125 C 7.441406 -11.546875 7.003906 -11.179688 6.609375 -10.609375 C 6.285156 -10.171875 6.125 -9.867188 6.125 -9.703125 C 6.125 -9.679688 6.132812 -9.632812 6.15625 -9.5625 C 6.175781 -9.5 6.484375 -9.46875 7.078125 -9.46875 C 7.640625 -9.46875 8.503906 -9.507812 9.671875 -9.59375 C 10.847656 -9.6875 11.445312 -9.742188 11.46875 -9.765625 C 11.488281 -9.785156 11.5 -9.828125 11.5 -9.890625 C 11.5 -9.984375 11.421875 -10.1875 11.265625 -10.5 C 11.117188 -10.8125 10.976562 -11.046875 10.84375 -11.203125 C 10.664062 -11.378906 10.40625 -11.550781 10.0625 -11.71875 Z M 10.0625 -11.71875 "></path></g></g></g><g fill="#000000" fill-opacity="1"><g transform="translate(108.241712, 39.19034)"><g><path d="M 8.84375 -15.140625 C 9.164062 -15.242188 9.71875 -15.296875 10.5 -15.296875 C 11.289062 -15.296875 11.90625 -15.242188 12.34375 -15.140625 C 13.257812 -14.921875 14.03125 -14.519531 14.65625 -13.9375 C 15.28125 -13.351562 15.722656 -12.613281 15.984375 -11.71875 C 16.066406 -11.476562 16.117188 -10.96875 16.140625 -10.1875 C 16.171875 -9.40625 16.195312 -7.898438 16.21875 -5.671875 L 16.25 0 L 11.921875 0 L 11.859375 -9.59375 L 11.53125 -10.28125 C 11.226562 -10.851562 10.867188 -11.234375 10.453125 -11.421875 C 10.035156 -11.617188 9.648438 -11.71875 9.296875 -11.71875 C 9.078125 -11.71875 8.847656 -11.6875 8.609375 -11.625 C 7.867188 -11.425781 7.300781 -11.003906 6.90625 -10.359375 L 6.546875 -9.828125 L 6.453125 -5.015625 C 6.429688 -1.691406 6.410156 -0.03125 6.390625 -0.03125 C 6.367188 -0.0078125 5.644531 0 4.21875 0 L 2.0625 0 L 2 -7.53125 C 1.976562 -10.789062 1.96875 -12.972656 1.96875 -14.078125 C 1.96875 -14.628906 1.96875 -14.90625 1.96875 -14.90625 C 2.007812 -14.945312 2.40625 -14.984375 3.15625 -15.015625 C 3.914062 -15.046875 4.46875 -15.0625 4.8125 -15.0625 C 5.164062 -15.0625 5.429688 -15.050781 5.609375 -15.03125 L 6.484375 -14.9375 L 6.484375 -13.40625 L 6.953125 -13.921875 C 7.492188 -14.492188 8.125 -14.898438 8.84375 -15.140625 Z M 8.84375 -15.140625 "></path></g></g></g><g fill="#000000" fill-opacity="1"><g transform="translate(127.030353, 39.19034)"><g><path d="M 3.21875 -18.21875 C 3.320312 -18.300781 4.007812 -18.34375 5.28125 -18.34375 L 5.3125 -18.34375 C 5.332031 -18.34375 5.34375 -18.34375 5.34375 -18.34375 L 5.796875 -18.34375 C 6.566406 -18.34375 7.007812 -18.285156 7.125 -18.171875 C 7.25 -18.066406 7.3125 -17.664062 7.3125 -16.96875 L 7.3125 -16.90625 C 7.3125 -16.882812 7.3125 -16.863281 7.3125 -16.84375 L 7.3125 -16.8125 C 7.3125 -16.800781 7.3125 -16.796875 7.3125 -16.796875 L 7.3125 -16.765625 C 7.3125 -16.742188 7.3125 -16.734375 7.3125 -16.734375 L 7.3125 -16.546875 C 7.3125 -16.546875 7.3125 -16.535156 7.3125 -16.515625 L 7.3125 -15.109375 L 9.046875 -15.109375 C 10.203125 -15.109375 10.84375 -15.070312 10.96875 -15 C 11.039062 -14.957031 11.085938 -14.859375 11.109375 -14.703125 C 11.128906 -14.554688 11.140625 -14.382812 11.140625 -14.1875 C 11.140625 -13.988281 11.128906 -13.738281 11.109375 -13.4375 C 11.109375 -12.488281 11.0625 -11.960938 10.96875 -11.859375 C 10.925781 -11.773438 10.773438 -11.722656 10.515625 -11.703125 C 10.253906 -11.691406 9.773438 -11.6875 9.078125 -11.6875 L 7.3125 -11.6875 L 7.3125 -8.28125 C 7.3125 -6.957031 7.320312 -6.03125 7.34375 -5.5 C 7.363281 -4.976562 7.414062 -4.597656 7.5 -4.359375 C 7.582031 -4.117188 7.710938 -3.921875 7.890625 -3.765625 C 8.128906 -3.566406 8.328125 -3.457031 8.484375 -3.4375 C 8.640625 -3.414062 8.75 -3.40625 8.8125 -3.40625 C 9.050781 -3.40625 9.335938 -3.457031 9.671875 -3.5625 C 10.035156 -3.65625 10.265625 -3.703125 10.359375 -3.703125 C 10.398438 -3.703125 10.421875 -3.703125 10.421875 -3.703125 C 10.460938 -3.660156 10.535156 -3.640625 10.640625 -3.640625 C 10.773438 -3.640625 10.9375 -3.421875 11.125 -2.984375 C 11.3125 -2.546875 11.425781 -2.140625 11.46875 -1.765625 L 11.5625 -1.109375 L 11 -0.75 C 10.195312 -0.25 9.460938 0.0234375 8.796875 0.078125 C 8.128906 0.128906 7.695312 0.15625 7.5 0.15625 C 6.625 0.15625 5.835938 -0.00390625 5.140625 -0.328125 C 4.796875 -0.484375 4.441406 -0.75 4.078125 -1.125 C 3.710938 -1.507812 3.457031 -1.867188 3.3125 -2.203125 C 3.15625 -2.585938 3.050781 -3.070312 3 -3.65625 C 2.945312 -4.25 2.921875 -4.992188 2.921875 -5.890625 C 2.921875 -6.503906 2.929688 -7.207031 2.953125 -8 L 3.015625 -11.6875 L 0.328125 -11.6875 L 0.265625 -11.984375 C 0.242188 -12.054688 0.234375 -12.210938 0.234375 -12.453125 C 0.234375 -12.710938 0.25 -13.160156 0.28125 -13.796875 C 0.3125 -14.441406 0.359375 -14.832031 0.421875 -14.96875 C 0.441406 -15.03125 0.539062 -15.066406 0.71875 -15.078125 C 0.894531 -15.097656 1.234375 -15.109375 1.734375 -15.109375 L 2.953125 -15.109375 L 3.015625 -16.640625 C 3.035156 -17.210938 3.054688 -17.609375 3.078125 -17.828125 C 3.097656 -18.046875 3.144531 -18.175781 3.21875 -18.21875 Z M 3.21875 -18.21875 "></path></g></g></g><g fill="#ff914d" fill-opacity="1"><g transform="translate(139.28305, 39.19034)"><g></g></g></g><g fill="#ffb133" fill-opacity="1"><g transform="translate(144.536528, 39.19034)"><g><path d="M 6.390625 -21.0625 C 6.785156 -21.125 7.691406 -21.15625 9.109375 -21.15625 C 10.046875 -21.132812 10.675781 -21.101562 11 -21.0625 C 11.332031 -21.019531 11.71875 -20.921875 12.15625 -20.765625 C 13.550781 -20.347656 14.316406 -19.929688 14.453125 -19.515625 C 14.492188 -19.367188 14.515625 -19.265625 14.515625 -19.203125 C 14.515625 -19.191406 14.515625 -19.175781 14.515625 -19.15625 C 14.472656 -19.09375 14.332031 -18.503906 14.09375 -17.390625 C 13.863281 -16.253906 13.726562 -15.65625 13.6875 -15.59375 C 13.6875 -15.570312 13.65625 -15.5625 13.59375 -15.5625 C 13.457031 -15.5625 13.097656 -15.703125 12.515625 -15.984375 C 11.859375 -16.304688 11.28125 -16.53125 10.78125 -16.65625 C 10.28125 -16.78125 9.765625 -16.84375 9.234375 -16.84375 C 8.097656 -16.84375 7.269531 -16.566406 6.75 -16.015625 C 6.488281 -15.710938 6.351562 -15.492188 6.34375 -15.359375 C 6.332031 -15.234375 6.328125 -15.171875 6.328125 -15.171875 C 6.328125 -14.910156 6.46875 -14.632812 6.75 -14.34375 C 6.96875 -14.0625 7.273438 -13.832031 7.671875 -13.65625 C 8.078125 -13.476562 8.828125 -13.226562 9.921875 -12.90625 C 10.992188 -12.582031 11.671875 -12.34375 11.953125 -12.1875 C 12.671875 -11.882812 13.363281 -11.40625 14.03125 -10.75 C 14.695312 -10.09375 15.128906 -9.488281 15.328125 -8.9375 C 15.484375 -8.519531 15.578125 -8.050781 15.609375 -7.53125 C 15.640625 -7.007812 15.65625 -6.628906 15.65625 -6.390625 C 15.65625 -5.929688 15.625 -5.535156 15.5625 -5.203125 C 15.320312 -4.003906 14.757812 -2.945312 13.875 -2.03125 C 12.988281 -1.113281 11.925781 -0.476562 10.6875 -0.125 C 9.757812 0.132812 8.632812 0.265625 7.3125 0.265625 C 6 0.265625 4.789062 0.160156 3.6875 -0.046875 C 2.582031 -0.253906 1.832031 -0.566406 1.4375 -0.984375 C 1.3125 -1.109375 1.242188 -1.320312 1.234375 -1.625 C 1.222656 -1.9375 1.21875 -2.113281 1.21875 -2.15625 C 1.21875 -2.664062 1.269531 -3.257812 1.375 -3.9375 C 1.457031 -4.65625 1.535156 -5.015625 1.609375 -5.015625 C 1.628906 -5.015625 1.671875 -4.984375 1.734375 -4.921875 C 1.796875 -4.867188 1.894531 -4.84375 2.03125 -4.84375 C 2.070312 -4.84375 2.113281 -4.84375 2.15625 -4.84375 C 2.332031 -4.84375 2.804688 -4.78125 3.578125 -4.65625 C 4.398438 -4.476562 5.414062 -4.390625 6.625 -4.390625 C 7.53125 -4.390625 8.097656 -4.40625 8.328125 -4.4375 C 8.566406 -4.46875 8.835938 -4.5625 9.140625 -4.71875 C 9.492188 -4.894531 9.785156 -5.128906 10.015625 -5.421875 C 10.242188 -5.710938 10.378906 -6.035156 10.421875 -6.390625 C 10.421875 -6.453125 10.421875 -6.515625 10.421875 -6.578125 C 10.421875 -6.671875 10.40625 -6.757812 10.375 -6.84375 C 10.351562 -6.9375 10.257812 -7.085938 10.09375 -7.296875 C 9.832031 -7.609375 9.476562 -7.867188 9.03125 -8.078125 C 8.582031 -8.285156 7.765625 -8.5625 6.578125 -8.90625 C 5.222656 -9.34375 4.351562 -9.648438 3.96875 -9.828125 C 3.59375 -10.023438 3.195312 -10.320312 2.78125 -10.71875 C 2.363281 -11.125 2.046875 -11.515625 1.828125 -11.890625 C 1.441406 -12.628906 1.226562 -13.273438 1.1875 -13.828125 C 1.15625 -14.390625 1.140625 -14.769531 1.140625 -14.96875 C 1.140625 -15.707031 1.257812 -16.476562 1.5 -17.28125 C 1.75 -18.09375 2.144531 -18.796875 2.6875 -19.390625 C 3.007812 -19.722656 3.535156 -20.050781 4.265625 -20.375 C 5.003906 -20.707031 5.710938 -20.9375 6.390625 -21.0625 Z M 6.390625 -21.0625 "></path></g></g></g><g fill="#ffb133" fill-opacity="1"><g transform="translate(161.921253, 39.19034)"><g><path d="M 6.546875 -15.109375 C 7.078125 -15.234375 7.582031 -15.300781 8.0625 -15.3125 C 8.539062 -15.320312 8.820312 -15.328125 8.90625 -15.328125 C 9.695312 -15.328125 10.300781 -15.265625 10.71875 -15.140625 C 11.820312 -14.867188 12.707031 -14.394531 13.375 -13.71875 C 14.039062 -13.039062 14.453125 -12.203125 14.609375 -11.203125 C 14.691406 -10.679688 14.742188 -8.75 14.765625 -5.40625 L 14.78125 -0.328125 L 14.453125 -0.203125 C 14.273438 -0.148438 13.957031 -0.117188 13.5 -0.109375 C 13.039062 -0.0976562 12.742188 -0.09375 12.609375 -0.09375 C 12.148438 -0.09375 11.8125 -0.113281 11.59375 -0.15625 C 11.445312 -0.164062 11.34375 -0.21875 11.28125 -0.3125 C 11.226562 -0.40625 11.144531 -0.582031 11.03125 -0.84375 C 10.882812 -1.21875 10.8125 -1.472656 10.8125 -1.609375 C 10.8125 -1.734375 10.789062 -1.796875 10.75 -1.796875 C 10.695312 -1.796875 10.53125 -1.664062 10.25 -1.40625 C 9.925781 -1.101562 9.539062 -0.820312 9.09375 -0.5625 C 8.644531 -0.300781 8.222656 -0.113281 7.828125 0 C 7.367188 0.132812 6.75 0.203125 5.96875 0.203125 C 5.914062 0.203125 5.664062 0.195312 5.21875 0.1875 C 4.769531 0.175781 4.351562 0.101562 3.96875 -0.03125 C 2.019531 -0.800781 1.046875 -2.285156 1.046875 -4.484375 C 1.046875 -4.503906 1.046875 -4.523438 1.046875 -4.546875 C 1.046875 -5.316406 1.148438 -5.9375 1.359375 -6.40625 C 1.566406 -6.875 1.941406 -7.378906 2.484375 -7.921875 C 2.796875 -8.210938 3.0625 -8.429688 3.28125 -8.578125 C 3.5 -8.734375 3.800781 -8.878906 4.1875 -9.015625 C 5.300781 -9.472656 6.84375 -9.703125 8.8125 -9.703125 C 9.53125 -9.703125 9.960938 -9.710938 10.109375 -9.734375 C 10.265625 -9.753906 10.34375 -9.804688 10.34375 -9.890625 C 10.34375 -10.203125 10.207031 -10.523438 9.9375 -10.859375 C 9.664062 -11.203125 9.34375 -11.445312 8.96875 -11.59375 C 8.644531 -11.707031 8.253906 -11.765625 7.796875 -11.765625 C 7.679688 -11.765625 7.4375 -11.753906 7.0625 -11.734375 C 6.695312 -11.722656 6.222656 -11.613281 5.640625 -11.40625 C 4.941406 -11.1875 4.554688 -11.066406 4.484375 -11.046875 C 4.421875 -11.046875 4.359375 -11.125 4.296875 -11.28125 C 4.242188 -11.445312 4.164062 -11.71875 4.0625 -12.09375 C 3.882812 -12.875 3.796875 -13.375 3.796875 -13.59375 C 3.796875 -13.675781 3.796875 -13.734375 3.796875 -13.765625 C 3.796875 -13.890625 3.8125 -13.972656 3.84375 -14.015625 C 3.875 -14.066406 3.988281 -14.164062 4.1875 -14.3125 C 4.695312 -14.570312 5.484375 -14.835938 6.546875 -15.109375 Z M 10.34375 -4.84375 L 10.34375 -6.453125 L 9.203125 -6.421875 C 8.503906 -6.421875 7.972656 -6.390625 7.609375 -6.328125 C 7.253906 -6.273438 6.921875 -6.164062 6.609375 -6 C 6.148438 -5.738281 5.878906 -5.460938 5.796875 -5.171875 C 5.710938 -4.890625 5.671875 -4.691406 5.671875 -4.578125 C 5.671875 -4.273438 5.789062 -4.023438 6.03125 -3.828125 C 6.351562 -3.503906 6.78125 -3.34375 7.3125 -3.34375 C 7.457031 -3.34375 7.757812 -3.378906 8.21875 -3.453125 C 8.675781 -3.523438 9.191406 -3.828125 9.765625 -4.359375 Z M 10.34375 -4.84375 "></path></g></g></g><g fill="#ffb133" fill-opacity="1"><g transform="translate(178.589076, 39.19034)"><g><path d="M 6.546875 -15.109375 C 7.078125 -15.234375 7.582031 -15.300781 8.0625 -15.3125 C 8.539062 -15.320312 8.820312 -15.328125 8.90625 -15.328125 C 9.695312 -15.328125 10.300781 -15.265625 10.71875 -15.140625 C 11.820312 -14.867188 12.707031 -14.394531 13.375 -13.71875 C 14.039062 -13.039062 14.453125 -12.203125 14.609375 -11.203125 C 14.691406 -10.679688 14.742188 -8.75 14.765625 -5.40625 L 14.78125 -0.328125 L 14.453125 -0.203125 C 14.273438 -0.148438 13.957031 -0.117188 13.5 -0.109375 C 13.039062 -0.0976562 12.742188 -0.09375 12.609375 -0.09375 C 12.148438 -0.09375 11.8125 -0.113281 11.59375 -0.15625 C 11.445312 -0.164062 11.34375 -0.21875 11.28125 -0.3125 C 11.226562 -0.40625 11.144531 -0.582031 11.03125 -0.84375 C 10.882812 -1.21875 10.8125 -1.472656 10.8125 -1.609375 C 10.8125 -1.734375 10.789062 -1.796875 10.75 -1.796875 C 10.695312 -1.796875 10.53125 -1.664062 10.25 -1.40625 C 9.925781 -1.101562 9.539062 -0.820312 9.09375 -0.5625 C 8.644531 -0.300781 8.222656 -0.113281 7.828125 0 C 7.367188 0.132812 6.75 0.203125 5.96875 0.203125 C 5.914062 0.203125 5.664062 0.195312 5.21875 0.1875 C 4.769531 0.175781 4.351562 0.101562 3.96875 -0.03125 C 2.019531 -0.800781 1.046875 -2.285156 1.046875 -4.484375 C 1.046875 -4.503906 1.046875 -4.523438 1.046875 -4.546875 C 1.046875 -5.316406 1.148438 -5.9375 1.359375 -6.40625 C 1.566406 -6.875 1.941406 -7.378906 2.484375 -7.921875 C 2.796875 -8.210938 3.0625 -8.429688 3.28125 -8.578125 C 3.5 -8.734375 3.800781 -8.878906 4.1875 -9.015625 C 5.300781 -9.472656 6.84375 -9.703125 8.8125 -9.703125 C 9.53125 -9.703125 9.960938 -9.710938 10.109375 -9.734375 C 10.265625 -9.753906 10.34375 -9.804688 10.34375 -9.890625 C 10.34375 -10.203125 10.207031 -10.523438 9.9375 -10.859375 C 9.664062 -11.203125 9.34375 -11.445312 8.96875 -11.59375 C 8.644531 -11.707031 8.253906 -11.765625 7.796875 -11.765625 C 7.679688 -11.765625 7.4375 -11.753906 7.0625 -11.734375 C 6.695312 -11.722656 6.222656 -11.613281 5.640625 -11.40625 C 4.941406 -11.1875 4.554688 -11.066406 4.484375 -11.046875 C 4.421875 -11.046875 4.359375 -11.125 4.296875 -11.28125 C 4.242188 -11.445312 4.164062 -11.71875 4.0625 -12.09375 C 3.882812 -12.875 3.796875 -13.375 3.796875 -13.59375 C 3.796875 -13.675781 3.796875 -13.734375 3.796875 -13.765625 C 3.796875 -13.890625 3.8125 -13.972656 3.84375 -14.015625 C 3.875 -14.066406 3.988281 -14.164062 4.1875 -14.3125 C 4.695312 -14.570312 5.484375 -14.835938 6.546875 -15.109375 Z M 10.34375 -4.84375 L 10.34375 -6.453125 L 9.203125 -6.421875 C 8.503906 -6.421875 7.972656 -6.390625 7.609375 -6.328125 C 7.253906 -6.273438 6.921875 -6.164062 6.609375 -6 C 6.148438 -5.738281 5.878906 -5.460938 5.796875 -5.171875 C 5.710938 -4.890625 5.671875 -4.691406 5.671875 -4.578125 C 5.671875 -4.273438 5.789062 -4.023438 6.03125 -3.828125 C 6.351562 -3.503906 6.78125 -3.34375 7.3125 -3.34375 C 7.457031 -3.34375 7.757812 -3.378906 8.21875 -3.453125 C 8.675781 -3.523438 9.191406 -3.828125 9.765625 -4.359375 Z M 10.34375 -4.84375 "></path></g></g></g><g fill="#ffb133" fill-opacity="1"><g transform="translate(195.256896, 39.19034)"><g><path d="M 6.390625 -21.0625 C 6.785156 -21.125 7.691406 -21.15625 9.109375 -21.15625 C 10.046875 -21.132812 10.675781 -21.101562 11 -21.0625 C 11.332031 -21.019531 11.71875 -20.921875 12.15625 -20.765625 C 13.550781 -20.347656 14.316406 -19.929688 14.453125 -19.515625 C 14.492188 -19.367188 14.515625 -19.265625 14.515625 -19.203125 C 14.515625 -19.191406 14.515625 -19.175781 14.515625 -19.15625 C 14.472656 -19.09375 14.332031 -18.503906 14.09375 -17.390625 C 13.863281 -16.253906 13.726562 -15.65625 13.6875 -15.59375 C 13.6875 -15.570312 13.65625 -15.5625 13.59375 -15.5625 C 13.457031 -15.5625 13.097656 -15.703125 12.515625 -15.984375 C 11.859375 -16.304688 11.28125 -16.53125 10.78125 -16.65625 C 10.28125 -16.78125 9.765625 -16.84375 9.234375 -16.84375 C 8.097656 -16.84375 7.269531 -16.566406 6.75 -16.015625 C 6.488281 -15.710938 6.351562 -15.492188 6.34375 -15.359375 C 6.332031 -15.234375 6.328125 -15.171875 6.328125 -15.171875 C 6.328125 -14.910156 6.46875 -14.632812 6.75 -14.34375 C 6.96875 -14.0625 7.273438 -13.832031 7.671875 -13.65625 C 8.078125 -13.476562 8.828125 -13.226562 9.921875 -12.90625 C 10.992188 -12.582031 11.671875 -12.34375 11.953125 -12.1875 C 12.671875 -11.882812 13.363281 -11.40625 14.03125 -10.75 C 14.695312 -10.09375 15.128906 -9.488281 15.328125 -8.9375 C 15.484375 -8.519531 15.578125 -8.050781 15.609375 -7.53125 C 15.640625 -7.007812 15.65625 -6.628906 15.65625 -6.390625 C 15.65625 -5.929688 15.625 -5.535156 15.5625 -5.203125 C 15.320312 -4.003906 14.757812 -2.945312 13.875 -2.03125 C 12.988281 -1.113281 11.925781 -0.476562 10.6875 -0.125 C 9.757812 0.132812 8.632812 0.265625 7.3125 0.265625 C 6 0.265625 4.789062 0.160156 3.6875 -0.046875 C 2.582031 -0.253906 1.832031 -0.566406 1.4375 -0.984375 C 1.3125 -1.109375 1.242188 -1.320312 1.234375 -1.625 C 1.222656 -1.9375 1.21875 -2.113281 1.21875 -2.15625 C 1.21875 -2.664062 1.269531 -3.257812 1.375 -3.9375 C 1.457031 -4.65625 1.535156 -5.015625 1.609375 -5.015625 C 1.628906 -5.015625 1.671875 -4.984375 1.734375 -4.921875 C 1.796875 -4.867188 1.894531 -4.84375 2.03125 -4.84375 C 2.070312 -4.84375 2.113281 -4.84375 2.15625 -4.84375 C 2.332031 -4.84375 2.804688 -4.78125 3.578125 -4.65625 C 4.398438 -4.476562 5.414062 -4.390625 6.625 -4.390625 C 7.53125 -4.390625 8.097656 -4.40625 8.328125 -4.4375 C 8.566406 -4.46875 8.835938 -4.5625 9.140625 -4.71875 C 9.492188 -4.894531 9.785156 -5.128906 10.015625 -5.421875 C 10.242188 -5.710938 10.378906 -6.035156 10.421875 -6.390625 C 10.421875 -6.453125 10.421875 -6.515625 10.421875 -6.578125 C 10.421875 -6.671875 10.40625 -6.757812 10.375 -6.84375 C 10.351562 -6.9375 10.257812 -7.085938 10.09375 -7.296875 C 9.832031 -7.609375 9.476562 -7.867188 9.03125 -8.078125 C 8.582031 -8.285156 7.765625 -8.5625 6.578125 -8.90625 C 5.222656 -9.34375 4.351562 -9.648438 3.96875 -9.828125 C 3.59375 -10.023438 3.195312 -10.320312 2.78125 -10.71875 C 2.363281 -11.125 2.046875 -11.515625 1.828125 -11.890625 C 1.441406 -12.628906 1.226562 -13.273438 1.1875 -13.828125 C 1.15625 -14.390625 1.140625 -14.769531 1.140625 -14.96875 C 1.140625 -15.707031 1.257812 -16.476562 1.5 -17.28125 C 1.75 -18.09375 2.144531 -18.796875 2.6875 -19.390625 C 3.007812 -19.722656 3.535156 -20.050781 4.265625 -20.375 C 5.003906 -20.707031 5.710938 -20.9375 6.390625 -21.0625 Z M 6.390625 -21.0625 "></path></g></g></g></svg>
