<?xml version="1.0" encoding="iso-8859-1"?>
<!-- Generator: Adobe Illustrator 19.0.0, SVG Export Plug-In . SVG Version: 6.00 Build 0)  -->
<svg version="1.1" id="Layer_1" xmlns="http://www.w3.org/2000/svg" xmlns:xlink="http://www.w3.org/1999/xlink" x="0px" y="0px"
	 viewBox="0 0 497 497" style="enable-background:new 0 0 497 497;" xml:space="preserve">
<g>
	<path style="fill:#64464B;" d="M248.5,9c-57.438,0-104,16.118-104,36h208C352.5,25.118,305.938,9,248.5,9z"/>
	<path style="fill:#5073A5;" d="M377.07,121h15.424c4.619,0,8.213,3.883,7.997,8.497c-0.927,19.771-5.014,43.032-12.469,66.002
		c-1.067,3.288-4.19,5.501-7.647,5.501h-17.966C370.677,173.167,375.51,145.402,377.07,121z"/>
	<path style="fill:#5073A5;" d="M119.93,121h-15.424c-4.619,0-8.213,3.883-7.997,8.497c0.927,19.771,5.014,43.032,12.469,66.002
		c1.067,3.288,4.19,5.501,7.647,5.501h17.966C126.323,173.167,121.49,145.402,119.93,121z"/>
	<path style="fill:#FAD7A5;" d="M399.073,328.11l-64.144-18.866c-8.824-2.595-15.389-10.006-16.901-19.079l-4.43-26.581
		c31.385-28.767,46.903-76.973,46.903-118.515c0-64.065-50.144-88-112-88s-112,23.935-112,88c0,41.542,15.518,89.749,46.903,118.515
		l-4.43,26.581c-1.512,9.073-8.077,16.484-16.901,19.079L97.927,328.11C63.88,338.123,40.5,369.37,40.5,404.859V473
		c0,13.255,10.745,24,24,24h368c13.255,0,24-10.745,24-24v-68.141C456.5,369.37,433.12,338.123,399.073,328.11z"/>
	<path style="fill:#5073A5;" d="M138.992,57c10.945-25.478,56.653-41,109.508-41s98.562,15.522,109.508,41h16.917
		C365.373,21.488,313.273,0,248.5,0S131.627,21.488,122.075,57H138.992z"/>
	<path style="fill:#F0C891;" d="M367.584,318.848l-32.655-9.604c-8.824-2.595-15.389-10.006-16.901-19.079L312.5,257l-64,24l-64-24
		l-4.069,24.412C203.162,321.489,286.14,368.78,367.584,318.848z"/>
	<path style="fill:#D2D7DC;" d="M399.073,328.11L399.073,328.11c-11.276-3.317-22.573,5.137-22.573,16.89v64h-256v-64
		c0-11.754-11.297-20.207-22.573-16.89l0,0C63.88,338.124,40.5,369.37,40.5,404.859V473c0,13.255,10.745,24,24,24h184h184
		c13.255,0,24-10.745,24-24v-68.141C456.5,369.37,433.12,338.124,399.073,328.11z"/>
	<path style="fill:#5F87B9;" d="M348.5,41c-41.07,0-74.443-22.727-75.864-39.873C264.878,0.416,256.824,0,248.5,0
		c-8.324,0-16.378,0.416-24.136,1.127C222.943,18.273,189.57,41,148.5,41c-2.212,0-3.153,0-4,0c-1.378,2.597,0,5.246,0,8
		c0,22.091,46.563,40,104,40s104-17.909,104-40c0-2.754,1.378-5.403,0-8C350.869,41,350.618,41,348.5,41z"/>
	<path style="fill:#FFE1B4;" d="M360.5,145.068c0,64.065-36.889,144-112,144s-112-79.935-112-144s50.144-88,112-88
		S360.5,81.003,360.5,145.068z"/>
	<g>
		<path style="fill:#727887;" d="M248.5,289.068c-25.6,0-46.755-9.291-63.528-24.068h-22.149
			c21.435,24.325,50.435,40.068,85.677,40.068s64.242-15.743,85.677-40.068h-22.149C295.255,279.778,274.1,289.068,248.5,289.068z"
			/>
	</g>
	<path style="fill:#5F87B9;" d="M372.841,51.374C370.548,45.104,364.535,41,357.858,41H248.5H139.142
		c-6.677,0-12.69,4.104-14.983,10.374C119.421,64.33,112.5,88.773,112.5,121c0,42.832,16.309,107.016,52.117,146.715
		c3.16,3.504,7.516,5.285,11.887,5.285c3.567,0,7.143-1.185,10.091-3.586c6.932-5.647,7.379-16.865,1.424-23.535
		c-24.04-26.926-38.435-70.103-42.396-105.709c-1.113-10.001,7.133-18.535,17.167-17.763l67.303,5.177
		c12.253,0.943,24.561,0.943,36.814,0l67.303-5.177c10.033-0.772,18.28,7.762,17.167,17.763
		c-3.961,35.607-18.356,78.783-42.396,105.709c-5.955,6.669-5.508,17.888,1.424,23.535c2.948,2.401,6.525,3.586,10.091,3.586
		c4.371,0,8.727-1.781,11.887-5.285C368.191,228.016,384.5,163.832,384.5,121C384.5,88.773,377.579,64.33,372.841,51.374z"/>
	<path style="fill:#E6EBF0;" d="M358.202,306.19l-9.977,39.909c-6.891,27.564-31.657,46.9-60.069,46.9h-79.312
		c-28.412,0-53.178-19.337-60.069-46.9l-9.977-39.909c-1.329-5.314-6.283-8.906-11.747-8.515l-94.167,6.726
		c-3.993,0.285-6.416,4.536-4.625,8.117l0,0c2.536,5.071,7.171,8.764,12.663,10.17C127.079,344.745,120.5,497,120.5,497h128h128
		c0,0-6.579-152.255,79.578-174.312c5.492-1.406,10.127-5.099,12.663-10.17l0,0c1.79-3.581-0.632-7.832-4.625-8.117l-94.167-6.726
		C364.485,297.285,359.531,300.876,358.202,306.19z"/>
	<path style="fill:#5F87B9;" d="M377.972,457H119.028c2.178,23.202,1.472,40,1.472,40h128h128
		C376.5,497,375.794,480.202,377.972,457z"/>
</g>
<g>
</g>
<g>
</g>
<g>
</g>
<g>
</g>
<g>
</g>
<g>
</g>
<g>
</g>
<g>
</g>
<g>
</g>
<g>
</g>
<g>
</g>
<g>
</g>
<g>
</g>
<g>
</g>
<g>
</g>
</svg>
