<?xml version="1.0" encoding="iso-8859-1"?>
<!-- Generator: Adobe Illustrator 19.0.0, SVG Export Plug-In . SVG Version: 6.00 Build 0)  -->
<svg version="1.1" id="Layer_1" xmlns="http://www.w3.org/2000/svg" xmlns:xlink="http://www.w3.org/1999/xlink" x="0px" y="0px"
	 viewBox="0 0 497 497" style="enable-background:new 0 0 497 497;" xml:space="preserve">
<g>
	<path style="fill:#55373C;" d="M113.542,395H200.5V249h-50.83C141.598,296.531,118.697,340.039,113.542,395z"/>
	<path style="fill:#B48764;" d="M404.739,394.413l-78.358-26.119c-13.067-4.355-21.881-16.584-21.881-30.358v-28.992
		c17.09-16.121,32.479-37.674,42.78-60.57c15.756,8.991,29.22-24.067,29.22-38.643c0-10.662-6.166-16.866-16-16.702
		c0-0.01,0-0.019,0-0.029c0,0-2-66-24-72c-6.875-1.875-18.047-3.359-30.159-4.514c-38.462-3.667-77.22-3.667-115.683,0
		c-12.112,1.155-23.284,2.639-30.159,4.514c-22,6-24,72-24,72c0,0.01,0,0.019,0,0.029c-9.835-0.165-16,6.04-16,16.702
		c0,14.576,13.464,47.633,29.22,38.643c10.301,22.896,25.69,44.449,42.78,60.57v28.992c0,13.774-8.814,26.002-21.881,30.358
		L92.26,394.413c-26.133,8.711-43.76,33.168-43.76,60.715V473c0,13.255,10.745,24,24,24h352c13.255,0,24-10.745,24-24v-17.872
		C448.5,427.581,430.873,403.124,404.739,394.413z"/>
	<path style="fill:#55373C;" d="M264.5,25c0-10.75-6.327-25-24-25h-8c-17.673,0-36.333,16-40,49h72V25z"/>
	<path style="fill:#FF5F64;" d="M272.5,40h-48V25c0-4.418,3.582-8,8-8h32c4.418,0,8,3.582,8,8V40z"/>
	<path style="fill:#64464B;" d="M120.5,209.731v-89.99C120.5,67.417,177.807,33,248.5,33l0,0c70.692,0,128,34.417,128,86.741v89.99
		L120.5,209.731L120.5,209.731z"/>
	<path style="fill:#966D50;" d="M338.132,372.21l-11.751-3.917c-13.067-4.355-21.881-16.584-21.881-30.358V305l-113-1
		C198.492,323.705,242.287,390.405,338.132,372.21z"/>
	<path style="fill:#C39772;" d="M360.5,193.029c0-0.01,0-0.019,0-0.029c0,0-2-66-24-72c-6.875-1.875-18.047-3.359-30.159-4.514
		c-38.462-3.667-77.22-3.667-115.683,0c-12.112,1.155-23.284,2.639-30.159,4.514c-22,6-24,72-24,72c0,0.01,0,0.019,0,0.029
		c-9.835-0.165-16,6.04-16,16.702c0,14.576,13.464,47.633,29.22,38.643C170.931,295.52,213.717,337,248.5,337
		s77.569-41.48,98.78-88.626c15.756,8.991,29.22-24.067,29.22-38.643C376.5,199.069,370.334,192.865,360.5,193.029z"/>
	<path style="fill:#FF5F64;" d="M404.739,394.413l-73.322-24.44c-9.247,26.039-32.699,74.941-82.917,95.028
		c-50.217-20.087-73.669-68.989-82.917-95.028l-73.322,24.44C66.127,403.124,48.5,427.581,48.5,455.128V473
		c0,13.255,10.745,24,24,24h352c13.255,0,24-10.745,24-24v-17.872C448.5,427.581,430.873,403.124,404.739,394.413z"/>
	<path style="fill:#F04B50;" d="M112.61,450.699l-45.34-40.806c-11.735,11.74-18.77,27.861-18.77,45.235V473
		c0,13.255,10.745,24,24,24h56v-10.623C128.5,472.77,122.725,459.802,112.61,450.699z"/>
	<path style="fill:#F04B50;" d="M384.39,450.699l45.34-40.806c11.735,11.74,18.77,27.861,18.77,45.235V473c0,13.255-10.745,24-24,24
		h-56v-10.623C368.5,472.77,374.275,459.802,384.39,450.699z"/>
</g>
<g>
</g>
<g>
</g>
<g>
</g>
<g>
</g>
<g>
</g>
<g>
</g>
<g>
</g>
<g>
</g>
<g>
</g>
<g>
</g>
<g>
</g>
<g>
</g>
<g>
</g>
<g>
</g>
<g>
</g>
</svg>
