<?xml version="1.0" encoding="iso-8859-1"?>
<!-- Generator: Adobe Illustrator 19.0.0, SVG Export Plug-In . SVG Version: 6.00 Build 0)  -->
<svg version="1.1" id="Layer_1" xmlns="http://www.w3.org/2000/svg" xmlns:xlink="http://www.w3.org/1999/xlink" x="0px" y="0px"
	 viewBox="0 0 495.774 495.774" style="enable-background:new 0 0 495.774 495.774;" xml:space="preserve">
<g>
	<path style="fill:#E6B47D;" d="M404.126,345.186l-78.358-26.119c-13.067-4.355-21.881-16.584-21.881-30.358v-28.991
		c16.783-15.833,31.926-36.909,42.22-59.346c9.028,2.123,13.78-8.599,13.78-8.599c0-9.833,0-31.999,0-31.999l-24-72h-176l-24,72
		c0,0,0,22.167,0,31.999c0,0,4.752,10.722,13.78,8.599c10.294,22.438,25.437,43.513,42.22,59.346v28.991
		c0,13.774-8.814,26.002-21.881,30.358l-78.358,26.119c-26.134,8.711-43.761,33.168-43.761,60.716v65.872c0,13.255,10.745,24,24,24
		h352c13.255,0,24-10.745,24-24v-65.872C447.888,378.354,430.26,353.897,404.126,345.186z"/>
	<path style="fill:#D2A073;" d="M303.888,288.709v-32.936h-112c6.992,19.705,49.787,85.405,145.632,67.21l-11.751-3.917
		C312.702,314.711,303.888,302.483,303.888,288.709z"/>
	<path style="fill:#F0C891;" d="M335.888,87.773h-176l-24,72c0,0,0,22.167,0,31.999c0,0,4.752,10.722,13.78,8.599
		c21.396,46.637,63.739,87.401,98.22,87.401s76.823-40.764,98.22-87.401c9.028,2.123,13.78-8.599,13.78-8.599
		c0-9.833,0-31.999,0-31.999L335.888,87.773z"/>
	<path style="fill:#A5E678;" d="M338.786,318.406l-6.083-2.028c-2.521-0.84-5.057,0.93-5.327,3.574
		c-4.113,40.276-38.144,71.821-79.488,71.821s-75.375-31.545-79.488-71.821c-0.27-2.644-2.806-4.414-5.327-3.574l-6.083,2.028
		c-2.774,0.925-4.714,3.432-4.861,6.352c-0.911,18.087-6.496,83.602-40.24,131.015v40h136h136v-40
		c-33.744-47.413-39.329-112.928-40.24-131.015C343.5,321.838,341.561,319.331,338.786,318.406z"/>
	<path style="fill:#E1F046;" d="M343.223,322.698c-0.732-1.996-2.344-3.595-4.437-4.292l-6.083-2.028
		c-2.521-0.84-5.057,0.93-5.327,3.574c-4.114,40.276-38.144,71.821-79.488,71.821s-75.375-31.545-79.488-71.821
		c-0.27-2.644-2.806-4.414-5.327-3.574l-6.083,2.028c-2.092,0.697-3.705,2.295-4.437,4.292c5.43,47.868,46.015,85.076,95.335,85.076
		S337.792,370.565,343.223,322.698z"/>
	<path style="fill:#5FB4C8;" d="M247.888,0c-49.293,2.644-120,30.932-120,103.773c0,64,8,87.999,8,87.999s4.355-87.999,112-87.999
		s112,87.999,112,87.999s8-23.999,8-87.999C367.888,30.932,297.181,2.644,247.888,0z"/>
	<path style="fill:#5F96B4;" d="M135.888,191.772c0,0,4.355-87.999,112-87.999s112,87.999,112,87.999s3.598-10.89,5.968-37.352
		c-13.476-29.688-44.902-66.647-117.968-66.647S143.396,124.732,129.92,154.42C132.29,180.883,135.888,191.772,135.888,191.772z"/>
	<path style="fill:#5F96B4;" d="M224.866,177.442l-36.014,4.002c-11.184,1.243-20.965-7.512-20.965-18.765v-0.026
		c0-10.427,8.453-18.88,18.88-18.88h36.234c9.326,0,16.886,7.56,16.886,16.886l0,0C239.888,169.264,233.418,176.492,224.866,177.442
		z"/>
	<path style="fill:#4D829D;" d="M183.888,162.413v0.054c0,6.312,5.464,11.237,11.742,10.583l19.614-2.043
		c4.912-0.512,8.644-4.652,8.644-9.591l0,0c0-5.326-4.317-9.643-9.643-9.643h-19.717
		C188.651,151.773,183.888,156.537,183.888,162.413z"/>
	<path style="fill:#5F96B4;" d="M270.909,177.442l36.014,4.002c11.184,1.243,20.965-7.512,20.965-18.765v-0.026
		c0-10.427-8.453-18.88-18.88-18.88h-36.234c-9.326,0-16.886,7.56-16.886,16.886l0,0
		C255.888,169.264,262.357,176.492,270.909,177.442z"/>
	<path style="fill:#4D829D;" d="M311.888,162.413v0.054c0,6.312-5.464,11.237-11.742,10.583l-19.614-2.043
		c-4.912-0.512-8.644-4.652-8.644-9.591l0,0c0-5.326,4.317-9.643,9.643-9.643h19.717
		C307.124,151.773,311.888,156.537,311.888,162.413z"/>
	<path style="fill:#555069;" d="M171.888,159.773h-40c-2.209,0-4-1.791-4-4l0,0c0-2.209,1.791-4,4-4h40c2.209,0,4,1.791,4,4l0,0
		C175.888,157.983,174.097,159.773,171.888,159.773z"/>
	<path style="fill:#555069;" d="M363.888,159.773h-40c-2.209,0-4-1.791-4-4l0,0c0-2.209,1.791-4,4-4h40c2.209,0,4,1.791,4,4l0,0
		C367.888,157.983,366.097,159.773,363.888,159.773z"/>
	<path style="fill:#555069;" d="M259.888,159.773h-24c-2.209,0-4-1.791-4-4l0,0c0-2.209,1.791-4,4-4h24c2.209,0,4,1.791,4,4l0,0
		C263.888,157.983,262.097,159.773,259.888,159.773z"/>
</g>
<g>
</g>
<g>
</g>
<g>
</g>
<g>
</g>
<g>
</g>
<g>
</g>
<g>
</g>
<g>
</g>
<g>
</g>
<g>
</g>
<g>
</g>
<g>
</g>
<g>
</g>
<g>
</g>
<g>
</g>
</svg>
