<?xml version="1.0" encoding="iso-8859-1"?>
<!-- Generator: Adobe Illustrator 19.0.0, SVG Export Plug-In . SVG Version: 6.00 Build 0)  -->
<svg version="1.1" id="Layer_1" xmlns="http://www.w3.org/2000/svg" xmlns:xlink="http://www.w3.org/1999/xlink" x="0px" y="0px"
	 viewBox="0 0 496 496" style="enable-background:new 0 0 496 496;" xml:space="preserve">
<g>
	<path style="fill:#E6B47D;" d="M456.116,406.401L456,406.453v-7.535c0-35.591-23.513-66.902-57.692-76.827L336,304
		c-1.129,1.169-2.252,2.318-3.372,3.456c-11.416-10.372-12.696-31.422-12.714-43.686c10.899-11.858,19.563-26.181,26.004-41.591
		C362.042,232.912,376,198.909,376,184.068c0-10.909-6.446-17.166-16.681-16.694c0.454-5.169,0.681-10.286,0.681-15.306
		c0-64.065-50.144-88-112-88s-112,23.935-112,88c0,5.063,0.232,10.225,0.693,15.439C126.505,166.313,120,172.624,120,184.068
		c0,15.462,13.88,51.714,29.424,36.513c6.499,16.003,15.378,30.888,26.638,43.149c-0.067,12.218-1.45,33.204-12.791,43.623
		c-1.087-1.105-2.176-2.22-3.271-3.354l-62.308,18.092C63.513,332.016,40,363.328,40,398.919v7.535l-0.116-0.052
		c-3.692-1.678-7.884,1.021-7.884,5.077v10.676c0,4.281,2.502,8.166,6.399,9.938L48,436.455V472c0,13.255,10.745,24,24,24h48h256h48
		c13.255,0,24-10.745,24-24v-35.545l9.601-4.364c3.897-1.771,6.399-5.657,6.399-9.938v-10.676
		C464,407.422,459.808,404.722,456.116,406.401z"/>
	<path style="fill:#D2A073;" d="M304,344l31.671-34.197C317.781,298.284,320,264,320,256H176
		C186.332,285.704,254.667,336.667,304,344z"/>
	<path style="fill:#F0C891;" d="M359.319,167.375c0.454-5.169,0.681-10.286,0.681-15.306c0-64.065-50.144-88-112-88
		s-112,23.935-112,88c0,5.063,0.232,10.225,0.693,15.439c-10.188-1.195-16.693,5.116-16.693,16.56
		c0,15.462,13.88,51.714,29.424,36.513c16.834,41.451,49.566,75.487,98.576,75.487c48.379,0,80.897-33.165,97.918-73.889
		C362.042,232.912,376,198.909,376,184.068C376,173.16,369.554,166.903,359.319,167.375z"/>
	<path style="fill:#78C3C3;" d="M336,304c-15.196,15.733-29.648,28.752-42.286,39.19c-26.537,21.917-64.892,21.917-91.429,0
		C189.648,332.752,175.196,319.733,160,304l-62.308,18.092C63.513,332.016,40,363.328,40,398.919v20.717L120,456v40h256v-40
		l80-36.364v-20.717c0-35.591-23.513-66.902-57.692-76.827L336,304z"/>
	<g>
		<path style="fill:#E6EBF0;" d="M448,424h-16v-25.082c0-24.758-16.605-46.875-40.383-53.777l-53.137-15.43l4.461-15.367
			l53.137,15.43c30.57,8.879,51.922,37.313,51.922,69.145V424z M64,424H48v-25.082c0-31.832,21.352-60.266,51.922-69.145
			l53.137-15.43l4.461,15.367l-53.137,15.43C80.605,352.043,64,374.16,64,398.918V424z"/>
	</g>
	<path style="fill:#646978;" d="M38.399,432.091L120,469.183v-26.365l-80.116-36.417c-3.692-1.678-7.884,1.021-7.884,5.077v10.676
		C32,426.434,34.502,430.319,38.399,432.091z"/>
	<path style="fill:#646978;" d="M457.601,432.091L376,469.183v-26.365l80.116-36.417c3.692-1.678,7.884,1.021,7.884,5.077v10.676
		C464,426.434,461.498,430.319,457.601,432.091z"/>
	<path style="fill:#646978;" d="M336,304c-15.213,15.75-29.68,28.78-42.327,39.224c-26.515,21.894-64.831,21.894-91.347,0
		C189.68,332.78,175.213,319.75,160,304l-26.537,7.706c18.361,19.063,37.233,35.66,54.227,49.312
		c35.279,28.341,85.342,28.341,120.621,0c16.994-13.652,35.866-30.248,54.227-49.312L336,304z"/>
	<path style="fill:#464B5F;" d="M361.025,136c4.436-10.022,6.975-20.762,6.975-32c0-53.02-53.726-96-120-96s-120,42.98-120,96
		c0,11.238,2.539,21.978,6.975,32H361.025z"/>
	<path style="fill:#646978;" d="M346.192,118.082c-1.413,1.236-3.227,1.918-5.104,1.918c-6.493,0-10.108-7.504-6.062-12.582
		l29.521-37.045c3.466-4.349,3.89-10.511,0.751-15.102c-2.091-3.058-4.447-6.004-7.028-8.835c-2.042-2.24-5.641-1.963-7.183,0.646
		c-9.83,16.636-40.837,69.109-40.837,69.109c-1.395,2.36-3.932,3.808-6.673,3.808h-0.205c-5.463,0-9.212-5.5-7.214-10.585
		l31.231-79.498c1.33-3.386-0.016-7.307-3.228-9.015c-5.533-2.943-11.263-5.593-17.063-7.941c-4.018-1.626-8.54,0.803-9.591,5.008
		l-24.04,96.16c-0.863,3.45-3.963,5.871-7.52,5.871h-1.232c-4.64,0-8.24-4.049-7.698-8.657L269.181,7.959
		c0.383-3.258-1.864-6.299-5.113-6.751C258.361,0.414,252.948,0,248,0s-10.361,0.414-16.069,1.208
		c-3.249,0.452-5.496,3.493-5.113,6.751l12.163,103.384c0.542,4.608-3.058,8.657-7.698,8.657h-1.232
		c-3.557,0-6.657-2.421-7.52-5.871l-24.04-96.16c-1.051-4.205-5.573-6.634-9.591-5.008c-5.771,2.336-11.473,4.971-16.98,7.896
		c-3.223,1.712-4.568,5.651-3.22,9.042l31.583,79.488c2.022,5.089-1.728,10.613-7.203,10.613h-0.179
		c-2.729,0-5.258-1.436-6.656-3.78l-41.285-69.2c-1.549-2.596-5.138-2.873-7.177-0.641c-2.601,2.848-4.974,5.812-7.08,8.891
		c-3.14,4.591-2.72,10.75,0.747,15.1c9.88,12.398,29.524,37.049,29.524,37.049c4.046,5.077,0.431,12.582-6.062,12.582
		c-1.877,0-3.691-0.682-5.104-1.918l-23.31-20.396c-2.414-2.112-6.198-0.223-5.959,2.976c1.152,15.413,4.051,29.479,5.886,37.181
		c0.861,3.615,4.07,6.158,7.786,6.158h227.577c3.716,0,6.925-2.543,7.786-6.158c1.836-7.702,4.734-21.767,5.886-37.181
		c0.239-3.198-3.545-5.088-5.959-2.976L346.192,118.082z"/>
	<path style="fill:#646978;" d="M363.237,160.188l-13.033,0.32c-17.026,0.418-34.03,1.475-50.977,3.17l-35.267,3.527
		C258.657,167.734,253.33,168,248,168s-10.657-0.266-15.96-0.796l-35.267-3.527c-16.947-1.695-33.951-2.752-50.977-3.17
		l-13.033-0.32c-2.61-0.069-4.763,2.028-4.763,4.639v0.028c0,2.24,1.6,4.16,3.802,4.564l34.498,6.332l2.829,7.072
		c4.251,10.627,13.854,18.175,25.185,19.794l24.467,3.495c7.655,1.094,14.997-3.444,17.442-10.78l1.247-3.742
		c1.511-4.532,5.752-7.589,10.53-7.589s9.019,3.057,10.53,7.589l1.248,3.743c2.445,7.336,9.787,11.873,17.441,10.779l24.468-3.495
		c11.331-1.619,20.934-9.166,25.185-19.794l2.829-7.072l34.498-6.332c2.203-0.404,3.803-2.324,3.803-4.564v-0.028
		C368,162.215,365.847,160.119,363.237,160.188z"/>
	<path style="fill:#464B5F;" d="M231.087,179.972c0.49-2.562-1.289-4.989-3.885-5.245c-9.806-0.97-31.227-3.09-31.227-3.09
		c-6.588-0.659-13.218-1.222-19.861-1.687c-1.669-0.117-2.892,1.566-2.271,3.12l2.712,6.782c3.187,7.97,10.389,13.63,18.886,14.844
		l24.47,3.496c0.382,0.055,0.764,0.082,1.142,0.082c3.443,0,6.489-2.199,7.58-5.471L231.087,179.972z"/>
	<path style="fill:#464B5F;" d="M264.899,179.972c-0.49-2.562,1.289-4.989,3.885-5.245c9.806-0.97,31.227-3.09,31.227-3.09
		c6.588-0.659,13.218-1.222,19.861-1.687c1.669-0.117,2.892,1.566,2.271,3.12l-2.712,6.782c-3.187,7.97-10.389,13.63-18.886,14.844
		l-24.47,3.496c-0.382,0.055-0.764,0.082-1.142,0.082c-3.443,0-6.489-2.199-7.58-5.471L264.899,179.972z"/>
</g>
<g>
</g>
<g>
</g>
<g>
</g>
<g>
</g>
<g>
</g>
<g>
</g>
<g>
</g>
<g>
</g>
<g>
</g>
<g>
</g>
<g>
</g>
<g>
</g>
<g>
</g>
<g>
</g>
<g>
</g>
</svg>
