<?xml version="1.0" encoding="iso-8859-1"?>
<!-- Generator: Adobe Illustrator 19.0.0, SVG Export Plug-In . SVG Version: 6.00 Build 0)  -->
<svg version="1.1" id="Layer_1" xmlns="http://www.w3.org/2000/svg" xmlns:xlink="http://www.w3.org/1999/xlink" x="0px" y="0px"
	 viewBox="0 0 497 497" style="enable-background:new 0 0 497 497;" xml:space="preserve">
<g>
	<path style="fill:#55373C;" d="M312.466,49c0.009-0.334,0.034-0.665,0.034-1c0-26.51-28.654-48-64-48s-64,21.49-64,48
		c0,0.335,0.025,0.666,0.034,1H312.466z"/>
	<path style="fill:#FAD7A5;" d="M446.445,358.971l-76.403-40.449c-15.713-8.319-25.542-24.643-25.542-42.422v-17.213
		c0.67-2.553,1.102-5.187,1.255-7.877l0.682-11.937c16.113,10.681,30.063-23.172,30.063-38.005c0-10.916-6.462-17.162-16.708-16.681
		c0.454-5.171,0.708-10.297,0.708-15.319c0-0.024-0.003-0.044-0.003-0.068h0.003v-36.61c0-37.723-26.352-70.32-63.238-78.225l0,0
		c-32.143-6.888-65.38-6.888-97.523,0l0,0C162.852,62.07,136.5,94.667,136.5,132.391V169h0.003c0,0.024-0.003,0.044-0.003,0.068
		c0,5.08,0.259,10.266,0.723,15.498c-10.189-1.196-16.723,5.058-16.723,16.502c0,15.455,13.87,51.597,29.406,36.451l1.018,13.926
		c0.213,2.915,0.759,5.757,1.576,8.498V276.1c0,17.779-9.828,34.103-25.542,42.422l-76.403,40.449
		C29.604,370.063,16.5,391.827,16.5,415.533V473c0,13.255,10.745,24,24,24h416c13.255,0,24-10.745,24-24v-57.467
		C480.5,391.827,467.396,370.063,446.445,358.971z"/>
	<path style="fill:#F0C891;" d="M414.377,341.994l-44.335-23.472c-15.713-8.319-25.542-24.643-25.542-42.422V257
		c-5.75,0-192,0-192,0C166.167,332,268.028,378.381,414.377,341.994z"/>
	<path style="fill:#FFE1B4;" d="M359.792,184.388c0.454-5.171,0.708-10.297,0.708-15.319c0-0.024-0.003-0.044-0.003-0.068h0.003
		v-36.61c0-37.723-26.352-70.32-63.238-78.225l0,0c-32.143-6.888-65.38-6.888-97.523,0l0,0
		C162.852,62.07,136.5,94.667,136.5,132.391V169h0.003c0,0.024-0.003,0.044-0.003,0.068c0,5.08,0.259,10.266,0.723,15.498
		c-10.189-1.196-16.723,5.058-16.723,16.502c0,15.455,13.87,51.597,29.406,36.451l1.018,13.926
		c0.984,13.451,8.679,25.5,20.468,32.049l40.423,22.458c8.319,4.622,17.679,7.047,27.196,7.047h18.978
		c9.517,0,18.877-2.425,27.196-7.047l40.061-22.256c11.987-6.66,19.728-18.996,20.509-32.686l0.682-11.937
		c16.113,10.681,30.063-23.172,30.063-38.005C376.5,190.153,370.038,183.907,359.792,184.388z"/>
	<path style="fill:#64464B;" d="M248.5,33c-80.97,0-123.38,31.912-141.313,50.668c-6.835,7.149-8.72,17.66-4.627,26.664L136.5,185
		l16,8l14.298-71.491c0.908-4.541,5.438-7.363,9.91-6.157c8.756,2.36,22.603,5.648,31.792,5.648c14.333,0,65.667,0,80,0
		c9.189,0,23.036-3.288,31.792-5.648c4.471-1.205,9.001,1.616,9.91,6.157L344.5,193l16-8l33.94-74.668
		c4.093-9.004,2.208-19.515-4.627-26.664C371.88,64.912,329.47,33,248.5,33z"/>
	<path style="fill:#F0C891;" d="M96.5,459.426V497h72c0,0-28.749-2.385-58.118-42.161C105.981,448.879,96.5,452.018,96.5,459.426z"
		/>
	<path style="fill:#F0C891;" d="M400.5,459.426V497h-72c0,0,28.749-2.385,58.118-42.161
		C391.019,448.879,400.5,452.018,400.5,459.426z"/>
</g>
<g>
</g>
<g>
</g>
<g>
</g>
<g>
</g>
<g>
</g>
<g>
</g>
<g>
</g>
<g>
</g>
<g>
</g>
<g>
</g>
<g>
</g>
<g>
</g>
<g>
</g>
<g>
</g>
<g>
</g>
</svg>
