<?xml version="1.0" encoding="iso-8859-1"?>
<!-- Generator: Adobe Illustrator 19.0.0, SVG Export Plug-In . SVG Version: 6.00 Build 0)  -->
<svg version="1.1" id="Layer_1" xmlns="http://www.w3.org/2000/svg" xmlns:xlink="http://www.w3.org/1999/xlink" x="0px" y="0px"
	 viewBox="0 0 496 496" style="enable-background:new 0 0 496 496;" xml:space="preserve">
<g>
	<path style="fill:#FAD7A5;" d="M395.045,319.339l-50.05-16.016c-3.437,2.628-7.065,5.379-10.84,8.178l1.516-1.698
		C317.781,298.284,320,264,320,256H176c0,8,2,42.284-15.89,53.803l1.092,1.22c-3.544-2.633-6.956-5.222-10.197-7.7l-50.05,16.016
		C67.43,330.067,40,367.644,40,402.844V472c0,13.255,10.745,24,24,24h368c13.255,0,24-10.745,24-24v-69.156
		C456,367.644,428.57,330.067,395.045,319.339z"/>
	<path style="fill:#F0C891;" d="M323.932,293.302C318.984,278.987,320,261.433,320,256H176
		c8.576,24.656,57.118,63.959,101.584,80.798L323.932,293.302z"/>
	<g>
		<path style="fill:#FFE1B4;" d="M360,152c0,64.065-36.889,144-112,144s-112-79.935-112-144s50.144-88,112-88S360,87.935,360,152z"
			/>
	</g>
	<g>
		<path style="fill:#E6EBF0;" d="M40,472v-69.156c0-35.2,27.43-72.777,60.955-83.505l50.05-16.016C177.933,323.913,248,352,248,352
			s70.067-28.087,96.995-48.677l50.05,16.016C428.57,330.067,456,367.644,456,402.844V472c0,13.255-10.745,24-24,24H64
			C50.745,496,40,485.255,40,472z"/>
	</g>
	<g>
		<path style="fill:#C3CBD2;" d="M256,464h-16c-8.837,0-16-7.163-16-16v-96h48v96C272,456.837,264.837,464,256,464z"/>
	</g>
	<g>
		<path style="fill:#D2D7DC;" d="M248,352l-33.38,33.38c-3.476,3.476-9.235,3.024-12.127-0.951L144,304l18.633-18.633
			c3.009-3.009,7.846-3.136,11.009-0.289L248,352z"/>
	</g>
	<g>
		<path style="fill:#D2D7DC;" d="M248,352l33.38,33.38c3.476,3.476,9.235,3.024,12.127-0.951L352,304l-18.633-18.633
			c-3.009-3.009-7.846-3.136-11.009-0.289L248,352z"/>
	</g>
	<g>
		<circle style="fill:#E6EBF0;" cx="248" cy="432" r="8"/>
	</g>
	<g>
		<circle style="fill:#E6EBF0;" cx="248" cy="392" r="8"/>
	</g>
	<g>
		<path style="fill:#D2D7DC;" d="M101.255,397.255l-44.154-44.154C46.545,368,40,385.693,40,402.844V472c0,13.255,10.745,24,24,24
			h56v-53.49C120,425.536,113.257,409.257,101.255,397.255z"/>
	</g>
	<g>
		<path style="fill:#D2D7DC;" d="M394.745,397.255l44.154-44.154C449.455,368,456,385.693,456,402.844V472c0,13.255-10.745,24-24,24
			h-56v-53.49C376,425.536,382.743,409.257,394.745,397.255z"/>
	</g>
	<path style="fill:#727887;" d="M248,288c-71.734,0-104-79.531-104-136h-16c0,63.117,37.23,152,120,152s120-88.883,120-152h-16
		C352,208.469,319.734,288,248,288z"/>
	<g>
		<path style="fill:#F04B50;" d="M248,0c-91.127,0-128,56.471-128,136h256C376,56.471,339.127,0,248,0z"/>
	</g>
	<g>
		<path style="fill:#FF5F64;" d="M120,136l-10.806,16.209c-2.22,3.33,0.167,7.791,4.17,7.791h269.272c4.003,0,6.39-4.461,4.17-7.791
			L376,136H120z"/>
	</g>
	<g>
		<path style="fill:#C3CBD2;" d="M375.68,149.766c-1.234-4.238-5.668-6.684-9.91-5.445c-4.242,1.23-6.684,5.668-5.453,9.91
			c0.07,0.239,6.228,21.796,7.455,45.77H128.229c1.228-23.974,7.385-45.53,7.455-45.77c1.23-4.242-1.211-8.68-5.453-9.91
			c-4.254-1.242-8.68,1.207-9.91,5.445c-0.34,1.168-8.32,28.93-8.32,58.234v49.5c0,39.531,59.738,70.5,136,70.5s136-30.969,136-70.5
			V208C384,178.695,376.02,150.934,375.68,149.766z M128,256v-40h64.591l3.077,40H128z M132.628,272h64.271l2.704,35.147
			C167.471,300.493,142.462,287.549,132.628,272z M280.14,309.873C269.855,311.224,259.094,312,248,312s-21.855-0.776-32.14-2.127
			L212.947,272h70.105L280.14,309.873z M284.284,256h-72.567l-3.077-40h78.721L284.284,256z M296.397,307.147L299.101,272h64.271
			C353.538,287.549,328.529,300.493,296.397,307.147z M368,256h-67.668l3.077-40H368V256z"/>
	</g>
</g>
<g>
</g>
<g>
</g>
<g>
</g>
<g>
</g>
<g>
</g>
<g>
</g>
<g>
</g>
<g>
</g>
<g>
</g>
<g>
</g>
<g>
</g>
<g>
</g>
<g>
</g>
<g>
</g>
<g>
</g>
</svg>
