<?xml version="1.0" encoding="iso-8859-1"?>
<!-- Generator: Adobe Illustrator 19.0.0, SVG Export Plug-In . SVG Version: 6.00 Build 0)  -->
<svg version="1.1" id="Layer_1" xmlns="http://www.w3.org/2000/svg" xmlns:xlink="http://www.w3.org/1999/xlink" x="0px" y="0px"
	 viewBox="0 0 496.017 496.017" style="enable-background:new 0 0 496.017 496.017;" xml:space="preserve">
<g>
	<path style="fill:#E6B47D;" d="M429.25,325.015l-29.242-12.996c-15.402-24.271-40.607-38.084-54.34-44.187
		c-5.835-2.593-9.66-8.304-9.66-14.69v-27.745c5.434-6.501,8.758-14.657,9.255-23.369l0.682-11.937
		c16.113,10.681,30.063-23.172,30.063-38.005c0-10.916-6.462-17.162-16.708-16.681c0.454-5.171,0.708-10.297,0.708-15.319
		c0-0.024-0.003-0.044-0.003-0.068h0.003v-36.61c0-37.723-26.352-70.32-63.238-78.225l0,0c-32.143-6.888-65.38-6.888-97.523,0l0,0
		c-36.886,7.904-63.238,40.501-63.238,78.225v36.61h0.003c0,0.024-0.003,0.044-0.003,0.068c0,5.08,0.259,10.266,0.723,15.498
		c-10.189-1.196-16.723,5.058-16.723,16.502c0,15.455,13.87,51.597,29.406,36.451l1.018,13.926
		c0.634,8.668,4.068,16.745,9.576,23.152v27.526c0,6.386-3.824,12.097-9.66,14.69c-13.733,6.103-38.938,19.917-54.34,44.187
		l-29.242,12.996c-26.001,11.556-42.758,37.341-42.758,65.794v81.209c0,13.255,10.745,24,24,24h400c13.255,0,24-10.745,24-24
		v-81.209C472.008,362.355,455.251,336.571,429.25,325.015z"/>
	<path style="fill:#D2A073;" d="M345.668,267.831c-5.835-2.593-9.66-8.304-9.66-14.69V224H161.465
		c18.096,38.002,82.289,103.661,234.158,81.918C380.154,285.463,358.185,273.394,345.668,267.831z"/>
	<path style="fill:#F0C891;" d="M359.3,135.406c0.454-5.171,0.708-10.297,0.708-15.319c0-0.024-0.003-0.044-0.003-0.068h0.003
		v-36.61c0-37.723-26.352-70.32-63.238-78.225l0,0c-32.143-6.888-65.38-6.888-97.523,0l0,0
		c-36.886,7.904-63.238,40.501-63.238,78.225v36.61h0.003c0,0.024-0.003,0.044-0.003,0.068c0,5.08,0.259,10.266,0.723,15.498
		c-10.189-1.196-16.723,5.058-16.723,16.502c0,15.455,13.87,51.597,29.406,36.451l1.018,13.926
		c0.984,13.451,8.679,25.5,20.468,32.049l40.423,22.458c8.319,4.622,17.679,7.047,27.196,7.047h18.978
		c9.517,0,18.877-2.425,27.196-7.047l40.061-22.256c11.987-6.66,19.728-18.996,20.509-32.686l0.682-11.937
		c16.113,10.681,30.063-23.172,30.063-38.005C376.008,141.171,369.546,134.925,359.3,135.406z"/>
	<path style="fill:#5F87B9;" d="M392.008,456.018l80-21.818v-43.391c0-28.454-16.757-54.238-42.758-65.794l-29.242-12.996
		c-12.808-20.183-32.314-33.048-46.446-40.347c0,0-45.835,92.711-105.554,104.347c-59.718-11.636-105.554-104.347-105.554-104.347
		c-14.132,7.299-33.638,20.164-46.446,40.347l-29.242,12.996c-26.001,11.556-42.758,37.341-42.758,65.794V434.2l80,21.818v39.999
		h288L392.008,456.018L392.008,456.018z"/>
	<path style="fill:#E6EBF0;" d="M248.008,352.018c-57.172-11.14-91.181-56.967-103.919-77.666
		c0.863,82.859,47.021,149.666,103.919,149.666s103.057-66.806,103.919-149.666C339.188,295.052,305.18,340.878,248.008,352.018z"/>
	<path style="fill:#FF5F64;" d="M24.008,390.809V434.2l80,21.818V345.903c0-11.761-2.738-23.361-7.998-33.881l-0.002-0.004
		l-29.241,12.996C40.765,336.57,24.008,362.355,24.008,390.809z"/>
	<polygon style="fill:#F04B50;" points="24.008,434.2 104.008,456.018 104.008,440.018 24.008,418.2 	"/>
	<path style="fill:#FF5F64;" d="M472.008,390.808V434.2l-80,21.818V345.903c0-11.761,2.738-23.361,7.998-33.881l0.002-0.004
		l29.242,12.996C455.251,336.57,472.008,362.355,472.008,390.808z"/>
	<polygon style="fill:#F04B50;" points="472.008,434.2 392.008,456.018 392.008,440.018 472.008,418.2 	"/>
	<path style="fill:#735848;" d="M360.008,68.422c0-71.403-95.655-68.404-112-68.404s-112-3-112,68.404v51.597
		c0,0,0.002,9.024,0.001,16l7.271,3.635c4.516,2.258,9.968-0.18,11.296-5.05l18.865-69.171c1.329-4.87,6.78-7.308,11.295-5.05
		l16.515,8.258c4.443,2.222,9.343,3.378,14.311,3.378h32.446h32.446c4.968,0,9.868-1.157,14.311-3.378l16.515-8.258
		c4.515-2.258,9.967,0.18,11.295,5.05l18.865,69.171c1.329,4.871,6.781,7.308,11.296,5.05l7.271-3.635
		c-0.001-6.976,0.001-16,0.001-16V68.422z"/>
</g>
<g>
</g>
<g>
</g>
<g>
</g>
<g>
</g>
<g>
</g>
<g>
</g>
<g>
</g>
<g>
</g>
<g>
</g>
<g>
</g>
<g>
</g>
<g>
</g>
<g>
</g>
<g>
</g>
<g>
</g>
</svg>
