<?xml version="1.0" encoding="iso-8859-1"?>
<!-- Generator: Adobe Illustrator 19.0.0, SVG Export Plug-In . SVG Version: 6.00 Build 0)  -->
<svg version="1.1" id="Layer_1" xmlns="http://www.w3.org/2000/svg" xmlns:xlink="http://www.w3.org/1999/xlink" x="0px" y="0px"
	 viewBox="0 0 496 496" style="enable-background:new 0 0 496 496;" xml:space="preserve">
<g>
	<path style="fill:#E6B47D;" d="M402.673,330.173l-66.782-20.371l-0.792,0.641l0.572-0.641
		c-14.241-9.169-15.738-32.753-15.757-46.032c10.9-11.858,19.563-26.181,26.004-41.592C362.042,232.912,376,198.909,376,184.068
		c0-10.909-6.446-17.166-16.681-16.694c0.454-5.169,0.681-10.286,0.681-15.306c0-64.065-50.144-88-112-88s-112,23.935-112,88
		c0,5.063,0.232,10.225,0.693,15.439C126.505,166.313,120,172.624,120,184.068c0,15.462,13.88,51.714,29.424,36.513
		c6.5,16.006,15.374,30.902,26.638,43.164c-0.073,13.274-1.702,36.882-15.953,46.057l0.001,0.001l-0.001-0.001l-66.782,20.371
		C66.398,338.388,48,363.235,48,391.389V472c0,13.255,10.745,24,24,24h352c13.255,0,24-10.745,24-24v-80.611
		C448,363.235,429.602,338.388,402.673,330.173z"/>
	<g>
		<path style="fill:#5F87B9;" d="M354.43,310.143l-12.223-4.074c-3.086-1.029-6.207,1.232-6.335,4.483
			C333.376,373.779,294.989,424,248,424s-85.376-50.221-87.871-113.448c-0.128-3.25-3.249-5.512-6.335-4.483l-12.223,4.074
			c-3.331,1.11-5.566,4.277-5.593,7.788C135.317,406.153,120,432,120,432v64h128h128v-64c0,0-15.317-25.847-15.978-114.069
			C359.996,314.421,357.76,311.253,354.43,310.143z"/>
	</g>
	<g>
		<path style="fill:#D2A073;" d="M336,352l-0.329-42.197C317.781,298.284,320,264,320,256H176C192.333,294.333,263,347,336,352z"/>
	</g>
	<path style="fill:#C85050;" d="M360,31.667C341.874,18.719,298.787,0.001,248,0c-50.787,0.001-93.874,18.719-112,31.667
		c-11.667,8.333-12.667,21.667-6,31c3.966,5.553,7,8.667,8,24.333h220c1-15.667,4.034-18.781,8-24.333
		C372.667,53.333,371.667,40,360,31.667z"/>
	<path style="fill:#F0C891;" d="M359.319,167.375c0.454-5.169,0.681-10.286,0.681-15.306c0-64.065-50.144-88-112-88
		s-112,23.935-112,88c0,5.063,0.232,10.225,0.693,15.439c-10.188-1.195-16.693,5.116-16.693,16.56
		c0,15.462,13.88,51.714,29.424,36.513c16.834,41.451,49.566,75.487,98.576,75.487c48.379,0,80.897-33.165,97.918-73.889
		C362.042,232.912,376,198.909,376,184.068C376,173.16,369.554,166.903,359.319,167.375z"/>
	<g>
		<polygon style="fill:#73554B;" points="136,104 136,168 152,168 168,104 		"/>
	</g>
	<g>
		<polygon style="fill:#73554B;" points="360,104 360,168 344,168 328,104 		"/>
	</g>
	<g>
		<path style="fill:#FF6955;" d="M142.147,51.118l-11.949,71.692c-0.862,5.175,4.574,9.129,9.196,6.647
			c67.794-36.401,149.419-36.401,217.212,0c4.622,2.482,10.064-1.436,9.202-6.611c-3.175-19.052-8.998-53.986-11.965-71.787
			c-1.22-7.317-5.815-13.568-12.302-17.165C308.769,15.722,278.386,8.001,248.003,8c-30.377-0.001-60.754,7.717-93.518,25.88
			C147.981,37.485,143.37,43.782,142.147,51.118z"/>
	</g>
	<g>
		<path style="fill:#E6EBF0;" d="M363.237,160.188l-13.033,0.32c-17.026,0.418-34.03,1.475-50.977,3.17l-35.267,3.527
			C258.657,167.734,253.33,168,248,168s-10.657-0.266-15.96-0.796l-35.267-3.527c-16.947-1.695-33.951-2.752-50.977-3.17
			l-13.033-0.32c-2.61-0.069-4.763,2.028-4.763,4.639v0.028c0,2.24,1.6,4.16,3.802,4.564l34.498,6.332l2.829,7.072
			c4.251,10.627,13.854,18.175,25.185,19.794l24.467,3.495c7.655,1.094,14.997-3.444,17.442-10.78l1.247-3.742
			c1.511-4.532,5.752-7.589,10.53-7.589s9.019,3.057,10.53,7.589l1.248,3.743c2.445,7.336,9.787,11.873,17.441,10.779l24.468-3.495
			c11.331-1.619,20.934-9.166,25.185-19.794l2.829-7.072l34.498-6.332c2.203-0.404,3.803-2.324,3.803-4.564v-0.028
			C368,162.215,365.847,160.119,363.237,160.188z"/>
	</g>
	<g>
		<path style="fill:#464B5F;" d="M231.087,179.972c0.49-2.562-1.289-4.989-3.885-5.245c-9.806-0.97-31.227-3.09-31.227-3.09
			c-6.588-0.659-13.218-1.222-19.861-1.687c-1.669-0.117-2.892,1.566-2.271,3.12l2.712,6.782c3.187,7.97,10.389,13.63,18.886,14.844
			l24.47,3.496c0.382,0.055,0.764,0.082,1.142,0.082c3.443,0,6.489-2.199,7.58-5.471L231.087,179.972z"/>
	</g>
	<g>
		<path style="fill:#464B5F;" d="M264.899,179.972c-0.49-2.562,1.289-4.989,3.885-5.245c9.806-0.97,31.227-3.09,31.227-3.09
			c6.588-0.659,13.218-1.222,19.861-1.687c1.669-0.117,2.892,1.566,2.271,3.12l-2.712,6.782c-3.187,7.97-10.389,13.63-18.886,14.844
			l-24.47,3.496c-0.382,0.055-0.764,0.082-1.142,0.082c-3.443,0-6.489-2.199-7.58-5.471L264.899,179.972z"/>
	</g>
	<g>
		<path style="fill:#5A73AF;" d="M248,440c56.078,0,101.664-58.084,103.796-130.734l-9.59-3.197
			c-3.086-1.029-6.207,1.232-6.335,4.482C333.376,373.779,294.989,424,248,424s-85.376-50.221-87.871-113.449
			c-0.128-3.25-3.249-5.511-6.335-4.482l-9.59,3.197C146.336,381.916,191.922,440,248,440z"/>
	</g>
	<g>
		<path style="fill:#FFBE37;" d="M312,456H184c-17.673,0-32,14.327-32,32v8h192v-8C344,470.327,329.673,456,312,456z"/>
	</g>
</g>
<g>
</g>
<g>
</g>
<g>
</g>
<g>
</g>
<g>
</g>
<g>
</g>
<g>
</g>
<g>
</g>
<g>
</g>
<g>
</g>
<g>
</g>
<g>
</g>
<g>
</g>
<g>
</g>
<g>
</g>
</svg>
