<?xml version="1.0" encoding="iso-8859-1"?>
<!-- Generator: Adobe Illustrator 19.0.0, SVG Export Plug-In . SVG Version: 6.00 Build 0)  -->
<svg version="1.1" id="Layer_1" xmlns="http://www.w3.org/2000/svg" xmlns:xlink="http://www.w3.org/1999/xlink" x="0px" y="0px"
	 viewBox="0 0 487.826 487.826" style="enable-background:new 0 0 487.826 487.826;" xml:space="preserve">
<g>
	<path style="fill:#FF6955;" d="M420.012,323.376l-89.671-23.306c-8.824-2.595-15.389-10.006-16.901-19.079H174.385
		c-1.512,9.073-8.077,16.484-16.901,19.079l-89.671,23.306c-28.208,7.332-47.9,32.796-47.9,61.942v78.508c0,13.255,10.745,24,24,24
		h200h200c13.255,0,24-10.745,24-24v-78.508C467.912,356.172,448.22,330.708,420.012,323.376z"/>
	<rect x="235.912" y="335.826" style="fill:#C85050;" width="16" height="152"/>
	<path style="fill:#E6EBF0;" d="M39.434,339.348c-12.148,11.763-19.522,28.167-19.522,45.97v78.508c0,13.255,10.745,24,24,24h56
		v-61.838c0-11.703-4.275-23.003-12.022-31.774L39.434,339.348z"/>
	<path style="fill:#E6EBF0;" d="M448.39,339.348c12.148,11.763,19.522,28.167,19.522,45.97v78.508c0,13.255-10.745,24-24,24h-56
		v-61.838c0-11.703,4.275-23.003,12.022-31.774L448.39,339.348z"/>
	<path style="fill:#E6EBF0;" d="M163.912,286.826v8.38c0,26.852,35.817,48.62,80,48.62s80-21.768,80-48.62v-8.38H163.912z"/>
	<path style="fill:#6E738C;" d="M243.912,0c-79.529,0-144,60.889-144,136v96c0,44.087,64.471,79.826,144,79.826
		s144-35.739,144-79.826v-96C387.912,60.889,323.441,0,243.912,0L243.912,0z"/>
	<path style="fill:#5A5F78;" d="M387.912,192h-288c-4.418,0-8-3.582-8-8v-40c0-4.418,3.582-8,8-8h288c4.418,0,8,3.582,8,8v40
		C395.912,188.418,392.33,192,387.912,192z"/>
	<path style="fill:#B9C1CD;" d="M243.912,240c-52.325,0-101.372-7.552-144-20.66V232c0,44.087,64.471,79.826,144,79.826
		s144-35.739,144-79.826v-12.66C345.285,232.448,296.238,240,243.912,240z"/>
	<path style="fill:#5A5F78;" d="M243.912,240c-52.325,0-101.372-7.552-144-20.66V232c0,1.218,0.231,2.403,0.329,3.607
		c42.553,13.046,91.478,20.566,143.671,20.566c52.194,0,101.119-7.52,143.671-20.566c0.097-1.205,0.329-2.39,0.329-3.607v-12.66
		C345.285,232.448,296.238,240,243.912,240z"/>
	<path style="fill:#B9C1CD;" d="M340.055,34.957L275.912,144h32l66.067-66.067C365.751,61.526,354.185,46.958,340.055,34.957z"/>
	<path style="fill:#B9C1CD;" d="M113.845,77.933L179.912,144h32L147.77,34.958C133.641,46.958,122.073,61.526,113.845,77.933z"/>
	<path style="fill:#8CE69B;" d="M115.912,136l6.806,61.25c0.742,6.68,5.593,12.095,12.098,13.783
		C166.441,219.241,203.824,224,243.912,224c40.089,0,77.472-4.759,109.096-12.966c6.505-1.688,11.356-7.104,12.098-13.783
		l6.806-61.25L115.912,136L115.912,136z"/>
	<path style="fill:#B9C1CD;" d="M260.703,56.883l6.111-55.002C259.337,0.75,251.727,0,243.912,0s-15.426,0.75-22.902,1.881
		l6.111,55.002c0.45,4.051,3.875,7.117,7.951,7.117h17.68C256.828,64,260.252,60.935,260.703,56.883z"/>
	<path style="fill:#FFBE37;" d="M339.912,455.826h-40c-8.837,0-16-7.163-16-16v-32c0-8.837,7.163-16,16-16h40
		c8.837,0,16,7.163,16,16v32C355.912,448.663,348.749,455.826,339.912,455.826z"/>
	<path style="fill:#8CE69B;" d="M347.912,375.826h-56c-4.418,0-8-3.582-8-8l0,0c0-4.418,3.582-8,8-8h56c4.418,0,8,3.582,8,8l0,0
		C355.912,372.244,352.33,375.826,347.912,375.826z"/>
	<path style="fill:#B9C1CD;" d="M147.912,463.826h-16c-4.418,0-8-3.582-8-8v-16c0-4.418,3.582-8,8-8h16c4.418,0,8,3.582,8,8v16
		C155.912,460.244,152.33,463.826,147.912,463.826z"/>
	<path style="fill:#6E738C;" d="M187.912,423.826h-16c-4.418,0-8-3.582-8-8v-16c0-4.418,3.582-8,8-8h16c4.418,0,8,3.582,8,8v16
		C195.912,420.244,192.33,423.826,187.912,423.826z"/>
	<path style="fill:#FFBE37;" d="M43.912,439.826h-24v-32h24c8.837,0,16,7.163,16,16l0,0
		C59.912,432.663,52.749,439.826,43.912,439.826z"/>
	<path style="fill:#FF6955;" d="M427.912,455.826h40v-16h-40c-4.418,0-8,3.582-8,8l0,0
		C419.912,452.244,423.494,455.826,427.912,455.826z"/>
	<path style="fill:#6E738C;" d="M443.912,423.826h24v-16h-24c-4.418,0-8,3.582-8,8l0,0
		C435.912,420.244,439.494,423.826,443.912,423.826z"/>
</g>
<g>
</g>
<g>
</g>
<g>
</g>
<g>
</g>
<g>
</g>
<g>
</g>
<g>
</g>
<g>
</g>
<g>
</g>
<g>
</g>
<g>
</g>
<g>
</g>
<g>
</g>
<g>
</g>
<g>
</g>
</svg>
