<?xml version="1.0" encoding="iso-8859-1"?>
<!-- Generator: Adobe Illustrator 19.0.0, SVG Export Plug-In . SVG Version: 6.00 Build 0)  -->
<svg version="1.1" id="Layer_1" xmlns="http://www.w3.org/2000/svg" xmlns:xlink="http://www.w3.org/1999/xlink" x="0px" y="0px"
	 viewBox="0 0 496 496" style="enable-background:new 0 0 496 496;" xml:space="preserve">
<g>
	<path style="fill:#625448;" d="M352,232H248H144c0,76.303-32.5,61.5-40,104l256,1C360,297.667,352,248.667,352,232z"/>
	<path style="fill:#E6B47D;" d="M404.239,345.186l-78.358-26.119C312.814,314.711,304,302.483,304,288.709v-20.765
		c30.752-29.008,56-75.617,56-115.944c0,0-2-66-24-72c-6.875-1.875-18.047-3.359-30.159-4.514c-38.462-3.667-77.22-3.667-115.683,0
		C178.047,76.641,166.875,78.125,160,80c-22,6-24,72-24,72c0,40.327,25.248,86.936,56,115.944v20.765
		c0,13.774-8.814,26.002-21.881,30.358l-78.358,26.119C65.627,353.897,48,378.354,48,405.902v65.872c0,13.255,10.745,24,24,24h352
		c13.255,0,24-10.745,24-24v-65.872C448,378.354,430.373,353.897,404.239,345.186z"/>
	<rect x="128" y="448" style="fill:#464B5F;" width="241" height="48"/>
	<path style="fill:#D2A073;" d="M323.718,318.249C312.583,314,304,301.707,304,288.709V280H192.288
		c9.051,28.033,60.964,80.094,111.71,65.293L323.718,318.249z"/>
	<path style="fill:#54596A;" d="M336.607,308.303c-4.956-2.478-10.979-0.982-14.2,3.527l-68.447,95.825
		c-3.876,5.427-5.96,11.93-5.96,18.6c0-6.67-2.084-13.172-5.96-18.6l-68.447-95.825c-3.221-4.509-9.243-6.005-14.2-3.527L40,368
		l70.962,64.794c5.693,4.555,9.007,11.45,9.007,18.741v4.435c0,8.848,7.182,16.017,16.03,16l96.03-0.166
		c8.825-0.017,15.97-7.175,15.97-16c0,8.825,7.145,15.983,15.97,16l94.993,0.166c8.848,0.017,16.03-7.152,16.03-16v-4.435
		c0-7.291,3.314-14.186,9.007-18.741L456,368L336.607,308.303z"/>
	<path style="fill:#727887;" d="M372.707,432.765l-18.972-7.114c-13.614-5.105-19.598-21.048-12.704-33.85l35.343-65.636
		c4.205-7.81,13.962-10.708,21.749-6.461l64.491,35.177c4.689,2.557,5.603,8.903,1.826,12.68l-57.87,57.87
		C397.697,434.303,384.456,437.171,372.707,432.765z"/>
	<path style="fill:#646978;" d="M423.781,333.698l38.833,21.182c4.688,2.558,5.603,8.904,1.826,12.68l-57.87,57.87
		c-8.874,8.873-22.114,11.741-33.864,7.335l-6.829-2.561L423.781,333.698z"/>
	<circle style="fill:#727887;" cx="248" cy="440" r="16"/>
	<path style="fill:#625448;" d="M156.089,240c0,35,4.244,118.333,43.911,176c0,0-8-92.667-8-141L156.089,240z"/>
	<path style="fill:#F0C891;" d="M336,80c-6.875-1.875-18.047-3.359-30.159-4.514c-38.462-3.667-77.22-3.667-115.683,0
		C178.047,76.641,166.875,78.125,160,80c-22,6-24,72-24,72c0,64.065,63.714,144,112,144s112-79.935,112-144C360,152,358,86,336,80z"
		/>
	<path style="fill:#727887;" d="M339.911,216c-17.469,38.018-52.091,64-91.911,64s-74.442-25.982-91.911-64h-17.318
		c18.879,47.103,60.687,80,109.229,80s90.35-32.897,109.229-80H339.911z"/>
	<path style="fill:#54596A;" d="M248,0c-75.111,0-136,42.144-136,104c0,53.988,5.566,95.078,17.02,125.617
		c2.406,6.426,8.504,10.387,14.984,10.387c2.312,0,4.678-0.505,6.941-1.59c7.532-3.61,10.696-12.824,7.802-20.659
		c-7.472-20.226-12.114-47.354-13.895-80.856c-0.487-9.155,6.834-16.899,16.003-16.899h174.29c9.168,0,16.489,7.744,16.003,16.899
		c-1.781,33.501-6.422,60.63-13.895,80.856c-2.894,7.835,0.27,17.049,7.802,20.659c2.263,1.085,4.629,1.59,6.941,1.59
		c6.48,0,12.578-3.965,14.984-10.387C378.434,199.078,384,157.988,384,104C384,42.144,323.111,0,248,0z"/>
	<path style="fill:#464B5F;" d="M144.898,136c0.028-8.751,7.095-16,15.957-16h174.29c8.861,0,15.928,7.249,15.957,16h32.11
		c0.487-10.163,0.789-20.736,0.789-32H112c0,11.264,0.301,21.837,0.789,32H144.898z"/>
	<path style="fill:#464B5F;" d="M200,290.424c0,3.518,2.281,6.577,5.626,7.666C216.908,301.762,231.727,304,248,304
		s31.092-2.238,42.374-5.91c3.345-1.089,5.626-4.148,5.626-7.666V280c0-8.837-7.163-16-16-16h-64c-8.837,0-16,7.163-16,16V290.424z"
		/>
	<path style="fill:#F9E2C2;" d="M329.272,216H166.083c-12.482,0-22.881-9.568-23.917-22.007L136,120h221.229l-3.993,73.305
		C352.543,206.034,342.019,216,329.272,216z"/>
	<path style="fill:#727887;" d="M123.293,432.765l18.972-7.114c13.614-5.105,19.598-21.048,12.704-33.85l-35.343-65.636
		c-4.205-7.81-13.962-10.708-21.749-6.461L33.386,354.88c-4.689,2.557-5.603,8.903-1.826,12.68l57.87,57.87
		C98.303,434.303,111.544,437.171,123.293,432.765z"/>
	<path style="fill:#646978;" d="M72.219,333.698L33.386,354.88c-4.688,2.558-5.603,8.904-1.826,12.68l57.87,57.87
		c8.874,8.873,22.114,11.741,33.864,7.335l6.829-2.561L72.219,333.698z"/>
</g>
<g>
</g>
<g>
</g>
<g>
</g>
<g>
</g>
<g>
</g>
<g>
</g>
<g>
</g>
<g>
</g>
<g>
</g>
<g>
</g>
<g>
</g>
<g>
</g>
<g>
</g>
<g>
</g>
<g>
</g>
</svg>
