<?xml version="1.0" encoding="iso-8859-1"?>
<!-- Generator: Adobe Illustrator 19.0.0, SVG Export Plug-In . SVG Version: 6.00 Build 0)  -->
<svg version="1.1" id="Layer_1" xmlns="http://www.w3.org/2000/svg" xmlns:xlink="http://www.w3.org/1999/xlink" x="0px" y="0px"
	 viewBox="0 0 496 496" style="enable-background:new 0 0 496 496;" xml:space="preserve">
<g>
	<path style="fill:#97785E;" d="M448,399.223c-0.024-28.153-10.453-52.985-37.388-61.177l-74.799-20.308l-0.273,0.221l0.132-0.148
		C317.781,306.293,320,272.009,320,264.009h-0.298C346.659,234.839,360,190.594,360,152.077c0-64.065-50.144-88-112-88
		s-112,23.935-112,88c0,38.517,13.341,82.762,40.298,111.932H176c0,8,2,42.284-15.89,53.803l0.444,0.496l-0.522-0.422
		l-66.823,20.259c-26.922,8.237-45.299,33.1-45.276,61.253L48,472c0.011,13.255,10.765,23.991,24.02,23.98L248.078,496l176.01-0.155
		c13.255-0.011,23.991-10.765,23.98-24.02L448,399.223z"/>
	<path style="fill:#856953;" d="M336,360.009l-0.329-42.197C317.781,306.293,320,272.009,320,264.009H176
		C192.333,302.342,263,355.009,336,360.009z"/>
	<path style="fill:#A28367;" d="M360,152.077c0,64.065-36.889,144-112,144s-112-79.935-112-144s50.144-88,112-88
		S360,88.012,360,152.077z"/>
	<path style="fill:#D2D7DC;" d="M339.911,216.009c-17.469,38.018-52.091,64-91.911,64s-74.442-25.982-91.911-64h-17.318
		c18.879,47.103,60.687,80,109.229,80s90.35-32.897,109.229-80H339.911z"/>
	<path style="fill:#E6EBF0;" d="M248,0c-75.111,0-136,42.153-136,104.009c0,53.988,5.566,95.078,17.02,125.617
		c2.406,6.426,8.504,10.387,14.984,10.387c2.312,0,4.678-0.505,6.941-1.59c7.532-3.61,10.696-12.824,7.802-20.659
		c-7.472-20.226-12.114-47.354-13.895-80.856c-0.487-9.155,6.834-16.899,16.003-16.899h174.29c9.168,0,16.489,7.744,16.003,16.899
		c-1.781,33.501-6.422,60.63-13.895,80.856c-2.894,7.835,0.27,17.049,7.802,20.659c2.263,1.085,4.629,1.59,6.941,1.59
		c6.48,0,12.578-3.965,14.984-10.387C378.434,199.087,384,157.997,384,104.009C384,42.153,323.111,0,248,0z"/>
	<path style="fill:#FF8750;" d="M144.898,136.009c0.028-8.751,7.095-16,15.957-16h174.29c8.861,0,15.928,7.249,15.957,16h32.11
		c0.487-10.163,0.789-20.736,0.789-32H112c0,11.264,0.301,21.837,0.789,32H144.898z"/>
	<path style="fill:#E6EBF0;" d="M200,290.433c0,3.518,2.281,6.577,5.626,7.666c11.282,3.672,26.101,5.91,42.374,5.91
		s31.092-2.238,42.374-5.91c3.345-1.089,5.626-4.148,5.626-7.666v-10.424c0-8.837-7.163-16-16-16h-64c-8.837,0-16,7.163-16,16
		V290.433z"/>
	<path style="fill:#E6EBF0;" d="M425.136,312.768l-61.705-14.476c-9.642-2.262-19.645,1.587-25.238,9.76
		c-12.662,18.499-40.671,51.883-90.193,75.957c-49.522-24.073-77.531-57.458-90.193-75.957c-5.594-8.173-15.596-12.022-25.238-9.76
		l-61.705,14.476C52.783,317.01,40,333.139,40,351.71v64.298l80,40V496h128h128v-39.991l80-40V351.71
		C456,333.139,443.217,317.01,425.136,312.768z"/>
	<path style="fill:#FF8750;" d="M363.432,298.292c-9.642-2.262-19.645,1.587-25.238,9.76
		c-12.662,18.499-40.671,51.883-90.193,75.957c-49.522-24.073-77.531-57.458-90.193-75.957c-5.594-8.173-15.596-12.022-25.238-9.76
		l-12.674,2.973c17.644,26.477,54.429,71.406,117.012,104.025L248,411.075l11.094-5.785
		c62.583-32.619,99.368-77.548,117.012-104.025L363.432,298.292z"/>
	<path style="fill:#7D645A;" d="M360,120.009H136c-13.234,0-24,10.766-24,24v34.023c0,15.391,2.328,30.645,6.918,45.34l22.918,73.34
		c7.344,23.504,28.828,39.297,53.453,39.297h105.422c24.625,0,46.109-15.793,53.453-39.297l22.918-73.34
		c4.59-14.695,6.918-29.949,6.918-45.34v-34.023C384,130.774,373.234,120.009,360,120.009z M128,144.009c0-4.41,3.59-8,8-8h224
		c4.41,0,8,3.59,8,8v34.023c0,11.666-1.585,23.228-4.541,34.488l-18.334-29.047c-2.949-4.676-8.008-7.465-13.535-7.465H164.41
		c-5.527,0-10.586,2.789-13.531,7.461l-18.338,29.051c-2.956-11.26-4.541-22.822-4.541-34.489V144.009z M138.64,232.835
		l25.77-40.826h20.432l6.222,56h-47.682L138.64,232.835z M200.936,192.009H240v56h-32.842L200.936,192.009z M287.064,264.009
		l-6.222,56h-65.684l-6.222-56H287.064z M256,248.009v-56h39.064l-6.222,56H256z M311.158,192.009h20.432l25.77,40.826
		l-4.742,15.174h-47.682L311.158,192.009z M157.109,291.938l-8.728-27.93h44.46l6.222,56h-3.775
		C177.699,320.009,162.355,308.728,157.109,291.938z M338.891,291.938c-5.246,16.789-20.59,28.07-38.18,28.07h-3.775l6.222-56h44.46
		L338.891,291.938z"/>
	<path style="fill:#FF8750;" d="M456.115,409.227L376,445.644H120l-80.115-36.417c-3.692-1.678-7.885,1.021-7.885,5.077v10.676
		c0,4.281,2.502,8.166,6.399,9.938L120,472.009v-16h256v16l81.601-37.092c3.897-1.771,6.399-5.657,6.399-9.938v-10.676
		C464,410.247,459.808,407.548,456.115,409.227z"/>
</g>
<g>
</g>
<g>
</g>
<g>
</g>
<g>
</g>
<g>
</g>
<g>
</g>
<g>
</g>
<g>
</g>
<g>
</g>
<g>
</g>
<g>
</g>
<g>
</g>
<g>
</g>
<g>
</g>
<g>
</g>
</svg>
