<?xml version="1.0" encoding="iso-8859-1"?>
<!-- Generator: Adobe Illustrator 19.0.0, SVG Export Plug-In . SVG Version: 6.00 Build 0)  -->
<svg version="1.1" id="Layer_1" xmlns="http://www.w3.org/2000/svg" xmlns:xlink="http://www.w3.org/1999/xlink" x="0px" y="0px"
	 viewBox="0 0 488 488" style="enable-background:new 0 0 488 488;" xml:space="preserve">
<g>
	<path style="fill:#FF5F64;" d="M326.111,293.143L316,264H172l-10.111,29.143c-3.598,10.371-12.261,18.174-22.951,20.672
		l-45.501,10.633C64.481,331.214,44,357.033,44,386.769V464c0,13.255,10.745,24,24,24h176h176c13.255,0,24-10.745,24-24v-77.231
		c0-29.736-20.481-55.555-49.437-62.321l-45.501-10.633C338.372,311.317,329.709,303.514,326.111,293.143z"/>
	<path style="fill:#F04B50;" d="M244,360c54.844,0,106.846-12.769,148.509-36.032l-43.447-10.153
		c-2.223-0.52-4.331-1.318-6.351-2.271C312.875,322.25,279.175,328,244,328s-68.875-5.75-98.71-16.457
		c-2.02,0.954-4.128,1.752-6.351,2.271l-43.447,10.153C137.154,347.231,189.156,360,244,360z"/>
	<path style="fill:#464B5F;" d="M244,344c48.517,0,92.445-9.817,124.281-25.694l-19.22-4.491
		c-10.689-2.498-19.353-10.301-22.951-20.672L316,264H172l-10.111,29.143c-3.598,10.371-12.261,18.174-22.951,20.672l-19.22,4.491
		C151.555,334.183,195.483,344,244,344z"/>
	<path style="fill:#54596A;" d="M372,144c0,83.947-64.625,160-128,160s-128-76.053-128-160S168.889,0,244,0S372,60.053,372,144z"/>
	<path style="fill:#646978;" d="M244,304c63.375,0,128-76.053,128-160H116C116,227.947,180.625,304,244,304z"/>
	<path style="fill:#F04B50;" d="M423.746,340.101l-43.856,39.47c-10.114,9.103-15.89,22.071-15.89,35.678V488h56
		c13.255,0,24-10.745,24-24v-77.231C444,368.586,436.316,351.894,423.746,340.101z"/>
	<path style="fill:#F04B50;" d="M64.254,340.101l43.856,39.47c10.114,9.103,15.89,22.071,15.89,35.678V488H68
		c-13.255,0-24-10.745-24-24v-77.231C44,368.586,51.684,351.894,64.254,340.101z"/>
	<path style="fill:#464B5F;" d="M136.861,144H116c0,20.135,3.797,39.779,10.324,58.065l27.43,5.486L136.861,144z"/>
	<path style="fill:#464B5F;" d="M351.139,144H372c0,20.135-3.797,39.779-10.324,58.065l-27.43,5.486L351.139,144z"/>
	<path style="fill:#E6D79B;" d="M209.533,218.467l5.78-5.78c3.001-3.001,7.07-4.686,11.314-4.686h34.745
		c4.243,0,8.313,1.686,11.314,4.686l5.78,5.78c3.491,3.491,8.399,5.175,13.298,4.563l30.237-3.78
		c8.946-1.118,16.549-7.12,19.605-15.602C351.068,177.389,355.648,144,355.648,144H132.352c0,0,4.58,33.389,14.041,59.647
		c3.056,8.482,10.659,14.484,19.605,15.602l30.237,3.78C201.134,223.642,206.042,221.958,209.533,218.467z"/>
</g>
<g>
</g>
<g>
</g>
<g>
</g>
<g>
</g>
<g>
</g>
<g>
</g>
<g>
</g>
<g>
</g>
<g>
</g>
<g>
</g>
<g>
</g>
<g>
</g>
<g>
</g>
<g>
</g>
<g>
</g>
</svg>
