<?xml version="1.0" encoding="iso-8859-1"?>
<!-- Generator: Adobe Illustrator 19.0.0, SVG Export Plug-In . SVG Version: 6.00 Build 0)  -->
<svg version="1.1" id="Layer_1" xmlns="http://www.w3.org/2000/svg" xmlns:xlink="http://www.w3.org/1999/xlink" x="0px" y="0px"
	 viewBox="0 0 496 496" style="enable-background:new 0 0 496 496;" xml:space="preserve">
<g>
	<path style="fill:#8CE69B;" d="M424.1,347.55l-83.078-21.593c-0.101-0.58-0.222-1.16-0.386-1.736L328,280H168l-12.635,44.221
		c-0.165,0.576-0.285,1.156-0.386,1.736L71.9,347.55C43.692,354.882,24,380.346,24,409.492V472c0,13.255,10.745,24,24,24h400
		c13.255,0,24-10.745,24-24v-62.508C472,380.346,452.308,354.882,424.1,347.55z"/>
	<rect x="232" y="368" style="fill:#82D6A3;" width="32" height="128"/>
	<path style="fill:#64AFA0;" d="M328,280H168l-12.635,44.221c-2.005,7.017,0.755,14.526,6.827,18.574l17.646,11.764
		c41.275,27.517,95.047,27.517,136.322,0l17.646-11.764c6.072-4.048,8.832-11.557,6.827-18.574L328,280z"/>
	<path style="fill:#73BEAF;" d="M248,320c-31.303,0-59.761-13.732-81.12-36.08l-11.515,40.301
		c-2.005,7.017,0.755,14.525,6.827,18.573l17.647,11.765c28.174,18.783,62.125,24.54,93.989,17.647
		c3.634-0.786,6.172-4.131,6.172-7.85V344v-18.653c0-5.116-4.718-8.854-9.717-7.765C263.064,319.153,255.621,320,248,320z"/>
	<path style="fill:#FFE1B4;" d="M360,160.068c0,64.065-36.889,144-112,144s-112-79.935-112-144s50.144-88,112-88
		S360,96.003,360,160.068z"/>
	<path style="fill:#826E69;" d="M339.911,240c-17.469,38.018-52.091,64-91.911,64s-74.442-25.982-91.911-64h-17.318
		c18.879,47.103,60.687,80,109.229,80s90.35-32.897,109.229-80H339.911z"/>
	<path style="fill:#64464B;" d="M248,0c-75.111,0-136,50.144-136,112c0,53.988,5.566,95.078,17.02,125.617
		c2.406,6.426,8.504,10.387,14.984,10.387c2.312,0,4.678-0.505,6.941-1.59c7.532-3.61,10.696-12.824,7.802-20.659
		c-7.472-20.226-12.114-47.354-13.895-80.856c-0.487-9.155,6.834-16.899,16.003-16.899h174.29c9.168,0,16.489,7.744,16.003,16.899
		c-1.781,33.501-6.422,60.63-13.895,80.856c-2.894,7.835,0.27,17.049,7.802,20.659c2.263,1.085,4.629,1.59,6.941,1.59
		c6.48,0,12.578-3.965,14.984-10.387C378.434,207.078,384,165.988,384,112C384,50.144,323.111,0,248,0z"/>
	<path style="fill:#826E69;" d="M136.987,136.883l5.721,51.489c0.769,6.925,5.932,12.556,12.764,13.922l58.89,11.778
		c5.586,1.117,11.173-1.91,13.288-7.198l9.378-23.446c1.795-4.486,6.14-7.428,10.972-7.428l0,0c4.832,0,9.177,2.942,10.971,7.428
		l9.378,23.446c2.115,5.289,7.703,8.315,13.288,7.198l58.89-11.778c6.832-1.366,11.995-6.997,12.764-13.922l5.721-51.489
		c0.527-4.739-3.183-8.883-7.951-8.883H144.938C140.17,128,136.461,132.145,136.987,136.883z"/>
	<polygon style="fill:#C8E69B;" points="144,136 152,192 216,208 232,168 264,168 280,208 344,192 352,136 	"/>
	<path style="fill:#826E69;" d="M112,128h40v40l-41.315-6.886c-3.858-0.643-6.685-3.98-6.685-7.891V136
		C104,131.582,107.582,128,112,128z"/>
	<path style="fill:#826E69;" d="M384,128h-40v40l41.315-6.886c3.858-0.643,6.685-3.98,6.685-7.891V136
		C392,131.582,388.418,128,384,128z"/>
	<path style="fill:#8CE69B;" d="M384,128H112c-4.418,0-8,3.582-8,8s3.582,8,8,8h25.778l4.93,44.372
		c0.769,6.925,5.932,12.556,12.764,13.922l58.89,11.778c0.777,0.156,1.555,0.231,2.323,0.231c4.751,0,9.144-2.876,10.965-7.429
		l9.378-23.446c1.795-4.486,6.14-7.428,10.972-7.428s9.177,2.942,10.971,7.428l9.378,23.446c1.821,4.552,6.215,7.429,10.965,7.429
		c0.768,0,1.545-0.075,2.323-0.231l58.89-11.778c6.832-1.366,11.995-6.997,12.764-13.922l4.93-44.372H384c4.418,0,8-3.582,8-8
		S388.418,128,384,128z M337.39,186.605l-55.477,11.096l-8.086-20.215C269.578,166.864,259.44,160,248,160
		s-21.578,6.864-25.827,17.486l-8.086,20.215l-55.477-11.095L153.876,144h188.247L337.39,186.605z"/>
	<circle style="fill:#64AFA0;" cx="256" cy="360" r="8"/>
	<circle style="fill:#64AFA0;" cx="256" cy="336" r="8"/>
	<path style="fill:#82D6A3;" d="M43.522,363.522C31.374,375.285,24,391.689,24,409.492V472c0,13.255,10.745,24,24,24h56v-53.83
		c0-11.703-4.275-15.012-12.022-23.783L43.522,363.522z"/>
	<path style="fill:#82D6A3;" d="M452.478,363.522C464.626,375.285,472,391.689,472,409.492V472c0,13.255-10.745,24-24,24h-56v-53.83
		c0-11.703,4.275-15.012,12.022-23.783L452.478,363.522z"/>
</g>
<g>
</g>
<g>
</g>
<g>
</g>
<g>
</g>
<g>
</g>
<g>
</g>
<g>
</g>
<g>
</g>
<g>
</g>
<g>
</g>
<g>
</g>
<g>
</g>
<g>
</g>
<g>
</g>
<g>
</g>
</svg>
