<?xml version="1.0" encoding="iso-8859-1"?>
<!-- Generator: Adobe Illustrator 19.0.0, SVG Export Plug-In . SVG Version: 6.00 Build 0)  -->
<svg version="1.1" id="Layer_1" xmlns="http://www.w3.org/2000/svg" xmlns:xlink="http://www.w3.org/1999/xlink" x="0px" y="0px"
	 viewBox="0 0 496 496" style="enable-background:new 0 0 496 496;" xml:space="preserve">
<g>
	<path style="fill:#97785E;" d="M402.673,298.174l-66.782-20.371l-0.792,0.641l0.572-0.641c-14.25-9.175-15.74-32.781-15.757-46.055
		c10.911-11.881,19.581-26.234,26.023-41.674C362.051,200.755,376,166.902,376,152.069c0-10.916-6.462-17.162-16.708-16.681
		c0.454-5.171,0.708-10.297,0.708-15.319c0-0.024-0.003-0.044-0.003-0.068H360v-36.61c0-37.723-26.352-70.32-63.238-78.225l0,0
		c-32.143-6.888-65.38-6.888-97.523,0l0,0C162.352,13.07,136,45.667,136,83.391V120h0.003c0,0.024-0.003,0.044-0.003,0.068
		c0,5.08,0.259,10.266,0.723,15.498C126.534,134.371,120,140.624,120,152.069c0,15.455,13.87,51.597,29.406,36.451
		c6.5,16.024,15.386,30.93,26.657,43.205c-0.072,13.271-1.695,36.898-15.953,46.078l0.001,0.001l-0.001-0.001l-66.782,20.371
		C66.399,306.388,48,331.236,48,359.389V472c0,13.255,10.745,24,24,24h176h176c13.255,0,24-10.745,24-24V359.389
		C448,331.236,429.602,306.388,402.673,298.174z"/>
	<path style="fill:#856953;" d="M336,320l-0.329-42.197C317.781,266.285,320,232,320,224H176C192.334,262.334,263,315,336,320z"/>
	<path style="fill:#5F69BE;" d="M354.43,278.144l-12.223-4.074c-3.086-1.029-6.207,1.232-6.335,4.483
		C333.377,341.779,294.989,392,248,392s-85.376-50.221-87.871-113.448c-0.128-3.25-3.249-5.512-6.335-4.483l-12.223,4.074
		c-3.331,1.11-5.566,4.277-5.593,7.788C135.317,374.154,120,400,120,400v96h128h128v-96c0,0-15.317-25.847-15.978-114.069
		C359.996,282.421,357.76,279.254,354.43,278.144z"/>
	<path style="fill:#FF6955;" d="M248,408c56.078,0,101.664-58.084,103.796-130.734l-9.59-3.197
		c-3.086-1.029-6.207,1.232-6.335,4.482C333.377,341.779,294.99,392,248,392s-85.376-50.221-87.871-113.449
		c-0.128-3.25-3.249-5.511-6.335-4.482l-9.59,3.197C146.336,349.916,191.922,408,248,408z"/>
	<path style="fill:#A28367;" d="M359.292,135.388c0.454-5.171,0.708-10.297,0.708-15.319c0-0.024-0.003-0.044-0.003-0.068H360
		v-36.61c0-37.723-26.352-70.32-63.238-78.225l0,0c-32.143-6.888-65.38-6.888-97.523,0l0,0C162.352,13.07,136,45.667,136,83.391V120
		h0.003c0,0.024-0.003,0.044-0.003,0.068c0,5.08,0.259,10.266,0.723,15.498C126.534,134.371,120,140.624,120,152.069
		c0,15.455,13.87,51.597,29.406,36.451c16.827,41.478,49.561,75.549,98.594,75.549c48.417,0,80.927-33.227,97.937-73.995
		C362.051,200.755,376,166.902,376,152.069C376,141.153,369.538,134.907,359.292,135.388z"/>
	<path style="fill:#735848;" d="M360,83.391c0-37.723-26.352-70.32-63.238-78.225l0,0C280.69,1.722,264.345,0,248,0
		s-32.69,1.722-48.762,5.166l0,0C162.352,13.07,136,45.667,136,83.391V120h0.003c0,0.024-0.003,0.044-0.003,0.068
		c0,3.398,0.126,6.849,0.334,10.322l0.389,5.175L152,144l16-72h160l16,72l15.292-8.612l0.374-4.997
		c0.208-3.474,0.334-6.924,0.334-10.322c0-0.024-0.003-0.044-0.003-0.068H360V83.391z"/>
</g>
<g>
</g>
<g>
</g>
<g>
</g>
<g>
</g>
<g>
</g>
<g>
</g>
<g>
</g>
<g>
</g>
<g>
</g>
<g>
</g>
<g>
</g>
<g>
</g>
<g>
</g>
<g>
</g>
<g>
</g>
</svg>
