<?xml version="1.0" encoding="iso-8859-1"?>
<!-- Generator: Adobe Illustrator 19.0.0, SVG Export Plug-In . SVG Version: 6.00 Build 0)  -->
<svg version="1.1" id="Layer_1" xmlns="http://www.w3.org/2000/svg" xmlns:xlink="http://www.w3.org/1999/xlink" x="0px" y="0px"
	 viewBox="0 0 496 496" style="enable-background:new 0 0 496 496;" xml:space="preserve">
<g>
	<path style="fill:#B49B73;" d="M319.257,48C314.264,20.863,284.271,0,248,0s-66.264,20.863-71.257,48H319.257z"/>
	<path style="fill:#FAD7A5;" d="M404.239,385.413l-78.358-26.119C312.814,354.938,304,342.709,304,328.936v-20.978
		c17.09-16.121,32.479-37.68,42.78-60.575c15.756,8.991,29.22-24.067,29.22-38.643c0-10.662-6.166-16.866-16-16.702
		c0-0.01,0-0.019,0-0.029c0,0-2-66-24-72c-6.875-1.875-18.047-3.359-30.159-4.514c-38.462-3.667-77.22-3.667-115.683,0
		c-12.112,1.155-23.284,2.639-30.159,4.514c-22,6-24,72-24,72c0,0.01,0,0.02,0,0.029c-9.835-0.165-16,6.04-16,16.702
		c0,14.576,13.463,47.634,29.22,38.643c10.301,22.896,25.69,44.454,42.78,60.575v20.978c0,13.774-8.814,26.002-21.881,30.358
		L91.76,385.413C65.627,394.124,48,418.581,48,446.128V472c0,13.255,10.745,24,24,24h352c13.255,0,24-10.745,24-24v-25.872
		C448,418.581,430.373,394.124,404.239,385.413z"/>
	<path style="fill:#C8AA7D;" d="M120,208.74v-89.99c0-52.324,57.307-86.741,128-86.741l0,0c70.692,0,128,34.417,128,86.741v89.99
		H120z"/>
	<path style="fill:#F0C891;" d="M337.632,363.21l-11.751-3.917C312.814,354.938,304,342.709,304,328.936v-22.25V288h-88l-24,19.958
		C198.992,327.663,241.787,381.405,337.632,363.21z"/>
	<path style="fill:#FFE1B4;" d="M360,192.038c0-0.01,0-0.019,0-0.029c0,0-2-66-24-72c-6.875-1.875-18.047-3.359-30.159-4.514
		c-38.462-3.667-77.22-3.667-115.683,0c-12.112,1.155-23.284,2.639-30.159,4.514c-22,6-24,72-24,72c0,0.01,0,0.02,0,0.029
		c-9.835-0.165-16,6.04-16,16.702c0,14.576,13.463,47.634,29.22,38.643c21.211,47.146,63.997,88.626,98.78,88.626
		s77.569-41.48,98.78-88.626c15.756,8.991,29.22-24.067,29.22-38.643C376,198.078,369.834,191.873,360,192.038z"/>
	<path style="fill:#5F87B9;" d="M363.649,369.216c-1.821-0.607-3.649,0.726-3.714,2.644C357.9,431.929,308.564,480,248,480
		s-109.9-48.071-111.935-108.139c-0.065-1.919-1.893-3.251-3.714-2.644l-15.299,5.1c-3.017,1.006-5.052,3.829-5.052,7.01V496h272
		V381.326c0-3.18-2.035-6.004-5.052-7.01L363.649,369.216z"/>
	<path style="fill:#E6EBF0;" d="M375.735,373.245l-12.086-4.029c-1.821-0.607-3.649,0.726-3.714,2.644
		C357.9,431.929,308.564,480,248,480s-109.9-48.071-111.935-108.14c-0.065-1.918-1.893-3.251-3.714-2.644l-12.086,4.029
		C123.037,441.486,179.078,496,248,496S372.963,441.486,375.735,373.245z"/>
	<path style="fill:#C8AA7D;" d="M159.418,111c-5.504,29.397-4.293,73.009-23.418,73.009c-12.25,0,0,8,0,8
		c30.879,0,37.935-66.419,69.304-81.009H159.418z"/>
</g>
<g>
</g>
<g>
</g>
<g>
</g>
<g>
</g>
<g>
</g>
<g>
</g>
<g>
</g>
<g>
</g>
<g>
</g>
<g>
</g>
<g>
</g>
<g>
</g>
<g>
</g>
<g>
</g>
<g>
</g>
</svg>
