<?xml version="1.0" encoding="iso-8859-1"?>
<!-- Generator: Adobe Illustrator 19.0.0, SVG Export Plug-In . SVG Version: 6.00 Build 0)  -->
<svg version="1.1" id="Layer_1" xmlns="http://www.w3.org/2000/svg" xmlns:xlink="http://www.w3.org/1999/xlink" x="0px" y="0px"
	 viewBox="0 0 496 496" style="enable-background:new 0 0 496 496;" xml:space="preserve">
<g>
	<path style="fill:#E6B47D;" d="M403.27,385.353l-73.694-20.471C319.189,361.997,312,352.539,312,341.758v-10.381
		c0-4.224-4.334-6.814-8-5.19v-18.239c17.09-16.121,32.479-37.68,42.78-60.575c15.756,8.991,29.22-24.067,29.22-38.643
		c0-10.662-6.166-16.866-16-16.702c0-0.01,0-0.019,0-0.029l-24-72H160l-24,72c0,0.01,0,0.019,0,0.029
		c-9.835-0.165-16,6.04-16,16.702c0,14.576,13.463,47.634,29.22,38.643c10.301,22.896,25.69,44.454,42.78,60.575v18.239
		c-3.666-1.625-8,0.965-8,5.19v10.381c0,10.781-7.189,20.239-17.577,23.124L92.73,385.353C61.567,394.009,40,422.383,40,454.726V472
		c0,13.255,10.745,24,24,24h368c13.255,0,24-10.745,24-24v-25.274C456,414.383,434.433,394.009,403.27,385.353z"/>
	<path style="fill:#D2A073;" d="M303,306H192.77c3.816,9.255,13.8,25.607,31.14,40H303V306z"/>
	<path style="fill:#FF5F64;" d="M312,341.758v-10.381c0-4.567-5.068-7.235-8.879-4.718C292.368,333.762,272.602,344,248,344
		s-44.368-10.238-55.121-17.341c-3.811-2.517-8.879,0.151-8.879,4.718v10.381c0,10.781-7.189,20.239-17.577,23.124l-73.694,20.47
		C61.567,394.009,40,422.383,40,454.726V472c0,13.255,10.745,24,24,24h184h184c13.255,0,24-10.745,24-24v-25.274
		c0-32.343-21.567-52.717-52.73-61.373l-73.694-20.47C319.189,361.997,312,352.539,312,341.758z"/>
	<path style="fill:#F04B50;" d="M166.394,364.891C179.412,385.462,211.014,400,248,400s68.588-14.538,81.606-35.109l-0.03-0.008
		C319.189,361.997,312,352.539,312,341.758v-10.38c0-4.567-5.068-7.235-8.879-4.718C292.369,333.762,272.602,344,248,344
		s-44.369-10.238-55.121-17.341c-3.811-2.517-8.879,0.151-8.879,4.718v10.38c0,10.781-7.189,20.239-17.577,23.125L166.394,364.891z"
		/>
	<path style="fill:#73554B;" d="M112,424c6.449,17.449,21.522,36.038,28.426,44h2.844c-1.019-9.165-0.437-34.186,24.729-76
		c30.511-50.696,24-65.197,24-88c0-17.75,0-72,0-72h-64.784C121.55,318.309,87.629,358.055,112,424z"/>
	<circle style="fill:#E6EBF0;" cx="248" cy="32" r="32"/>
	<path style="fill:#73554B;" d="M376,336c-14.511-29.876-18.089-63.39-17.428-92h-37.649H296c0,122,15,112.667,32.333,190
		c0,0,9.333-18.667,7.667-42c0,0,16,52,16,72C352,464,411.916,409.945,376,336z"/>
	<path style="fill:#F0C891;" d="M360,192.029c0-0.01,0-0.019,0-0.029l-24-25H160l-24,25c0,0.01,0,0.019,0,0.029
		c-9.835-0.165-16,6.04-16,16.702c0,14.576,13.463,47.634,29.22,38.643C170.431,294.52,213.217,336,248,336
		s77.569-41.48,98.78-88.626c15.756,8.991,29.22-24.067,29.22-38.643C376,198.069,369.834,191.865,360,192.029z"/>
	<polygon style="fill:#C8E69B;" points="144,184 152,240 216,256 232,216 264,216 280,256 344,240 352,184 	"/>
	<path style="fill:#738296;" d="M342.124,192l-4.734,42.605l-55.477,11.096l-8.086-20.215C269.578,214.863,259.44,208,248,208
		s-21.578,6.863-25.827,17.486l-8.086,20.215l-55.477-11.095L153.876,192H342.124 M351.062,176H144.938
		c-4.768,0-8.478,4.145-7.951,8.883l5.721,51.489c0.769,6.925,5.932,12.556,12.764,13.922l58.89,11.778
		c0.777,0.155,1.555,0.231,2.323,0.231c4.751,0,9.144-2.876,10.965-7.429l9.378-23.446c1.795-4.486,6.14-7.428,10.972-7.428
		s9.177,2.942,10.971,7.428l9.378,23.446c1.821,4.552,6.215,7.429,10.965,7.429c0.768,0,1.545-0.075,2.323-0.231l58.89-11.778
		c6.832-1.366,11.995-6.997,12.764-13.922l5.721-51.489C359.54,180.145,355.83,176,351.062,176L351.062,176z"/>
	<path style="fill:#F04B50;" d="M336,53.437C320,36.879,288.667,24,248,24l0,0l0,0l0,0l0,0c-40.667,0-72,12.879-88,29.437
		c-25.842,26.744-40.892,112.954-46.008,147.443c-0.778,5.248,5.56,8.781,10.291,5.762c20.157-12.863,64.054-35.458,123.718-35.458
		s103.561,22.595,123.717,35.458c4.73,3.019,11.069-0.515,10.291-5.762C376.892,166.391,361.842,80.181,336,53.437z"/>
	<path style="fill:#F04B50;" d="M455.72,440.57c-0.129-1.443-0.333-2.842-0.553-4.233c-0.079-0.508-0.141-1.02-0.232-1.524
		c-0.304-1.657-0.665-3.28-1.095-4.861c-0.02-0.076-0.038-0.151-0.058-0.227c-3.083-11.15-9.302-20.357-17.811-27.7l-44.082,39.673
		C381.775,450.802,376,463.77,376,477.377V496h56c13.255,0,24-10.745,24-24v-25.274c0-1.251-0.091-2.452-0.155-3.667
		C455.805,442.229,455.792,441.394,455.72,440.57z"/>
	<path style="fill:#D73741;" d="M208.695,42.89c3.434-6.966,8.098-12.653,13.547-16.972c-9.132,1.339-17.579,3.344-25.255,5.913
		c-0.992,1.623-1.999,3.232-2.862,4.983c-13.297,26.994-21.236,107.892-24.448,147.879c5.171-1.835,10.652-3.569,16.429-5.154
		C189.915,134.08,197.694,65.225,208.695,42.89z"/>
	<path style="fill:#D73741;" d="M240.383,40.95c1.243-7.575,2.791-12.987,4.258-16.817c-5.888,0.106-11.534,0.508-16.994,1.128
		c-1.178,4.024-2.248,8.392-3.084,13.49c-3.945,24.011-6.46,92.433-7.682,134.52c5.184-0.695,10.561-1.193,16.06-1.547
		C234.179,129.779,236.646,63.705,240.383,40.95z"/>
	<path style="fill:#D73741;" d="M145.435,194.856c5.493-48.288,18.355-126.913,36.635-150.766c3.179-4.148,7.088-7.838,11.52-11.107
		c-14.344,5.254-25.809,12.4-33.59,20.453c-0.582,0.602-1.129,1.387-1.7,2.048c-18.529,45.2-27.902,128.561-29.949,148.632
		C133.079,201.261,138.829,198.081,145.435,194.856z"/>
	<path style="fill:#D73741;" d="M301.875,36.81c-0.862-1.749-1.869-3.357-2.86-4.979c-7.676-2.569-16.124-4.575-25.256-5.913
		c5.449,4.318,10.113,10.004,13.546,16.968c10.675,21.68,18.523,88.186,22.579,136.649c5.79,1.588,11.281,3.326,16.463,5.166
		C323.134,144.158,315.296,64.057,301.875,36.81z"/>
	<path style="fill:#D73741;" d="M271.438,38.751c-0.836-5.098-1.906-9.465-3.084-13.489c-5.46-0.62-11.106-1.022-16.994-1.128
		c1.468,3.83,3.015,9.242,4.258,16.817c3.722,22.65,6.195,88.794,7.438,130.773c5.499,0.354,10.875,0.852,16.06,1.547
		C277.887,131.142,275.362,62.648,271.438,38.751z"/>
	<path style="fill:#D73741;" d="M337.667,55.445c-0.56-0.647-1.097-1.418-1.667-2.008c-7.781-8.053-19.247-15.199-33.591-20.453
		c4.433,3.269,8.342,6.959,11.521,11.107c18.202,23.75,31.097,102.432,36.624,150.761c6.609,3.225,12.364,6.407,17.093,9.265
		C365.594,184.093,356.156,100.606,337.667,55.445z"/>
	<path style="fill:#E6EBF0;" d="M304,464H192c-17.673,0-32,14.327-32,32l0,0h176l0,0C336,478.327,321.673,464,304,464z"/>
	<path style="fill:#F04B50;" d="M104.11,441.699L61.556,403.4C48.12,416.614,40,434.913,40,454.726V472c0,13.255,10.745,24,24,24h56
		v-18.623C120,463.77,114.225,450.802,104.11,441.699z"/>
</g>
<g>
</g>
<g>
</g>
<g>
</g>
<g>
</g>
<g>
</g>
<g>
</g>
<g>
</g>
<g>
</g>
<g>
</g>
<g>
</g>
<g>
</g>
<g>
</g>
<g>
</g>
<g>
</g>
<g>
</g>
</svg>
