<?xml version="1.0" encoding="iso-8859-1"?>
<!-- Generator: Adobe Illustrator 19.0.0, SVG Export Plug-In . SVG Version: 6.00 Build 0)  -->
<svg version="1.1" id="Layer_1" xmlns="http://www.w3.org/2000/svg" xmlns:xlink="http://www.w3.org/1999/xlink" x="0px" y="0px"
	 viewBox="0 0 496 496" style="enable-background:new 0 0 496 496;" xml:space="preserve">
<g>
	<path style="fill:#FAD7A5;" d="M395.045,320.24l-50.05-16.016l-4.465,5.882c-12.503-6.964-20.53-20.244-20.53-34.937V256h-72h-72
		v19.169c0,14.692-8.027,27.973-20.53,34.937l-4.465-5.882l-50.05,16.016C67.43,330.966,40,368.544,40,403.746V472
		c0,13.255,10.745,24,24,24h368c13.255,0,24-10.745,24-24v-68.254C456,368.544,428.57,330.966,395.045,320.24z"/>
	<path style="fill:#D2D7DC;" d="M136,208h-24c-8.837,0-16-7.163-16-16V96c0-8.837,7.163-16,16-16h24V208z"/>
	<path style="fill:#D2D7DC;" d="M360,80h24c8.837,0,16,7.163,16,16v96c0,8.837-7.163,16-16,16h-24V80z"/>
	<path style="fill:#E6EBF0;" d="M320,0H176c-30.928,0-56,25.072-56,56v72h256V56C376,25.072,350.928,0,320,0z"/>
	<path style="fill:#F0C891;" d="M328,352l22.667-37.778l-3.316-1.105C331.017,307.672,320,292.387,320,275.169l0,0H176
		C182,314.333,256.333,378,328,352z"/>
	<path style="fill:#E6EBF0;" d="M248,432l-54.656,64H432c13.255,0,24-10.745,24-24v-68.254c0-35.201-27.43-72.779-60.955-83.506
		l-50.05-16.016L248,432L248,432z"/>
	<path style="fill:#E6EBF0;" d="M151.005,304.224l-50.05,16.016C67.43,330.966,40,368.544,40,403.746V472c0,13.255,10.745,24,24,24
		h129.344L248,432L151.005,304.224z"/>
	<polygon style="fill:#D2D7DC;" points="240,421.461 232,432 177.344,496 193.344,496 248,432 	"/>
	<path style="fill:#E6EBF0;" d="M300.65,287.837l-17.992,8.505c-10.63,5.025-22.545,7.658-34.653,7.658h-0.015
		c-12.109,0-24.025-2.633-34.655-7.659l-17.988-8.504C153.831,268.211,128,230.499,128,189.514V136c0-22.091,20.664-40,46.154-40
		h147.692C347.336,96,368,113.909,368,136v53.512C368,230.498,342.168,268.211,300.65,287.837z"/>
	<path style="fill:#FFFFFF;" d="M300.65,287.837l-17.992,8.505c-10.63,5.025-22.545,7.658-34.653,7.658h-0.015
		c-12.109,0-24.025-2.633-34.655-7.659l-17.988-8.504C153.831,268.211,128,230.499,128,189.514V136c0-22.091,20.664-40,46.154-40
		h147.692C347.336,96,368,113.909,368,136v53.512C368,230.498,342.168,268.211,300.65,287.837z"/>
	<path style="fill:#727887;" d="M248.004,312c-13.262,0-26.43-2.914-38.09-8.43l-17.984-8.5
		C147.563,274.094,120,233.648,120,189.516V136c0-26.469,24.293-48,54.152-48h147.695C351.707,88,376,109.531,376,136v53.512
		c0,44.137-27.563,84.586-71.934,105.559v-0.004l-17.992,8.508C274.414,309.086,261.25,312,248.004,312z M174.152,104
		C153.113,104,136,118.355,136,136v53.516c0,37.883,24.051,72.785,62.766,91.086l17.988,8.504
		c19.074,9.023,43.418,9.012,62.484,0.004l17.992-8.508c38.719-18.301,62.77-53.203,62.77-91.09V136c0-17.645-17.113-32-38.152-32
		H174.152z"/>
	<path style="fill:#FFF5E5;" d="M168,120c-8.837,0-16,7.163-16,16v64.471C152,222.302,194.98,240,248,240s96-17.698,96-39.529V136
		c0-8.837-7.163-16-16-16H168z"/>
	<circle style="fill:#E6EBF0;" cx="248" cy="264" r="8"/>
	<circle style="fill:#E6EBF0;" cx="224" cy="248" r="8"/>
	<circle style="fill:#E6EBF0;" cx="272" cy="248" r="8"/>
	<circle style="fill:#FFE1B4;" cx="248" cy="232" r="8"/>
	<circle style="fill:#FFE1B4;" cx="224" cy="216" r="8"/>
	<circle style="fill:#FFE1B4;" cx="272" cy="216" r="8"/>
	<circle style="fill:#FFE1B4;" cx="248" cy="200" r="8"/>
</g>
<g>
</g>
<g>
</g>
<g>
</g>
<g>
</g>
<g>
</g>
<g>
</g>
<g>
</g>
<g>
</g>
<g>
</g>
<g>
</g>
<g>
</g>
<g>
</g>
<g>
</g>
<g>
</g>
<g>
</g>
</svg>
