<?xml version="1.0" encoding="iso-8859-1"?>
<!-- Generator: Adobe Illustrator 19.0.0, SVG Export Plug-In . SVG Version: 6.00 Build 0)  -->
<svg version="1.1" id="Layer_1" xmlns="http://www.w3.org/2000/svg" xmlns:xlink="http://www.w3.org/1999/xlink" x="0px" y="0px"
	 viewBox="0 0 480 480" style="enable-background:new 0 0 480 480;" xml:space="preserve">
<g>
	<path style="fill:#97785E;" d="M417.463,314.366L408,312c-0.466-1.08-0.948-2.131-1.438-3.17c-0.151-0.322-0.303-0.642-0.457-0.96
		c-0.455-0.94-0.918-1.868-1.392-2.775c-0.202-0.388-0.411-0.764-0.617-1.145c-0.295-0.545-0.592-1.086-0.893-1.619
		c-0.271-0.48-0.541-0.959-0.817-1.43c-0.185-0.316-0.375-0.622-0.563-0.933c-0.597-0.992-1.203-1.964-1.822-2.912
		c-0.09-0.138-0.181-0.276-0.272-0.413c-18.382-27.889-45.526-36.86-57.579-39.558c-3.625-0.811-6.151-4.064-6.151-7.779v-39.419
		c0.67-2.552,1.102-5.187,1.255-7.877l0.682-11.937C354.051,200.755,368,166.902,368,152.069c0-10.916-6.462-17.162-16.708-16.681
		c0.454-5.171,0.708-10.297,0.708-15.319c0-0.024-0.003-0.044-0.003-0.068H352v-36.61c0-37.723-26.352-70.32-63.238-78.225l0,0
		c-32.143-6.888-65.38-6.888-97.523,0l0,0C154.352,13.07,128,45.667,128,83.391V120h0.003c0,0.024-0.003,0.044-0.003,0.068
		c0,5.08,0.259,10.266,0.723,15.498C118.534,134.371,112,140.624,112,152.069c0,15.455,13.87,51.597,29.406,36.451l1.018,13.926
		c0.213,2.915,0.759,5.757,1.576,8.498v39.305c0,3.311-2.011,6.295-5.111,7.457C126.999,262.164,96.619,276.382,72,312l-9.463,2.366
		C30.486,322.379,8,351.177,8,384.216V456c0,13.255,10.745,24,24,24h208h208c13.255,0,24-10.745,24-24v-71.784
		C472,351.177,449.515,322.379,417.463,314.366z"/>
	<g>
		<path style="fill:#856953;" d="M336,249.306v-56.147c-4.966,0.601-8,0.41-8-1.159l-176,24c16.333,38.333,90,116,256,96
			c-17.291-40.148-51.811-51.773-65.849-54.915C338.526,256.273,336,253.02,336,249.306z"/>
	</g>
	<g>
		<path style="fill:#A28367;" d="M351.292,135.388c0.454-5.171,0.708-10.297,0.708-15.319c0-0.024-0.003-0.044-0.003-0.068H352
			v-36.61c0-37.723-26.352-70.32-63.238-78.225l0,0c-32.143-6.888-65.38-6.888-97.523,0l0,0C154.352,13.07,128,45.667,128,83.391
			V120h0.003c0,0.024-0.003,0.044-0.003,0.068c0,5.08,0.259,10.266,0.723,15.498C118.534,134.371,112,140.624,112,152.069
			c0,15.455,13.87,51.597,29.406,36.451l1.018,13.926c0.984,13.451,8.679,25.5,20.468,32.049l40.423,22.458
			c8.319,4.622,17.679,7.047,27.196,7.047h18.978c9.517,0,18.877-2.425,27.196-7.047l40.061-22.256
			c11.987-6.66,19.728-18.996,20.509-32.686l0.682-11.937C354.051,200.755,368,166.902,368,152.069
			C368,141.153,361.538,134.907,351.292,135.388z"/>
	</g>
	<g>
		<path style="fill:#735848;" d="M352,83.391c0-37.723-26.352-70.32-63.238-78.225l0,0C272.69,1.722,256.345,0,240,0
			s-32.69,1.722-48.762,5.166l0,0C154.352,13.07,128,45.667,128,83.391V120h0.003c0,0.024-0.003,0.044-0.003,0.068
			c0,3.398,0.126,6.849,0.334,10.322l3.514,5.678L144,144l16-72h80h80l16,72l12.151-7.932l3.514-5.678
			c0.208-3.474,0.334-6.924,0.334-10.322c0-0.024-0.003-0.044-0.003-0.068H352V83.391z"/>
	</g>
	<g>
		<path style="fill:#856953;" d="M88,442.426V480h72c0,0-28.749-2.385-58.118-42.161C97.482,431.879,88,435.018,88,442.426z"/>
	</g>
	<g>
		<path style="fill:#856953;" d="M392,442.427V480h-72c0,0,28.749-2.385,58.118-42.161C382.519,431.879,392,435.018,392,442.427z"/>
	</g>
	<g>
		<path style="fill:#856953;" d="M240,448L240,448c-4.418,0-8,3.582-8,8v24h16v-24C248,451.582,244.419,448,240,448z"/>
	</g>
</g>
<g>
</g>
<g>
</g>
<g>
</g>
<g>
</g>
<g>
</g>
<g>
</g>
<g>
</g>
<g>
</g>
<g>
</g>
<g>
</g>
<g>
</g>
<g>
</g>
<g>
</g>
<g>
</g>
<g>
</g>
</svg>
