<?xml version="1.0" encoding="iso-8859-1"?>
<!-- Generator: Adobe Illustrator 19.0.0, SVG Export Plug-In . SVG Version: 6.00 Build 0)  -->
<svg version="1.1" id="Layer_1" xmlns="http://www.w3.org/2000/svg" xmlns:xlink="http://www.w3.org/1999/xlink" x="0px" y="0px"
	 viewBox="0 0 496 496" style="enable-background:new 0 0 496 496;" xml:space="preserve">
<g>
	<path style="fill:#5F87B9;" d="M398.308,322.092L336,304c0,0-12-6.667-16-48H176c-4,41.333-16,48-16,48l-62.308,18.092
		C63.513,332.016,40,363.328,40,398.919V472c0,13.255,10.745,24,24,24h368c13.255,0,24-10.745,24-24v-73.081
		C456,363.328,432.487,332.016,398.308,322.092z"/>
	<rect x="240" y="283" style="fill:#5073A5;" width="16" height="82"/>
	<path style="fill:#E6EBF0;" d="M336,304c-15.213,15.75-29.68,28.78-42.327,39.224c-26.515,21.894-64.831,21.894-91.347,0
		C189.68,332.78,175.213,319.75,160,304l-62.308,18.092C63.513,332.016,40,363.328,40,398.919V472c0,13.255,10.745,24,24,24h368
		c13.255,0,24-10.745,24-24v-73.081c0-35.591-23.513-66.902-57.692-76.827L336,304z"/>
	<path style="fill:#F0C891;" d="M359.319,167.375c0.454-5.169,0.681-10.286,0.681-15.306c0-64.065-50.144-88-112-88
		s-112,23.935-112,88c0,5.063,0.232,10.225,0.693,15.439c-10.188-1.195-16.693,5.116-16.693,16.56
		c0,15.462,13.88,51.714,29.424,36.513c16.834,41.451,49.566,75.487,98.576,75.487c48.379,0,80.897-33.165,97.918-73.889
		C362.042,232.912,376,198.909,376,184.068C376,173.16,369.554,166.903,359.319,167.375z"/>
	<path style="fill:#D2D7DC;" d="M240,359.142V496h16V359.142C250.681,359.737,245.319,359.737,240,359.142z"/>
	<path style="fill:#5073A5;" d="M192.061,334.496C182.066,325.773,171.243,315.639,160,304l-62.308,18.092
		C63.513,332.016,40,363.328,40,398.919V472c0,13.255,10.745,24,24,24h48v-83.482c0-12.881,6.203-24.974,16.665-32.488
		L192.061,334.496z"/>
	<path style="fill:#5073A5;" d="M303.939,334.496C313.934,325.773,324.757,315.64,336,304l62.308,18.092
		c34.18,9.924,57.692,41.236,57.692,76.827V472c0,13.255-10.745,24-24,24h-48v-83.482c0-12.881-6.203-24.974-16.665-32.488
		L303.939,334.496z"/>
	<path style="fill:#FFF05A;" d="M366.121,152c7.399,0,14.03-5.027,15.583-12.261c1.498-6.975,2.296-14.163,2.296-21.517
		C384,52.93,323.111,0,248,0S112,52.93,112,118.222c0,7.354,0.799,14.541,2.296,21.517C115.85,146.973,122.48,152,129.879,152
		H366.121z"/>
	<path style="fill:#FFDB5A;" d="M306.876,11.777C295.894,39.26,281.293,92.93,281.293,152h16c0-58.324,14.496-108.75,24.065-133.225
		C316.722,16.185,311.876,13.872,306.876,11.777z"/>
	<path style="fill:#FFDB5A;" d="M174.642,18.775C184.211,43.25,198.707,93.676,198.707,152h16c0-59.07-14.601-112.74-25.583-140.223
		C184.124,13.872,179.278,16.185,174.642,18.775z"/>
	<path style="fill:#646978;" d="M357.743,155.464l-32.6,5.621l-61.182,6.118C258.657,167.734,253.33,168,248,168
		s-10.657-0.266-15.96-0.796l-61.182-6.118l-32.6-5.621c-4.046-0.649-7.792,2.275-8.145,6.357c-0.257,2.973,1.385,5.786,4.1,7.025
		L160,180.412v6.753c0,7.5,5.208,13.992,12.529,15.619l42.993,9.554c8.955,1.99,17.745-3.94,19.253-12.988l0.81-4.854
		c1.009-6.057,6.249-10.495,12.389-10.495h0.054c6.14,0,11.379,4.438,12.389,10.495l0.81,4.854
		c1.508,9.048,10.298,14.979,19.253,12.988l42.993-9.554c7.321-1.627,12.529-8.12,12.529-15.619v-6.753l25.788-11.565
		c2.715-1.239,4.356-4.052,4.1-7.025C365.535,157.739,361.789,154.815,357.743,155.464z"/>
	<path style="fill:#F9E2C2;" d="M174.437,168.729c-3.431-0.389-6.437,2.296-6.437,5.749v5.934v6.752c0,3.75,2.604,6.997,6.265,7.81
		l42.992,9.554c0.582,0.129,1.172,0.195,1.755,0.195c3.915,0,7.226-2.813,7.872-6.688l3.128-16.702
		c0.625-3.336-1.714-6.502-5.087-6.884L174.437,168.729z"/>
	<path style="fill:#F9E2C2;" d="M321.563,168.729c3.431-0.389,6.437,2.296,6.437,5.749v5.934v6.752c0,3.75-2.604,6.997-6.265,7.81
		l-42.992,9.554c-0.582,0.129-1.172,0.195-1.755,0.195c-3.915,0-7.226-2.813-7.872-6.688l-3.128-16.702
		c-0.625-3.336,1.714-6.502,5.087-6.884L321.563,168.729z"/>
</g>
<g>
</g>
<g>
</g>
<g>
</g>
<g>
</g>
<g>
</g>
<g>
</g>
<g>
</g>
<g>
</g>
<g>
</g>
<g>
</g>
<g>
</g>
<g>
</g>
<g>
</g>
<g>
</g>
<g>
</g>
</svg>
