<?xml version="1.0" encoding="iso-8859-1"?>
<!-- Generator: Adobe Illustrator 19.0.0, SVG Export Plug-In . SVG Version: 6.00 Build 0)  -->
<svg version="1.1" id="Layer_1" xmlns="http://www.w3.org/2000/svg" xmlns:xlink="http://www.w3.org/1999/xlink" x="0px" y="0px"
	 viewBox="0 0 496 496" style="enable-background:new 0 0 496 496;" xml:space="preserve">
<g>
	<path style="fill:#FAD7A5;" d="M456.116,406.401L456,406.453v-3.609c0-35.201-27.43-72.779-60.955-83.506l-43.968-14.07L352,304
		l-18.633-18.633c-3.009-3.009-7.846-3.136-11.009-0.289l-0.524,0.471c-1.614-7.883-1.914-15.905-1.92-21.851
		c12.447-13.544,21.98-30.305,28.616-48.226C363.52,221.195,376,190.033,376,176c0-10.721-6.233-16.937-16.163-16.7
		c0.105-2.452,0.163-4.888,0.163-7.3c0-64.065-50.144-88-112-88s-112,23.935-112,88c0,2.438,0.06,4.901,0.167,7.379
		C126.281,158.46,120,164.754,120,176c0,14.682,12.515,48.108,27.086,38.431c6.646,18.3,16.301,35.433,28.977,49.234
		c-0.03,5.924-0.369,13.919-2.007,21.785l-0.414-0.373c-3.163-2.846-8-2.719-11.009,0.289L144,304l0.923,1.269l-43.968,14.07
		C67.43,330.065,40,367.643,40,402.845v3.609l-0.116-0.052c-3.692-1.678-7.884,1.021-7.884,5.077v10.676
		c0,4.281,2.502,8.166,6.399,9.937L48,436.455V472c0,13.255,10.745,24,24,24h352c13.255,0,24-10.745,24-24v-35.545l9.601-4.364
		c3.897-1.771,6.399-5.657,6.399-9.937v-10.676C464,407.422,459.808,404.722,456.116,406.401z"/>
	<path style="fill:#F0C891;" d="M304,344l31.671-34.197C317.781,298.284,320,264,320,256H176
		C186.332,285.704,254.667,336.667,304,344z"/>
	<path style="fill:#FFE1B4;" d="M359.837,159.3c0.105-2.452,0.163-4.888,0.163-7.3c0-64.065-50.144-88-112-88s-112,23.935-112,88
		c0,2.438,0.06,4.901,0.167,7.379C126.281,158.46,120,164.754,120,176c0,14.682,12.515,48.108,27.086,38.431
		C163.119,258.582,196.612,296,248,296c50.983,0,84.35-36.831,100.53-80.527C363.52,221.195,376,190.033,376,176
		C376,165.279,369.767,159.063,359.837,159.3z"/>
	<path style="fill:#C8AA7D;" d="M160,128c-3.333,8.667-8,46.5-8,46.5l-16-8l-4.5-38.5H160z"/>
	<path style="fill:#C8AA7D;" d="M336,128c3.333,8.667,8,46.5,8,46.5l16-8l4.5-38.5H336z"/>
	<path style="fill:#E6EBF0;" d="M364.5,128V71.843c0-20.859-13.265-39.466-33.136-46.481L270.391,3.834
		c-14.479-5.112-30.302-5.112-44.781,0l-60.974,21.527C144.765,32.377,131.5,50.984,131.5,71.843V128H364.5L364.5,128z"/>
	<path style="fill:#E6EBF0;" d="M120,496v-40l-80-40v-13.155c0-35.201,27.43-72.779,60.955-83.506l50.05-16.016
		C177.933,323.913,248,352,248,352s70.067-28.087,96.995-48.677l50.05,16.016C428.57,330.065,456,367.643,456,402.845V416l-80,48v32
		H120z"/>
	<path style="fill:#C3CBD2;" d="M256,464h-16c-8.837,0-16-7.163-16-16v-96h48v96C272,456.837,264.837,464,256,464z"/>
	<path style="fill:#D2D7DC;" d="M248,352l-33.38,33.38c-3.476,3.476-9.235,3.024-12.127-0.951L144,304l18.633-18.633
		c3.009-3.009,7.846-3.136,11.009-0.289L248,352z"/>
	<path style="fill:#D2D7DC;" d="M248,352l33.38,33.38c3.476,3.476,9.235,3.024,12.127-0.951L352,304l-18.633-18.633
		c-3.009-3.009-7.846-3.136-11.009-0.289L248,352z"/>
	<circle style="fill:#E6EBF0;" cx="248" cy="432" r="8"/>
	<circle style="fill:#E6EBF0;" cx="248" cy="392" r="8"/>
	<path style="fill:#D2D7DC;" d="M38.399,432.091L120,469.183v-26.365l-80.116-36.417c-3.692-1.678-7.884,1.021-7.884,5.077v10.676
		C32,426.434,34.502,430.319,38.399,432.091z"/>
	<path style="fill:#D2D7DC;" d="M457.601,432.091L376,469.183v-26.365l80.116-36.417c3.692-1.678,7.884,1.021,7.884,5.077v10.676
		C464,426.434,461.498,430.319,457.601,432.091z"/>
	<path style="fill:#D2D7DC;" d="M248,95.996c-37.642,0-86.217,12.6-119.705,32h239.41C334.217,108.596,285.642,95.996,248,95.996z"
		/>
	<path style="fill:#E6EBF0;" d="M367.709,144c-0.789,0-1.591-0.113-2.389-0.34c-32.343-9.371-79.492-15.664-117.321-15.664
		s-84.977,6.293-117.321,15.664c-4.389,1.262-9.004-1.133-10.328-5.363c-1.316-4.234,1.174-8.691,5.559-9.965
		c33.74-9.77,82.803-16.336,122.09-16.336s88.35,6.566,122.09,16.336c4.384,1.273,6.874,5.73,5.559,9.965
		C374.567,141.762,371.276,143.996,367.709,144z"/>
</g>
<g>
</g>
<g>
</g>
<g>
</g>
<g>
</g>
<g>
</g>
<g>
</g>
<g>
</g>
<g>
</g>
<g>
</g>
<g>
</g>
<g>
</g>
<g>
</g>
<g>
</g>
<g>
</g>
<g>
</g>
</svg>
