<?xml version="1.0" encoding="iso-8859-1"?>
<!-- Generator: Adobe Illustrator 19.0.0, SVG Export Plug-In . SVG Version: 6.00 Build 0)  -->
<svg version="1.1" id="Layer_1" xmlns="http://www.w3.org/2000/svg" xmlns:xlink="http://www.w3.org/1999/xlink" x="0px" y="0px"
	 viewBox="0 0 496 496" style="enable-background:new 0 0 496 496;" xml:space="preserve">
<g>
	<path style="fill:#E6EBF0;" d="M352,328H144l-58.821,18.099C58.325,354.362,40,379.172,40,407.269V472c0,13.255,10.745,24,24,24
		h368c13.255,0,24-10.745,24-24v-64.731c0-28.096-18.325-52.907-45.178-61.17L352,328z"/>
	<path style="fill:#D2D7DC;" d="M324.715,350.414c9.455-6.25,18.591-13.721,27.285-22.414c0-61.333,24-128,24-128H120
		c0,0,24,66.667,24,128c49,49,112.076,59.175,166.928,30.541l15.533,27.955C337.934,407.156,344,430.563,344,454.191V496h16v-41.809
		c0-26.34-6.762-52.434-19.555-75.465L324.715,350.414z"/>
	<path style="fill:#646978;" d="M368,152c0,81.738-71.399,160-120,160s-120-78.262-120-160S181.726,16,248,16S368,70.262,368,152z"
		/>
	<path style="fill:#E6EBF0;" d="M248,16c66.274,0,120,54.262,120,136s-71.399,160-120,160s-120-78.262-120-160S181.726,16,248,16
		 M248,0c-77.533,0-136,65.346-136,152c0,40.851,16.512,84.834,45.301,120.672C185.131,307.317,219.038,328,248,328
		c28.963,0,62.869-20.683,90.699-55.328C367.489,236.834,384,192.851,384,152C384,65.346,325.533,0,248,0L248,0z"/>
	<path style="fill:#D2D7DC;" d="M51.552,370.796C44.27,381.267,40,393.861,40,407.269V472c0,13.255,10.745,24,24,24h48v-41.007
		c0-14.732-5.805-28.87-16.157-39.351L51.552,370.796z"/>
	<path style="fill:#D2D7DC;" d="M444.448,370.796C451.73,381.267,456,393.861,456,407.269V472c0,13.255-10.745,24-24,24h-48v-41.007
		c0-14.732,5.805-28.87,16.157-39.351L444.448,370.796z"/>
	<path style="fill:#54596A;" d="M184,152c0-74.268,35.521-125.701,81.778-134.51C259.962,16.604,254.057,16,248,16
		c-66.274,0-120,54.262-120,136s71.399,160,120,160c5.664,0,11.644-1.103,17.778-3.11C228.577,293.672,184,224.212,184,152z"/>
</g>
<g>
</g>
<g>
</g>
<g>
</g>
<g>
</g>
<g>
</g>
<g>
</g>
<g>
</g>
<g>
</g>
<g>
</g>
<g>
</g>
<g>
</g>
<g>
</g>
<g>
</g>
<g>
</g>
<g>
</g>
</svg>
