<?xml version="1.0" encoding="iso-8859-1"?>
<!-- Generator: Adobe Illustrator 19.0.0, SVG Export Plug-In . SVG Version: 6.00 Build 0)  -->
<svg version="1.1" id="Layer_1" xmlns="http://www.w3.org/2000/svg" xmlns:xlink="http://www.w3.org/1999/xlink" x="0px" y="0px"
	 viewBox="0 0 496 496" style="enable-background:new 0 0 496 496;" xml:space="preserve">
<g>
	<path style="fill:#E6B47D;" d="M456.115,425.218L456,425.27v-10.351c0-35.591-23.513-66.902-57.692-76.827L336,320
		c-1.129,1.169-2.252,2.318-3.372,3.456c-11.437-10.391-12.701-31.499-12.714-43.754C346.729,250.531,360,206.416,360,168
		c0-64.065-50.144-88-112-88s-112,23.935-112,88c0,38.405,13.263,82.505,40.063,111.677c-0.063,12.21-1.433,33.242-12.792,43.676
		c-1.087-1.105-2.176-2.22-3.271-3.354l-62.308,18.092C63.513,348.016,40,379.328,40,414.919v10.351l-0.115-0.052
		C36.193,423.54,32,426.239,32,430.295v10.676c0,4.281,2.502,8.166,6.399,9.937L48,455.272V472c0,13.255,10.745,24,24,24h352
		c13.255,0,24-10.745,24-24v-16.728l9.601-4.364c3.897-1.771,6.399-5.657,6.399-9.937v-10.676
		C464,426.239,459.808,423.539,456.115,425.218z"/>
	<path style="fill:#464B5F;" d="M392,176h-16v-33.602C376,72.703,318.578,16,248,16S120,72.703,120,142.398V176h-16v-33.602
		C104,63.879,168.598,0,248,0s144,63.879,144,142.398V176z"/>
	<path style="fill:#D2A073;" d="M304,360l31.671-34.197C317.781,314.284,320,280,320,272H176
		C186.332,301.704,254.667,352.667,304,360z"/>
	<path style="fill:#646978;" d="M336,320c-15.196,15.733-29.648,28.752-42.286,39.19c-26.537,21.917-64.892,21.917-91.429,0
		C189.648,348.752,175.196,335.733,160,320l-62.308,18.092C63.513,348.016,40,379.328,40,414.919v20.717L120,472v24h256v-27.636
		L456,432v-17.081c0-35.591-23.513-66.902-57.692-76.827L336,320z"/>
	<path style="fill:#5F87B9;" d="M38.399,450.908L120,488v-26.365l-80.116-36.417C36.192,423.54,32,426.239,32,430.295v10.676
		C32,445.251,34.502,449.136,38.399,450.908z"/>
	<path style="fill:#5F87B9;" d="M457.601,450.908L376,488v-26.365l80.116-36.417c3.692-1.678,7.884,1.021,7.884,5.077v10.676
		C464,445.251,461.498,449.136,457.601,450.908z"/>
	<path style="fill:#5F87B9;" d="M336,320c-15.213,15.75-29.68,28.78-42.327,39.224c-26.515,21.894-64.831,21.894-91.347,0
		C189.68,348.78,175.213,335.75,160,320l-26.537,7.706c18.361,19.063,37.233,35.66,54.227,49.312
		c35.279,28.341,85.342,28.341,120.621,0c16.994-13.652,35.866-30.248,54.227-49.312L336,320z"/>
	<path style="fill:#F0C891;" d="M360,168c0,64.065-36.889,144-112,144s-112-79.935-112-144s50.144-88,112-88S360,103.935,360,168z"
		/>
	<path style="fill:#646978;" d="M357.743,171.396l-32.6,5.621l-61.182,6.118c-5.304,0.531-10.63,0.796-15.96,0.796
		s-10.657-0.266-15.96-0.796l-61.182-6.118l-32.6-5.621c-4.046-0.649-7.792,2.275-8.145,6.357c-0.257,2.973,1.385,5.786,4.1,7.025
		L160,196.344v6.753c0,7.5,5.208,13.992,12.529,15.619l42.993,9.554c8.955,1.99,17.745-3.94,19.253-12.988l0.81-4.854
		c1.009-6.057,6.249-10.495,12.389-10.495h0.054c6.14,0,11.379,4.438,12.389,10.495l0.81,4.854
		c1.508,9.048,10.298,14.979,19.253,12.988l42.993-9.554c7.321-1.627,12.529-8.12,12.529-15.619v-6.753l25.788-11.565
		c2.715-1.239,4.356-4.052,4.1-7.025C365.535,173.671,361.789,170.747,357.743,171.396z"/>
	<path style="fill:#E6D79B;" d="M174.437,184.661c-3.431-0.389-6.437,2.296-6.437,5.749v5.934v6.752c0,3.75,2.604,6.997,6.265,7.81
		l42.992,9.554c0.582,0.129,1.172,0.195,1.755,0.195c3.915,0,7.226-2.813,7.872-6.688l3.128-16.702
		c0.625-3.336-1.714-6.502-5.087-6.884L174.437,184.661z"/>
	<path style="fill:#E6D79B;" d="M321.563,184.661c3.431-0.389,6.437,2.296,6.437,5.749v5.934v6.752c0,3.75-2.604,6.997-6.265,7.81
		l-42.992,9.554c-0.582,0.129-1.172,0.195-1.755,0.195c-3.915,0-7.226-2.813-7.872-6.688l-3.128-16.702
		c-0.625-3.336,1.714-6.502,5.087-6.884L321.563,184.661z"/>
	<path style="fill:#646978;" d="M364.5,152V87.842c0-20.859-13.265-39.466-33.136-46.481L270.39,19.834
		c-14.479-5.112-30.302-5.112-44.781,0l-60.974,21.527c-19.87,7.015-33.135,25.622-33.135,46.481V152H364.5z"/>
	<path style="fill:#646978;" d="M136.135,241.471l-13.638-1.876c-6.823-0.939-12.279-6.137-13.546-12.907l-7.532-40.237
		c-1.267-6.769,1.939-13.59,7.961-16.933l12.036-6.682L136.135,241.471z"/>
	<path style="fill:#464B5F;" d="M145.471,247.862L145.471,247.862c-4.343,0.813-8.522-2.049-9.335-6.391l-14.72-78.634
		c-0.813-4.343,2.049-8.522,6.391-9.335l0,0c4.343-0.813,8.522,2.049,9.335,6.391l14.72,78.634
		C152.675,242.869,149.813,247.049,145.471,247.862z"/>
	<path style="fill:#646978;" d="M359.865,241.471l13.638-1.876c6.823-0.939,12.279-6.137,13.546-12.907l7.532-40.237
		c1.267-6.769-1.94-13.59-7.961-16.933l-12.036-6.682L359.865,241.471z"/>
	<path style="fill:#464B5F;" d="M350.529,247.862L350.529,247.862c4.343,0.813,8.522-2.049,9.335-6.391l14.72-78.634
		c0.813-4.343-2.049-8.522-6.391-9.335l0,0c-4.343-0.813-8.522,2.049-9.335,6.391l-14.72,78.634
		C343.325,242.869,346.187,247.049,350.529,247.862z"/>
	<path style="fill:#5F87B9;" d="M248,119.996c-37.642,0-86.217,12.6-119.705,32h239.41C334.217,132.596,285.642,119.996,248,119.996
		z"/>
	<path style="fill:#5073A5;" d="M367.709,168c-0.789,0-1.591-0.113-2.389-0.34c-32.343-9.371-79.492-15.664-117.321-15.664
		s-84.977,6.293-117.321,15.664c-4.389,1.262-9.004-1.133-10.328-5.363c-1.316-4.234,1.174-8.691,5.559-9.965
		c33.74-9.77,82.803-16.336,122.09-16.336s88.35,6.566,122.09,16.336c4.384,1.273,6.874,5.73,5.559,9.965
		C374.567,165.762,371.276,167.996,367.709,168z"/>
</g>
<g>
</g>
<g>
</g>
<g>
</g>
<g>
</g>
<g>
</g>
<g>
</g>
<g>
</g>
<g>
</g>
<g>
</g>
<g>
</g>
<g>
</g>
<g>
</g>
<g>
</g>
<g>
</g>
<g>
</g>
</svg>
