<?xml version="1.0" encoding="iso-8859-1"?>
<!-- Generator: Adobe Illustrator 19.0.0, SVG Export Plug-In . SVG Version: 6.00 Build 0)  -->
<svg version="1.1" id="Layer_1" xmlns="http://www.w3.org/2000/svg" xmlns:xlink="http://www.w3.org/1999/xlink" x="0px" y="0px"
	 viewBox="0 0 496 496" style="enable-background:new 0 0 496 496;" xml:space="preserve">
<g>
	<path style="fill:#FAD7A5;" d="M409.892,320.956l-60.893-13.973c-7.964-1.827-16.347,0.542-22.167,6.278
		c-0.036,0.035-0.071,0.069-0.107,0.104c-4.284-6.422-6.725-14.095-6.725-22.196v-27.56c10.86-11.84,19.494-26.128,25.918-41.499
		C362.042,232.843,376,198.841,376,184c0-10.909-6.446-17.166-16.681-16.694C359.773,162.137,360,157.02,360,152
		c0-64.065-50.144-88-112-88s-112,23.935-112,88c0,5.063,0.232,10.225,0.693,15.439C126.505,166.244,120,172.556,120,184
		c0,15.462,13.88,51.714,29.424,36.513c6.488,15.977,15.341,30.848,26.576,43.096v27.56c0,8.101-2.44,15.774-6.725,22.196
		c-0.015-0.014-0.029-0.028-0.044-0.043c-5.854-5.768-14.297-8.131-22.296-6.248l-61.258,14.413
		C49.54,329.991,24,362.237,24,399.361V472c0,13.255,10.745,24,24,24h400c13.255,0,24-10.745,24-24v-73.07
		C472,361.64,446.237,329.296,409.892,320.956z"/>
	<path style="fill:#F0C891;" d="M334.199,321.73C325.384,314.284,320,303.201,320,291.17V272h-72h-72
		c7.54,21.677,58.663,68.96,104.981,88.465C294.756,353.998,313.924,342.323,334.199,321.73z"/>
	<path style="fill:#5F87B9;" d="M326.832,313.261c-11.879,11.707-23.142,21.695-33.242,30.031
		c-26.472,21.849-64.708,21.849-91.181,0c-10.082-8.321-21.323-18.289-33.179-29.969c-5.854-5.768-14.297-8.131-22.296-6.248
		l-61.258,14.413C49.54,329.991,24,362.237,24,399.361V472c0,13.255,10.745,24,24,24h400c13.255,0,24-10.745,24-24v-73.071
		c0-37.29-25.763-69.634-62.108-77.974l-60.893-13.973C341.035,305.156,332.652,307.525,326.832,313.261z"/>
	<path style="fill:#E6EBF0;" d="M420.111,432c-7.897,0-15.617-2.337-22.188-6.718l-27.846-18.564
		c-6.571-4.38-14.291-6.718-22.188-6.718H248h-99.889c-7.897,0-15.617,2.337-22.188,6.718l-27.846,18.564
		C91.506,429.663,83.786,432,75.889,432H24v40c0,13.255,10.745,24,24,24h400c13.255,0,24-10.745,24-24v-40H420.111z"/>
	<path style="fill:#FFE1B4;" d="M359.319,167.306C359.773,162.137,360,157.02,360,152c0-64.065-50.144-88-112-88s-112,23.935-112,88
		c0,5.063,0.232,10.225,0.693,15.439C126.505,166.244,120,172.556,120,184c0,15.462,13.88,51.714,29.424,36.513
		C166.258,261.964,198.99,296,248,296c48.379,0,80.897-33.165,97.918-73.889C362.042,232.843,376,198.841,376,184
		C376,173.091,369.554,166.834,359.319,167.306z"/>
	<path style="fill:#91AAB9;" d="M248,304c-81.863,0-120-95.473-120-160h16c0,58.074,33.055,144,104,144s104-85.926,104-144h16
		C368,208.527,329.863,304,248,304z"/>
	<path style="fill:#5073A5;" d="M305.773,9.929c-1.165-0.703-2.434-1.04-3.759-1.04h-10.699c-2.122,0-4.156,0.936-5.657,2.603
		l-0.001,0.002c-3.124,3.471-8.189,3.471-11.313-0.001l-5.657-6.286C265.686,1.873,261.616,0,257.373,0H248h-9.373
		c-4.244,0-8.313,1.873-11.314,5.207l-5.657,6.286c-3.124,3.471-8.189,3.471-11.313,0.001l-0.001-0.002
		c-1.5-1.666-3.535-2.603-5.657-2.603h-10.699c-1.326,0-2.594,0.337-3.759,1.04c-8.81,5.315-48.061,30.727-63.165,70.071H248
		h120.938C353.833,40.656,314.583,15.244,305.773,9.929z"/>
	<path style="fill:#5073A5;" d="M120,136l6.037,42.263c1.126,7.882,7.877,13.737,15.839,13.737H152v-56H120z"/>
	<path style="fill:#5073A5;" d="M376,136l-6.037,42.263c-1.126,7.882-7.877,13.737-15.839,13.737H344v-56H376z"/>
	<path style="fill:#5F87B9;" d="M368.938,80H127.062c-4.035,0-7.438,3.004-7.938,7.008l-6,48c-0.597,4.775,3.126,8.992,7.938,8.992
		h253.875c4.812,0,8.535-4.217,7.938-8.992l-6-48C376.376,83.004,372.972,80,368.938,80z"/>
	<path style="fill:#FFF5E5;" d="M329.875,208h-163.75c-8.069,0-14.876-6.009-15.876-14.015L144,144h208l-6.248,49.985
		C344.751,201.991,337.945,208,329.875,208z"/>
	<path style="fill:#5073A5;" d="M248,416.434l116.488-105.896l-15.49-3.555c-7.964-1.828-16.347,0.542-22.167,6.278
		c-11.879,11.707-23.142,21.695-33.242,30.031c-26.472,21.849-64.708,21.849-91.181,0c-10.082-8.321-21.323-18.289-33.179-29.969
		c-5.854-5.768-14.296-8.13-22.296-6.249l-15.278,3.595L248,416.434z"/>
	<path style="fill:#E6EBF0;" d="M207.153,346.867L248,384l40.847-37.133C264.316,363.928,231.684,363.928,207.153,346.867z"/>
</g>
<g>
</g>
<g>
</g>
<g>
</g>
<g>
</g>
<g>
</g>
<g>
</g>
<g>
</g>
<g>
</g>
<g>
</g>
<g>
</g>
<g>
</g>
<g>
</g>
<g>
</g>
<g>
</g>
<g>
</g>
</svg>
