<?xml version="1.0" encoding="iso-8859-1"?>
<!-- Generator: Adobe Illustrator 19.0.0, SVG Export Plug-In . SVG Version: 6.00 Build 0)  -->
<svg version="1.1" id="Layer_1" xmlns="http://www.w3.org/2000/svg" xmlns:xlink="http://www.w3.org/1999/xlink" x="0px" y="0px"
	 viewBox="0 0 488 488" style="enable-background:new 0 0 488 488;" xml:space="preserve">
<g>
	<path style="fill:#FF6955;" d="M420.1,323.55l-89.671-23.306c-8.824-2.595-15.389-10.006-16.901-19.079L308,248H180l-5.527,33.165
		c-1.512,9.073-8.077,16.484-16.901,19.079L67.9,323.55C39.692,330.882,20,356.346,20,385.492V464c0,13.255,10.745,24,24,24h400
		c13.255,0,24-10.745,24-24v-78.508C468,356.346,448.308,330.882,420.1,323.55z"/>
	<path style="fill:#464B5F;" d="M258.427,373.148l90.693-68.22l-18.691-4.858c-6.337-1.864-11.472-6.235-14.444-11.898h-143.97
		c-2.972,5.663-8.106,10.034-14.444,11.898l-18.691,4.858l90.693,68.22C238.117,379.575,249.883,379.575,258.427,373.148z"/>
	<path style="fill:#464B5F;" d="M39.522,339.348C27.374,351.111,20,367.515,20,385.318v78.508c0,13.255,10.745,24,24,24h56v-61.838
		c0-11.703-4.275-23.003-12.022-31.774L39.522,339.348z"/>
	<path style="fill:#464B5F;" d="M448.478,339.348C460.626,351.111,468,367.515,468,385.318v78.508c0,13.255-10.745,24-24,24h-56
		v-61.838c0-11.703,4.275-23.003,12.022-31.774L448.478,339.348z"/>
	<polygon style="fill:#46697D;" points="380,164.436 380,196.436 244,261 108,196.436 108,164.436 	"/>
	<path style="fill:#507882;" d="M176.464,233.426L244,255l67.539-21.575c-16.996-17.844-40.932-28.989-67.539-28.989
		C217.397,204.436,193.467,215.587,176.464,233.426z"/>
	<path style="fill:#46697D;" d="M342.167,37.436c-4.5-3.167-13.667-6.667-12.684-25.165L244,12.436l-85.482-0.165
		c0.982,18.498-8.184,21.998-12.684,25.165c-40.246,28.321-37.833,95-37.833,95h272C380,132.436,382.412,65.757,342.167,37.436z"/>
	<path style="fill:#54596A;" d="M357.232,90.503l-40.614-11.604c-5.718-1.634-11.635-2.462-17.582-2.462H188.964
		c-5.947,0-11.864,0.829-17.582,2.462l-40.614,11.604c-4.312,1.232-7.91,4.218-9.915,8.229L108,124.436h272l-12.852-25.705
		C365.142,94.72,361.545,91.735,357.232,90.503z"/>
	<path style="fill:#464B5F;" d="M328.409,110.504c-8.258-1.376-16.616-2.068-24.989-2.068H244h-59.42
		c-8.372,0-16.73,0.692-24.989,2.068l-28.906,4.818c-3.858,0.643-6.685,3.98-6.685,7.891v17.223h240v-17.223
		c0-3.911-2.827-7.248-6.685-7.891L328.409,110.504z"/>
	<path style="fill:#D2D7DC;" d="M108,172.436h272c4.418,0,8-3.582,8-8v-32c0-4.418-3.582-8-8-8H108c-4.418,0-8,3.582-8,8v32
		C100,168.854,103.582,172.436,108,172.436z"/>
	<path style="fill:#46697D;" d="M313.131,95.769l4.937-16.456l-1.449-0.414c-5.718-1.634-11.636-2.462-17.582-2.462H188.963
		c-5.946,0-11.864,0.829-17.582,2.462l-1.449,0.414l4.937,16.456c3.045,10.151,12.389,17.104,22.988,17.104h92.286
		C300.742,112.872,310.085,105.92,313.131,95.769z"/>
	<path style="fill:#507882;" d="M165.755,3.549h-0.003c-5.039,0.458-8.392,5.42-6.938,10.266l16.055,53.517
		c3.045,10.152,12.389,17.104,22.988,17.104h92.287c10.599,0,19.942-6.952,22.988-17.104l16.055-53.517
		c1.454-4.846-1.9-9.808-6.938-10.266h-0.003C270.189-1.183,217.811-1.183,165.755,3.549z"/>
	<path style="fill:#D2D7DC;" d="M244,260.262l-136-63.826v11.336c0,23.035,11.022,44.68,29.652,58.229l37.309,27.134
		c13.674,9.944,30.146,15.301,47.054,15.301h43.971c16.907,0,33.38-5.357,47.054-15.301l37.309-27.134
		C368.978,252.452,380,230.807,380,207.772v-11.336L244,260.262z"/>
	<path style="fill:#E6EBF0;" d="M174.961,293.135c13.674,9.944,30.146,15.301,47.054,15.301h43.971
		c16.907,0,33.38-5.357,47.054-15.301l2.339-1.701c-4.438-35.506-34.669-62.998-71.378-62.998s-66.939,27.492-71.378,62.998
		L174.961,293.135z"/>
	<circle style="fill:#C3CBD2;" cx="244" cy="260.436" r="16"/>
	<polygon style="fill:#E6D79B;" points="140.937,132.436 148.937,188.436 212.937,204.436 228.937,164.436 260.937,164.436 
		276.937,204.436 340.937,188.436 348.937,132.436 	"/>
	<path style="fill:#FF6955;" d="M339.061,140.436l-4.734,42.605l-55.477,11.096l-8.086-20.215
		c-4.249-10.622-14.386-17.485-25.827-17.485c-11.44,0-21.578,6.863-25.827,17.486l-8.086,20.215l-55.477-11.095l-4.734-42.605
		h188.248 M347.999,124.436H141.875c-4.768,0-8.478,4.145-7.951,8.883l5.721,51.489c0.769,6.925,5.932,12.556,12.764,13.922
		l58.89,11.778c0.777,0.155,1.555,0.231,2.323,0.231c4.751,0,9.144-2.876,10.965-7.429l9.378-23.446
		c1.794-4.486,6.139-7.428,10.971-7.428s9.177,2.942,10.971,7.428l9.378,23.446c1.821,4.552,6.215,7.429,10.965,7.429
		c0.768,0,1.545-0.075,2.323-0.231l58.89-11.778c6.832-1.366,11.995-6.997,12.764-13.922l5.721-51.489
		C356.477,128.581,352.767,124.436,347.999,124.436L347.999,124.436z"/>
	<polygon style="fill:#E6EBF0;" points="284,440 415.64,322.217 376.426,312.025 	"/>
	<polygon style="fill:#E6EBF0;" points="72.36,322.217 204,440 111.574,312.025 	"/>
	<polygon style="fill:#E6EBF0;" points="100,432 196,488 100,487.826 	"/>
	<polygon style="fill:#E6EBF0;" points="388,432 292,488 388,487.826 	"/>
</g>
<g>
</g>
<g>
</g>
<g>
</g>
<g>
</g>
<g>
</g>
<g>
</g>
<g>
</g>
<g>
</g>
<g>
</g>
<g>
</g>
<g>
</g>
<g>
</g>
<g>
</g>
<g>
</g>
<g>
</g>
</svg>
