<?xml version="1.0" encoding="iso-8859-1"?>
<!-- Generator: Adobe Illustrator 19.0.0, SVG Export Plug-In . SVG Version: 6.00 Build 0)  -->
<svg version="1.1" id="Layer_1" xmlns="http://www.w3.org/2000/svg" xmlns:xlink="http://www.w3.org/1999/xlink" x="0px" y="0px"
	 viewBox="0 0 492.673 492.673" style="enable-background:new 0 0 492.673 492.673;" xml:space="preserve">
<g>
	<path style="fill:#FAD7A5;" d="M393.381,316.912l-50.05-16.016l-4.465,5.882c-12.503-6.964-20.53-20.244-20.53-34.937v-11.56
		c12.408-13.528,21.908-30.255,28.53-48.137c14.99,5.722,27.47-25.44,27.47-39.473c0-10.721-6.234-16.937-16.163-16.7
		c0.105-2.452,0.163-4.888,0.163-7.3c0-64.065-50.144-88-112-88s-112,23.935-112,88c0,2.438,0.06,4.901,0.167,7.379
		c-9.886-0.919-16.167,5.374-16.167,16.621c0,14.682,12.515,48.108,27.086,38.431c6.636,18.273,16.265,35.388,28.914,49.179v11.56
		c0,14.692-8.027,27.973-20.53,34.937l-4.465-5.882l-50.05,16.016c-33.525,10.727-60.955,48.305-60.955,83.506v68.254
		c0,13.255,10.745,24,24,24h368c13.255,0,24-10.745,24-24v-68.254C454.336,365.217,426.907,327.639,393.381,316.912z"/>
	<path style="fill:#F0C891;" d="M326.336,348.673l22.667-37.778l-3.316-1.105c-16.334-5.444-27.351-20.73-27.351-37.947v-19.169
		h-144C184.668,282.376,276.836,360.173,326.336,348.673z"/>
	<path style="fill:#FFE1B4;" d="M358.173,155.973c0.105-2.452,0.163-4.888,0.163-7.3c0-64.065-50.144-88-112-88s-112,23.935-112,88
		c0,2.438,0.06,4.901,0.167,7.379c-9.886-0.919-16.167,5.374-16.167,16.621c0,14.682,12.515,48.108,27.086,38.431
		c16.033,44.151,49.526,81.569,100.914,81.569c50.983,0,84.35-36.831,100.53-80.527c14.99,5.722,27.47-25.44,27.47-39.473
		C374.336,161.951,368.103,155.736,358.173,155.973z"/>
	<path style="fill:#E6EBF0;" d="M393.381,316.912l-44.661-14.291c-3.23-1.033-6.76,0.081-8.81,2.782l-93.574,123.269
		l-93.574-123.269c-2.05-2.701-5.581-3.816-8.81-2.782l-44.661,14.291c-33.525,10.727-60.955,48.305-60.955,83.506v68.254
		c0,13.255,10.745,24,24,24h368c13.255,0,24-10.745,24-24v-68.254C454.336,365.217,426.907,327.639,393.381,316.912z"/>
	<polygon style="fill:#D2D7DC;" points="238.336,418.134 230.336,428.673 175.681,492.673 191.681,492.673 246.336,428.673 	"/>
	<path style="fill:#73554B;" d="M294.336,4.673l8,16c0,0-45-32.5-120-16l8,8c-53.333,7-88,48-88,48l26.349,52.697l5.651,49.803l16,8
		c0,0,4.667-39.333,8-48l24-6.5l-8,16c0,0,57.333-2.667,120-32l-8,16c0,0,23.442-0.004,42.749-6.134
		c4.928,20.006,13.251,60.634,13.251,60.634l16-8l8-78.5C366.336,67.173,356.836,18.423,294.336,4.673z"/>
</g>
<g>
</g>
<g>
</g>
<g>
</g>
<g>
</g>
<g>
</g>
<g>
</g>
<g>
</g>
<g>
</g>
<g>
</g>
<g>
</g>
<g>
</g>
<g>
</g>
<g>
</g>
<g>
</g>
<g>
</g>
</svg>
