<?xml version="1.0" encoding="iso-8859-1"?>
<!-- Generator: Adobe Illustrator 19.0.0, SVG Export Plug-In . SVG Version: 6.00 Build 0)  -->
<svg version="1.1" id="Layer_1" xmlns="http://www.w3.org/2000/svg" xmlns:xlink="http://www.w3.org/1999/xlink" x="0px" y="0px"
	 viewBox="0 0 496 496" style="enable-background:new 0 0 496 496;" xml:space="preserve">
<g>
	<rect x="120" y="159" style="fill:#C8AA7D;" width="256" height="41.731"/>
	<path style="fill:#FAD7A5;" d="M404.239,385.413l-78.358-26.119C312.814,354.938,304,342.709,304,328.936v-28.992
		c17.09-16.121,32.479-37.674,42.78-60.57c15.756,8.991,29.22-24.067,29.22-38.643c0-10.662-6.166-16.866-16-16.702
		c0-0.01,0-0.019,0-0.029l-24-72H160l-24,72c0,0.01,0,0.019,0,0.029c-9.835-0.165-16,6.04-16,16.702
		c0,14.576,13.463,47.634,29.22,38.643c10.301,22.896,25.69,44.449,42.78,60.57v28.992c0,13.774-8.814,26.002-21.881,30.358
		l-78.358,26.119C65.627,394.124,48,410.581,48,438.128V472c0,13.255,10.745,24,24,24h352c13.255,0,24-10.745,24-24v-33.872
		C448,410.581,430.373,394.124,404.239,385.413z"/>
	<path style="fill:#F0C891;" d="M337.632,363.21l-11.751-3.917C312.814,354.938,304,342.709,304,328.936V297H192
		C198.992,316.705,241.787,381.405,337.632,363.21z"/>
	<path style="fill:#FFE1B4;" d="M360,184.029c0-0.01,0-0.019,0-0.029l-24-72H160l-24,72c0,0.01,0,0.019,0,0.029
		c-9.835-0.165-16,6.04-16,16.702c0,14.576,13.463,47.634,29.22,38.643C170.431,286.52,213.217,328,248,328
		s77.569-41.48,98.78-88.626c15.756,8.991,29.22-24.067,29.22-38.643C376,190.069,369.834,183.865,360,184.029z"/>
	<path style="fill:#54596A;" d="M374.242,168H121.758c-5.048,0-8.835-4.619-7.845-9.569l19.361-91.658
		C139.527,37.177,165.645,16,195.893,16h104.213c30.249,0,56.367,21.177,62.618,50.773l19.361,91.658
		C383.076,163.381,379.29,168,374.242,168z"/>
	<path style="fill:#464B5F;" d="M264,16h-32v-4c0-6.627,5.373-12,12-12h8c6.627,0,12,5.373,12,12V16z"/>
	<path style="fill:#727887;" d="M248,136c-51.271,0-128,14.327-128,32h256C376,150.327,299.271,136,248,136z"/>
	<path style="fill:#E6EBF0;" d="M448,452.519v-14.39c0-27.547-17.627-44.004-43.761-52.716l-73.322-24.44
		c-9.248,26.038-32.7,74.94-82.917,95.027c-50.217-20.087-73.669-68.989-82.917-95.028l-73.322,24.44
		C65.627,394.124,48,410.581,48,438.128v14.39L128,488v8h240v-8L448,452.519z"/>
	<path style="fill:#D2D7DC;" d="M46.399,458.908L128,496v-26.365l-80.116-36.417C44.192,431.54,40,434.239,40,438.295v10.676
		C40,453.251,42.502,457.136,46.399,458.908z"/>
	<path style="fill:#D2D7DC;" d="M449.601,458.908L368,496v-26.365l80.116-36.417c3.692-1.678,7.884,1.021,7.884,5.077v10.676
		C456,453.251,453.498,457.136,449.601,458.908z"/>
</g>
<g>
</g>
<g>
</g>
<g>
</g>
<g>
</g>
<g>
</g>
<g>
</g>
<g>
</g>
<g>
</g>
<g>
</g>
<g>
</g>
<g>
</g>
<g>
</g>
<g>
</g>
<g>
</g>
<g>
</g>
</svg>
