<?xml version="1.0" encoding="iso-8859-1"?>
<!-- Generator: Adobe Illustrator 19.0.0, SVG Export Plug-In . SVG Version: 6.00 Build 0)  -->
<svg version="1.1" id="Layer_1" xmlns="http://www.w3.org/2000/svg" xmlns:xlink="http://www.w3.org/1999/xlink" x="0px" y="0px"
	 viewBox="0 0 496 496" style="enable-background:new 0 0 496 496;" xml:space="preserve">
<g>
	<path style="fill:#FAD7A5;" d="M403.12,324.954l-51.656-18.614c-3.604-1.299-7.645,0.111-9.576,3.419l-6.218,0.052
		c-14.266-9.185-15.743-32.834-15.757-46.1C346.729,234.539,360,190.425,360,152.009c0-64.065-50.144-88-112-88s-112,23.935-112,88
		c0,38.405,13.263,82.505,40.063,111.677c-0.068,13.261-1.678,36.935-15.953,46.125l-5.999-0.052
		c-1.931-3.308-5.972-4.718-9.576-3.419l-51.655,18.614c-31.729,11.433-52.88,41.537-52.88,75.263V472c0,13.255,10.745,24,24,24h368
		c13.255,0,24-10.745,24-24v-71.783C456,366.491,434.849,336.387,403.12,324.954z"/>
	<path style="fill:#F0C891;" d="M304,344.009l31.671-34.197C317.781,298.293,320,264.009,320,256.009h-144
		C186.331,285.712,254.667,336.675,304,344.009z"/>
	<path style="fill:#5F87B9;" d="M344.641,308.33l-8.796-4.398c-2.264-1.132-4.913-0.099-6.002,2.186
		c-12.776,26.834-44.526,45.891-81.845,45.891s-69.069-19.056-81.845-45.891c-1.088-2.286-3.737-3.319-6.002-2.186l-8.178,4.089V392
		h192.667L344.641,308.33L344.641,308.33z"/>
	<path style="fill:#FFE1B4;" d="M360,152.009c0,64.065-36.889,144-112,144s-112-79.935-112-144s50.144-88,112-88
		S360,87.944,360,152.009z"/>
	<path style="fill:#5F87B9;" d="M384,133.342l-8-10.667c-5.193-6.924-8-15.345-8-24V71.851c0-20.859-13.663-39.466-34.131-46.481
		L271.063,3.843C263.589,1.281,255.794,0,247.999,0s-15.589,1.281-23.063,3.843L162.13,25.37
		c-20.468,7.015-34.131,25.622-34.131,46.481v26.824c0,8.655-2.807,17.076-8,24l-8,10.667c-5.193,6.924-8,15.345-8,24v55.135
		c0,6.887,4.407,13.001,10.94,15.179l13.06,4.354v-96l120-24l120,24v96l13.06-4.354c6.534-2.178,10.94-8.292,10.94-15.179v-55.135
		C392,148.687,389.193,140.266,384,133.342z"/>
	<path style="fill:#E6EBF0;" d="M264,496v-81.096c0-13.054-7.954-24.825-20.084-29.651c-54.213-21.567-81.234-60.808-89.805-75.493
		c-1.931-3.308-5.972-4.718-9.576-3.419l-51.655,18.613c-31.729,11.433-52.88,41.537-52.88,75.263V472c0,13.255,10.745,24,24,24H264
		z"/>
	<path style="fill:#5F87B9;" d="M132.729,310.595l-15.28,5.506C165.126,401.048,241.018,425.025,264,430.498v-15.594
		c0-0.337-0.064-0.661-0.075-0.997C239.845,407.291,174.714,383.317,132.729,310.595z"/>
	<path style="fill:#E6EBF0;" d="M231.999,496v-81.096c0-13.054,7.954-24.825,20.084-29.651
		c54.213-21.567,81.234-60.808,89.805-75.493c1.931-3.308,5.972-4.718,9.576-3.419l51.656,18.614
		c31.729,11.433,52.88,41.537,52.88,75.263V472c0,13.255-10.745,24-24,24H231.999z"/>
	<path style="fill:#D2D7DC;" d="M231.999,414.904c0-11.521,6.207-22.024,16-27.654c-1.304-0.75-2.659-1.429-4.083-1.996
		c-4.334-1.724-8.433-3.594-12.424-5.523c-9.665,8.874-15.493,21.427-15.493,35.173V496h16V414.904z"/>
	<path style="fill:#64464B;" d="M151.999,136.009v88c0,4.418-3.582,8-8,8h-16v-96H151.999z"/>
	<path style="fill:#64464B;" d="M344,136.009v88c0,4.418,3.582,8,8,8h16v-96H344z"/>
	<path style="fill:#6EA0D7;" d="M247.999,96.009c-36.32,0-83.188,12.6-115.5,32h231C331.188,108.609,284.32,96.009,247.999,96.009z"
		/>
	<g>
		<path style="fill:#5073A5;" d="M363.503,144.013c-0.762,0-1.535-0.113-2.305-0.34c-31.207-9.371-76.699-15.664-113.199-15.664
			s-81.992,6.293-113.199,15.664c-4.234,1.262-8.687-1.133-9.965-5.363c-1.27-4.234,1.133-8.691,5.363-9.965
			c32.555-9.77,79.895-16.336,117.801-16.336s85.246,6.566,117.801,16.336c4.23,1.273,6.633,5.73,5.363,9.965
			C370.12,141.774,366.945,144.009,363.503,144.013z"/>
	</g>
	<path style="fill:#5F87B9;" d="M378.55,316.101l-15.282-5.507c-41.881,72.488-107.081,96.605-131.191,103.287
		c-0.011,0.344-0.078,0.677-0.078,1.023v15.594C254.98,425.025,330.873,401.048,378.55,316.101z"/>
	<path style="fill:#5073A5;" d="M219.977,395.867c-2.218,5.079-3.513,10.599-3.835,16.354c5.554,2.874,10.862,5.374,15.858,7.499
		v-4.815c0-4.156,0.833-8.168,2.325-11.878C229.768,400.958,224.975,398.582,219.977,395.867z"/>
</g>
<g>
</g>
<g>
</g>
<g>
</g>
<g>
</g>
<g>
</g>
<g>
</g>
<g>
</g>
<g>
</g>
<g>
</g>
<g>
</g>
<g>
</g>
<g>
</g>
<g>
</g>
<g>
</g>
<g>
</g>
</svg>
