<?xml version="1.0" encoding="iso-8859-1"?>
<!-- Generator: Adobe Illustrator 19.0.0, SVG Export Plug-In . SVG Version: 6.00 Build 0)  -->
<svg version="1.1" id="Layer_1" xmlns="http://www.w3.org/2000/svg" xmlns:xlink="http://www.w3.org/1999/xlink" x="0px" y="0px"
	 viewBox="0 0 287.75 287.75" style="enable-background:new 0 0 287.75 287.75;" xml:space="preserve">
<g>
	<path style="fill:#5065A1;" d="M250.902,214.537c-2.925-13.486-13.435-24.034-26.91-27.008l-59.503-13.134H123.22l-59.503,13.133
		c-13.475,2.974-23.985,13.522-26.91,27.008l-9.126,42.076c13.14,8.612,28.709,15.764,46.016,21.034
		c21.242,6.469,45.104,10.102,70.326,10.102c25.092,0,48.839-3.595,69.999-10.001c17.31-5.241,32.886-12.364,46.047-20.945
		L250.902,214.537z"/>
	<g>
		<path style="fill:#2B2B2B;" d="M123.22,174.396h41.269c0,0,0.938,20.772-19.681,20.772S123.189,178.604,123.22,174.396z"/>
	</g>
	<g>
		<rect x="127.043" y="151.75" style="fill:#DDC29B;" width="34" height="46"/>
	</g>
	<g>
		<path style="fill:#E8D8BF;" d="M229.206,96.47c0-7.098-4.379-13.164-10.578-15.671c0.222-2.471,0.341-4.918,0.341-7.327
			c0-41.38-33.545-56.194-74.925-56.194S69.118,32.092,69.118,73.472c0,2.409,0.118,4.856,0.341,7.327
			c-6.199,2.507-10.578,8.573-10.578,15.671c0,9.179,12.356,21.685,21.646,22.107c13.249,26.661,36.74,48.551,63.516,48.551
			s50.267-21.89,63.516-48.551C216.849,118.155,229.206,105.649,229.206,96.47z"/>
	</g>
	<g>
		<path style="fill:#99ABD5;" d="M144.043,196.856c16.211,0,29.48-4.295,30.633-20.212l-13.493-7.206
			c0,11.481-5.694,13.312-17.176,13.312c-11.481,0-16.987-1.831-16.988-13.312l-13.617,7.124
			C114.517,192.518,127.804,196.856,144.043,196.856z"/>
	</g>
	<g>
		<g>
			<path style="fill:#394C81;" d="M216.395,241.364c-1.321,0.469-2.825,0.966-4.473,1.483c0.008,11.565,0.971,23.262,2.1,34.902
				c17.31-5.241,32.886-12.365,46.047-20.946l-0.89-4.104C253.484,249.144,231.11,236.134,216.395,241.364z"/>
		</g>
		<g>
			<path style="fill:#394C81;" d="M251.881,219.053l-0.979-4.515c-2.925-13.486-13.435-24.034-26.91-27.008l-0.662-0.146
				c-4.24,8.44-7.036,17.166-8.803,26.079c0.064-0.022,0.131-0.045,0.194-0.068C227.796,208.744,243.086,214.599,251.881,219.053z"
				/>
		</g>
		<g>
			<path style="fill:#394C81;" d="M257.727,246.006l-1.546-7.126c-1.722-1.118-23.507-14.926-39.787-9.146
				c-1.225,0.435-2.608,0.894-4.116,1.371c-0.138,2.151-0.234,4.309-0.29,6.473c0.983-0.319,1.897-0.628,2.732-0.925
				C229.059,231.559,248.32,240.677,257.727,246.006z"/>
		</g>
		<g>
			<path style="fill:#394C81;" d="M254.731,232.192l-1.45-6.685c-6.775-3.851-23.65-12.102-36.886-7.402
				c-0.872,0.31-1.823,0.632-2.843,0.963c-0.331,2.204-0.612,4.417-0.834,6.64c0.707-0.234,1.379-0.464,2.003-0.685
				C229.353,219.821,246.761,227.771,254.731,232.192z"/>
		</g>
		<g>
			<path style="fill:#FFFFFF;" d="M142.4,231.809l1.078,4.883c2.118-0.468,49.782-11.022,70.074-17.623
				c0.282-1.876,0.606-3.745,0.975-5.606C196.404,219.851,142.94,231.69,142.4,231.809z"/>
		</g>
		<g>
			<path style="fill:#FFFFFF;" d="M142.4,243.438l1.078,4.883c2.075-0.458,47.861-10.597,68.801-17.215
				c0.115-1.804,0.26-3.603,0.439-5.396C193.097,232.212,142.923,243.323,142.4,243.438z"/>
		</g>
		<g>
			<path style="fill:#FFFFFF;" d="M142.4,255.067l1.078,4.883c2.063-0.456,47.346-10.483,68.444-17.103
				c-0.001-1.76,0.021-3.516,0.067-5.269C191.882,244.112,142.916,254.954,142.4,255.067z"/>
		</g>
	</g>
	<g>
		<g>
			<path style="fill:#394C81;" d="M28.714,251.85l-1.033,4.764c13.14,8.612,28.709,15.764,46.016,21.034
				c1.113-11.481,2.061-23.017,2.089-34.426c-2.126-0.652-4.042-1.276-5.678-1.857C56.403,236.5,36.042,247.454,28.714,251.85z"/>
		</g>
		<g>
			<path style="fill:#394C81;" d="M71.781,213.395c0.471,0.167,0.971,0.339,1.49,0.514c-1.761-9.068-4.581-17.944-8.892-26.525
				l-0.663,0.146c-13.475,2.974-23.985,13.522-26.91,27.008l-0.835,3.848C44.924,214.049,59.354,208.978,71.781,213.395z"/>
		</g>
		<g>
			<path style="fill:#394C81;" d="M71.781,225.023c0.979,0.348,2.07,0.713,3.248,1.091c-0.216-2.223-0.486-4.436-0.811-6.64
				c-1.506-0.476-2.888-0.935-4.112-1.369c-12.444-4.42-28.043,2.57-35.514,6.635l-1.455,6.709
				C41.612,226.953,57.944,220.106,71.781,225.023z"/>
		</g>
		<g>
			<path style="fill:#394C81;" d="M70.108,229.734c-14.402-5.115-33.035,5.052-38.393,8.279l-1.568,7.227
				c9.812-5.382,27.96-13.45,41.634-8.587c1.17,0.416,2.496,0.855,3.947,1.314c-0.052-2.165-0.138-4.324-0.27-6.477
				C73.463,230.875,71.659,230.286,70.108,229.734z"/>
		</g>
		<g>
			<path style="fill:#FFFFFF;" d="M143.025,236.691l1.078-4.883c-0.528-0.116-51.588-11.422-70.831-17.9
				c0.359,1.848,0.674,3.704,0.948,5.567C95.157,226.093,140.949,236.233,143.025,236.691z"/>
		</g>
		<g>
			<path style="fill:#FFFFFF;" d="M143.025,248.32l1.078-4.883c-0.512-0.113-48.66-10.773-69.073-17.323
				c0.174,1.787,0.317,3.579,0.428,5.376C96.907,238.109,140.989,247.871,143.025,248.32z"/>
		</g>
		<g>
			<path style="fill:#FFFFFF;" d="M75.786,243.221c21.568,6.617,65.214,16.282,67.239,16.729l1.078-4.883
				c-0.507-0.111-47.582-10.535-68.375-17.1C75.77,239.715,75.79,241.466,75.786,243.221z"/>
		</g>
	</g>
	<g>
		<path style="fill:#C5D3EF;" d="M200.022,270.25h-22.333c-1.841,0-3.333-1.492-3.333-3.333l0,0c0-1.841,1.492-3.333,3.333-3.333
			h22.333c1.841,0,3.333,1.492,3.333,3.333l0,0C203.355,268.758,201.863,270.25,200.022,270.25z"/>
	</g>
	<g>
		<path style="fill:#DDCDB6;" d="M218.606,80.799c0.222-2.471,0.341-4.918,0.341-7.327c0-41.38-33.545-56.194-74.925-56.194
			S69.096,32.092,69.096,73.472c0,2.409,0.118,4.856,0.341,7.327c-6.199,2.507-10.578,8.573-10.578,15.671
			c0,9.179,12.356,21.685,21.646,22.107c13.249,26.661,36.74,48.551,63.516,48.551s50.267-21.89,63.516-48.551
			c9.29-0.422,21.646-12.928,21.646-22.107C229.184,89.372,224.805,83.305,218.606,80.799z M144.021,164.658
			c-31.403,0-56.86-51.012-56.86-83.904s25.457-45.281,56.86-45.281s56.86,12.389,56.86,45.281S175.424,164.658,144.021,164.658z"/>
	</g>
	<g>
		<path style="fill:#F9B65F;" d="M144.022,47.029c35.667,0,60.71,26.958,60.71,26.958c7,10.333,2.828,44.59,2.828,44.59
			c13.725-18.384,17.648-56.255,18.754-82.783c0.533-12.782-8.504-23.955-21.111-26.13C178.63,5.079,159.645-0.002,144.022,0
			c-15.613,0.002-34.565,5.079-61.137,9.664c-12.607,2.175-21.644,13.348-21.111,26.13c1.106,26.528,5.03,64.399,18.754,82.783
			c0,0-4.172-34.257,2.828-44.59C83.355,73.987,108.355,47.029,144.022,47.029z"/>
	</g>
	<g>
		<g>
			<path style="fill:#E09A4C;" d="M82.884,26.942c26.572-4.585,45.524-9.662,61.137-9.664c15.624-0.002,34.608,5.079,61.181,9.664
				c10.399,1.794,18.354,9.716,20.527,19.609c0.251-3.729,0.442-7.338,0.584-10.756c0.533-12.782-8.504-23.955-21.111-26.13
				C178.63,5.079,159.645-0.002,144.022,0c-15.613,0.002-34.565,5.079-61.137,9.664c-12.607,2.175-21.644,13.348-21.111,26.13
				c0.142,3.418,0.333,7.027,0.584,10.756C64.531,36.658,72.485,28.736,82.884,26.942z"/>
		</g>
	</g>
	<path style="fill:#394C81;" d="M176.327,171.765l-15.284-6.803v5.542l-14.626,26.314c-0.785,0.022-1.574,0.039-2.374,0.039
		c-0.814,0-1.616-0.017-2.413-0.04l-14.587-26.313v-5.542l-15.327,6.803c-3.298,1.483-4.745,5.378-3.216,8.654l14.72,31.542
		c5.357-7.472,11.213-10.093,15.302-10.96v86.685c1.827,0.039,3.659,0.064,5.501,0.064c1.841,0,3.672-0.025,5.499-0.064v-86.685
		c4.089,0.866,9.945,3.488,15.302,10.96l14.72-31.542C181.072,177.142,179.625,173.248,176.327,171.765z"/>
</g>
<g>
</g>
<g>
</g>
<g>
</g>
<g>
</g>
<g>
</g>
<g>
</g>
<g>
</g>
<g>
</g>
<g>
</g>
<g>
</g>
<g>
</g>
<g>
</g>
<g>
</g>
<g>
</g>
<g>
</g>
</svg>
