<?xml version="1.0" encoding="iso-8859-1"?>
<!-- Generator: Adobe Illustrator 19.0.0, SVG Export Plug-In . SVG Version: 6.00 Build 0)  -->
<svg version="1.1" id="Layer_1" xmlns="http://www.w3.org/2000/svg" xmlns:xlink="http://www.w3.org/1999/xlink" x="0px" y="0px"
	 viewBox="0 0 495.991 495.991" style="enable-background:new 0 0 495.991 495.991;" xml:space="preserve">
<g>
	<path style="fill:#E6B47D;" d="M398.569,335.11l-64.144-18.866c-8.824-2.595-15.389-10.006-16.902-19.079l-4.43-26.581
		c31.385-28.767,46.903-76.973,46.903-118.515c0-64.065-50.144-88-112-88s-112,23.935-112,88c0,41.542,15.518,89.749,46.903,118.515
		l-4.43,26.581c-1.512,9.073-8.077,16.484-16.902,19.079L97.423,335.11c-34.047,10.014-57.427,41.26-57.427,76.749v60.132
		c0,13.255,10.745,24,24,24h184h184c13.255,0,24-10.745,24-24v-60.132C455.996,376.37,432.615,345.124,398.569,335.11z"/>
	<path style="fill:#D2A073;" d="M343.996,336l-5.941-18.689l-3.63-1.067c-8.824-2.595-15.389-10.006-16.901-19.079L311.996,264
		l-64,24l-64-24l-1.01,6.06C204.428,305.123,265.28,362.624,343.996,336z"/>
	<path style="fill:#64464B;" d="M361.15,39.991C344.669,21.354,300.235,8,247.997,8s-96.674,13.354-113.155,31.991
		C134.842,39.991,361.15,39.991,361.15,39.991z"/>
	<path style="fill:#C85050;" d="M351.996,39.991V32c-1.631,0-1.882,0-4,0c-38.789,0-70.711-12.244-75.336-28.049
		c-0.531-1.816-2.315-2.989-4.202-3.136C261.839,0.296,255.014,0,247.997,0s-13.844,0.296-20.462,0.814
		c-1.886,0.148-3.67,1.32-4.202,3.136C218.708,19.756,186.785,32,147.997,32c-2.212,0-3.153,0-4,0v7.991H351.996z"/>
	<path style="fill:#F0C891;" d="M359.996,152.068c0,64.065-36.889,144-112,144s-112-79.935-112-144s50.144-88,112-88
		S359.996,88.003,359.996,152.068z"/>
	<path style="fill:#FF6955;" d="M372.198,46.203C369.93,37.784,362.281,32,353.563,32H247.997H142.43
		c-8.719,0-16.368,5.784-18.636,14.203C119.053,63.8,111.997,95.459,111.997,128c0,42.832,16.309,107.016,52.117,146.715
		c3.16,3.504,7.516,5.285,11.887,5.285c3.566,0,7.143-1.185,10.091-3.586c6.932-5.646,7.379-16.865,1.424-23.534
		c-24.04-26.926-38.435-70.103-42.397-105.71c-1.113-10.001,7.133-18.535,17.167-17.763l67.303,5.177
		c12.253,0.943,24.561,0.943,36.814,0l67.303-5.177c10.034-0.772,18.28,7.762,17.167,17.763
		c-3.962,35.607-18.356,78.784-42.397,105.71c-5.955,6.669-5.508,17.887,1.424,23.534c2.948,2.401,6.525,3.586,10.091,3.586
		c4.371,0,8.727-1.781,11.887-5.285c35.809-39.699,52.117-103.883,52.117-146.715C383.996,95.459,376.939,63.8,372.198,46.203z"/>
	<path style="fill:#FF6955;" d="M354.425,316.325l-12.223-4.074c-3.086-1.029-6.207,1.232-6.335,4.483
		c-2.495,63.227-40.882,113.448-87.871,113.448s-85.376-50.221-87.871-113.448c-0.128-3.25-3.249-5.512-6.335-4.483l-12.223,4.074
		c-3.331,1.11-5.566,4.277-5.593,7.788c-0.661,88.222-15.978,114.069-15.978,114.069v57.809h128h128v-57.809
		c0,0-15.317-25.847-15.978-114.069C359.991,320.603,357.757,317.435,354.425,316.325z"/>
	<path style="fill:#D2D7DC;" d="M247.997,446.182c56.078,0,101.664-58.084,103.796-130.734l-9.59-3.197
		c-3.086-1.029-6.207,1.232-6.335,4.482c-2.495,63.228-40.882,113.449-87.871,113.449s-85.376-50.221-87.871-113.449
		c-0.128-3.25-3.249-5.511-6.335-4.482l-9.59,3.197C146.333,388.098,191.918,446.182,247.997,446.182z"/>
	<ellipse style="fill:#D2D7DC;" cx="247.997" cy="84" rx="40" ry="20"/>
</g>
<g>
</g>
<g>
</g>
<g>
</g>
<g>
</g>
<g>
</g>
<g>
</g>
<g>
</g>
<g>
</g>
<g>
</g>
<g>
</g>
<g>
</g>
<g>
</g>
<g>
</g>
<g>
</g>
<g>
</g>
</svg>
